<svg id="SvgjsSvg1039" xmlns="http://www.w3.org/2000/svg" version="1.1" xmlns:xlink="http://www.w3.org/1999/xlink" xmlns:svgjs="http://svgjs.com/svgjs" width="60" height="60"><defs id="SvgjsDefs1040"></defs><path id="SvgjsPath1041" d="M166 2114L226 2114L226 2174L166 2174Z " fill="#b7e923" fill-opacity="1" transform="matrix(1,0,0,1,-166,-2114)"></path><path id="SvgjsPath1042" d="M222.5 2118L222.5 2170.5L170 2170.5L170 2118Z " fill-opacity="0" fill="#ffffff" stroke-dasharray="0" stroke-linejoin="miter" stroke-linecap="round" stroke-opacity="1" stroke="#ffffff" stroke-miterlimit="50" stroke-width="2.045454545454545" transform="matrix(1,0,0,1,-166,-2114)"></path><path id="SvgjsPath1043" d="M196.18 2135.91C196.18 2135.91 194.75 2130.3799999999997 199.93 2131.06 " fill-opacity="0" fill="#ffffff" stroke-dasharray="0" stroke-linejoin="round" stroke-linecap="round" stroke-opacity="1" stroke="#ffffff" stroke-miterlimit="50" stroke-width="1.5" transform="matrix(1,0,0,1,-166,-2114)"></path><path id="SvgjsPath1044" d="M200.46 2154.15C201.06 2154.15 203.83 2153.69 205.26000000000002 2149.7200000000003C206.69000000000003 2145.7500000000005 207.19000000000003 2141.8500000000004 204.49 2138.17C201.8 2134.48 196.41 2136.61 196.41 2136.61L195.85999999999999 2136.61C195.85999999999999 2136.61 190.47 2134.48 187.76999999999998 2138.17C185.07999999999998 2141.85 185.89999999999998 2145.75 187.32999999999998 2149.7200000000003C188.76 2153.69 191.2 2154.15 191.80999999999997 2154.15C192.80999999999997 2154.15 194.67999999999998 2153.48 196.10999999999999 2153.48C197.57999999999998 2153.48 199.45999999999998 2154.15 200.45999999999998 2154.15Z " fill-opacity="0" fill="#ffffff" stroke-dasharray="0" stroke-linejoin="round" stroke-linecap="round" stroke-opacity="1" stroke="#ffffff" stroke-miterlimit="50" stroke-width="1.5" transform="matrix(1,0,0,1,-166,-2114)"></path></svg>