<svg id="SvgjsSvg1010" xmlns="http://www.w3.org/2000/svg" version="1.1" xmlns:xlink="http://www.w3.org/1999/xlink" xmlns:svgjs="http://svgjs.com/svgjs" width="60" height="60"><defs id="SvgjsDefs1011"><clipPath id="SvgjsClipPath1016"><path id="SvgjsPath1015" d="M108.5 2080.65111L108.5 2057.3488899999998L139.5 2057.3488899999998L139.5 2080.65111ZM121.51 2079.16C121.55000000000001 2079.17 121.59 2079.17 121.63000000000001 2079.17C121.95 2079.17 122.23 2078.94 122.28000000000002 2078.61C122.35000000000001 2078.25 122.10000000000001 2077.9 121.74000000000001 2077.84C121.69000000000001 2077.83 116.32000000000001 2076.8500000000004 113.51 2072.96C111.32000000000001 2069.93 111.27000000000001 2065.92 111.36 2064.29C112.62 2064.62 115.3 2065.5 117.44 2067.43C117.72 2067.6699999999996 118.14 2067.6499999999996 118.38 2067.37C118.63 2067.0899999999997 118.6 2066.67 118.33 2066.42C115.16 2063.58 111.05 2062.83 110.87 2062.8L110.19 2062.6800000000003L110.1 2063.3700000000003C110.08999999999999 2063.4300000000003 109.89 2064.9000000000005 110.08 2066.9100000000003C110.25 2068.78 110.8 2071.4800000000005 112.44 2073.7500000000005C114.08 2076.0200000000004 116.46 2077.3700000000003 118.17 2078.1000000000004C120 2078.8900000000003 121.45 2079.1500000000005 121.51 2079.1600000000003ZM126.22 2078.61C126.27 2078.94 126.55 2079.17 126.87 2079.17C126.91000000000001 2079.17 126.95 2079.17 126.99000000000001 2079.16C127.05000000000001 2079.1499999999996 128.5 2078.89 130.33 2078.1C132.04000000000002 2077.37 134.42000000000002 2076.02 136.06 2073.75C137.7 2071.48 138.25 2068.78 138.42000000000002 2066.91C138.60000000000002 2064.8999999999996 138.41000000000003 2063.43 138.4 2063.37L138.31 2062.68L137.63 2062.7999999999997C137.45 2062.83 133.34 2063.58 130.17 2066.4199999999996C129.89999999999998 2066.6699999999996 129.86999999999998 2067.0899999999997 130.11999999999998 2067.3699999999994C130.35999999999999 2067.6499999999996 130.77999999999997 2067.6699999999996 131.05999999999997 2067.4299999999994C133.18999999999997 2065.5099999999993 135.87999999999997 2064.6199999999994 137.14 2064.2899999999995C137.23 2065.9199999999996 137.19 2069.9199999999996 134.98999999999998 2072.9599999999996C132.18999999999997 2076.8299999999995 126.80999999999997 2077.8299999999995 126.75999999999998 2077.8399999999997C126.39999999999998 2077.8999999999996 126.14999999999998 2078.2499999999995 126.21999999999997 2078.6099999999997ZM124.25 2078.55L124.73 2078.05C124.77000000000001 2078.01 125.79 2076.9300000000003 126.81 2075.2000000000003C127.77 2073.59 128.9 2071.09 128.9 2068.28C128.9 2065.4700000000003 127.77000000000001 2062.96 126.81 2061.3500000000004C125.79 2059.6200000000003 124.77 2058.55 124.73 2058.5000000000005L124.25 2058.0000000000005L123.77 2058.5000000000005C123.72999999999999 2058.5500000000006 122.71 2059.6200000000003 121.69 2061.3500000000004C120.73 2062.9600000000005 119.6 2065.4700000000003 119.6 2068.28C119.6 2071.09 120.72999999999999 2073.59 121.69 2075.2000000000003C122.71 2076.94 123.73 2078.01 123.77 2078.05ZM124.25 2059.99C125.27 2061.2599999999998 127.57 2064.5099999999998 127.57 2068.2799999999997C127.57 2072.0299999999997 125.27 2075.2999999999997 124.25 2076.56C123.23 2075.2999999999997 120.93 2072.04 120.93 2068.2799999999997C120.93 2064.5199999999995 123.23 2061.2599999999998 124.25 2059.99Z " fill="#ffffff"></path></clipPath></defs><path id="SvgjsPath1012" d="M94 2038L154 2038L154 2098L94 2098Z " fill="#bca3f4" fill-opacity="1" transform="matrix(1,0,0,1,-94,-2038)"></path><path id="SvgjsPath1013" d="M126.22 2078.61C126.15 2078.25 126.4 2077.9 126.76 2077.84C126.81 2077.83 132.19 2076.83 134.99 2072.96C137.19 2069.92 137.23000000000002 2065.92 137.14000000000001 2064.29C135.88000000000002 2064.62 133.19000000000003 2065.5099999999998 131.06 2067.43C130.78 2067.6699999999996 130.36 2067.6499999999996 130.12 2067.37C129.87 2067.0899999999997 129.9 2066.67 130.17000000000002 2066.42C133.34 2063.58 137.45000000000002 2062.83 137.63000000000002 2062.8L138.31000000000003 2062.6800000000003L138.40000000000003 2063.3700000000003C138.41000000000003 2063.4300000000003 138.60000000000002 2064.9000000000005 138.42000000000004 2066.9100000000003C138.25000000000006 2068.78 137.70000000000005 2071.4800000000005 136.06000000000003 2073.7500000000005C134.42000000000004 2076.0200000000004 132.04000000000002 2077.3700000000003 130.33000000000004 2078.1000000000004C128.50000000000003 2078.8900000000003 127.05000000000004 2079.1500000000005 126.99000000000004 2079.1600000000003C126.95000000000003 2079.1700000000005 126.91000000000004 2079.1700000000005 126.87000000000003 2079.1700000000005C126.55000000000004 2079.1700000000005 126.27000000000004 2078.9400000000005 126.22000000000003 2078.6100000000006ZM123.77 2078.05C123.72999999999999 2078.01 122.71 2076.94 121.69 2075.2000000000003C120.73 2073.59 119.6 2071.09 119.6 2068.28C119.6 2065.4700000000003 120.72999999999999 2062.96 121.69 2061.3500000000004C122.71 2059.6200000000003 123.73 2058.55 123.77 2058.5000000000005L124.25 2058.0000000000005L124.73 2058.5000000000005C124.77000000000001 2058.5500000000006 125.79 2059.6200000000003 126.81 2061.3500000000004C127.77 2062.9600000000005 128.9 2065.4700000000003 128.9 2068.28C128.9 2071.09 127.77000000000001 2073.59 126.81 2075.2000000000003C125.79 2076.9300000000003 124.77 2078.01 124.73 2078.05L124.25 2078.55ZM120.93 2068.28C120.93 2072.0400000000004 123.23 2075.3 124.25 2076.5600000000004C125.27 2075.3 127.57 2072.03 127.57 2068.28C127.57 2064.51 125.27 2061.26 124.25 2059.9900000000002C123.23 2061.26 120.93 2064.5200000000004 120.93 2068.28ZM121.51 2079.16C121.45 2079.1499999999996 120 2078.89 118.17 2078.1C116.46000000000001 2077.37 114.08 2076.02 112.44 2073.75C110.8 2071.48 110.25 2068.78 110.08 2066.91C109.89 2064.8999999999996 110.09 2063.43 110.1 2063.37L110.19 2062.68L110.87 2062.7999999999997C111.05000000000001 2062.83 115.16000000000001 2063.58 118.33 2066.4199999999996C118.6 2066.6699999999996 118.63 2067.0899999999997 118.38 2067.3699999999994C118.14 2067.6499999999996 117.72 2067.6699999999996 117.44 2067.4299999999994C115.3 2065.4999999999995 112.62 2064.6199999999994 111.36 2064.2899999999995C111.27 2065.9199999999996 111.32 2069.9299999999994 113.51 2072.9599999999996C116.32000000000001 2076.8499999999995 121.69 2077.8299999999995 121.74000000000001 2077.8399999999997C122.10000000000001 2077.8999999999996 122.35000000000001 2078.2499999999995 122.28000000000002 2078.6099999999997C122.23000000000002 2078.9399999999996 121.95000000000002 2079.1699999999996 121.63000000000001 2079.1699999999996C121.59 2079.1699999999996 121.55000000000001 2079.1699999999996 121.51 2079.1599999999994Z " fill="#ffffff" fill-opacity="1" transform="matrix(1,0,0,1,-94,-2038)"></path><path id="SvgjsPath1014" d="M126.22 2078.61C126.15 2078.25 126.4 2077.9 126.76 2077.84C126.81 2077.83 132.19 2076.83 134.99 2072.96C137.19 2069.92 137.23000000000002 2065.92 137.14000000000001 2064.29C135.88000000000002 2064.62 133.19000000000003 2065.5099999999998 131.06 2067.43C130.78 2067.6699999999996 130.36 2067.6499999999996 130.12 2067.37C129.87 2067.0899999999997 129.9 2066.67 130.17000000000002 2066.42C133.34 2063.58 137.45000000000002 2062.83 137.63000000000002 2062.8L138.31000000000003 2062.6800000000003L138.40000000000003 2063.3700000000003C138.41000000000003 2063.4300000000003 138.60000000000002 2064.9000000000005 138.42000000000004 2066.9100000000003C138.25000000000006 2068.78 137.70000000000005 2071.4800000000005 136.06000000000003 2073.7500000000005C134.42000000000004 2076.0200000000004 132.04000000000002 2077.3700000000003 130.33000000000004 2078.1000000000004C128.50000000000003 2078.8900000000003 127.05000000000004 2079.1500000000005 126.99000000000004 2079.1600000000003C126.95000000000003 2079.1700000000005 126.91000000000004 2079.1700000000005 126.87000000000003 2079.1700000000005C126.55000000000004 2079.1700000000005 126.27000000000004 2078.9400000000005 126.22000000000003 2078.6100000000006ZM123.77 2078.05C123.72999999999999 2078.01 122.71 2076.94 121.69 2075.2000000000003C120.73 2073.59 119.6 2071.09 119.6 2068.28C119.6 2065.4700000000003 120.72999999999999 2062.96 121.69 2061.3500000000004C122.71 2059.6200000000003 123.73 2058.55 123.77 2058.5000000000005L124.25 2058.0000000000005L124.73 2058.5000000000005C124.77000000000001 2058.5500000000006 125.79 2059.6200000000003 126.81 2061.3500000000004C127.77 2062.9600000000005 128.9 2065.4700000000003 128.9 2068.28C128.9 2071.09 127.77000000000001 2073.59 126.81 2075.2000000000003C125.79 2076.9300000000003 124.77 2078.01 124.73 2078.05L124.25 2078.55ZM120.93 2068.28C120.93 2072.0400000000004 123.23 2075.3 124.25 2076.5600000000004C125.27 2075.3 127.57 2072.03 127.57 2068.28C127.57 2064.51 125.27 2061.26 124.25 2059.9900000000002C123.23 2061.26 120.93 2064.5200000000004 120.93 2068.28ZM121.51 2079.16C121.45 2079.1499999999996 120 2078.89 118.17 2078.1C116.46000000000001 2077.37 114.08 2076.02 112.44 2073.75C110.8 2071.48 110.25 2068.78 110.08 2066.91C109.89 2064.8999999999996 110.09 2063.43 110.1 2063.37L110.19 2062.68L110.87 2062.7999999999997C111.05000000000001 2062.83 115.16000000000001 2063.58 118.33 2066.4199999999996C118.6 2066.6699999999996 118.63 2067.0899999999997 118.38 2067.3699999999994C118.14 2067.6499999999996 117.72 2067.6699999999996 117.44 2067.4299999999994C115.3 2065.4999999999995 112.62 2064.6199999999994 111.36 2064.2899999999995C111.27 2065.9199999999996 111.32 2069.9299999999994 113.51 2072.9599999999996C116.32000000000001 2076.8499999999995 121.69 2077.8299999999995 121.74000000000001 2077.8399999999997C122.10000000000001 2077.8999999999996 122.35000000000001 2078.2499999999995 122.28000000000002 2078.6099999999997C122.23000000000002 2078.9399999999996 121.95000000000002 2079.1699999999996 121.63000000000001 2079.1699999999996C121.59 2079.1699999999996 121.55000000000001 2079.1699999999996 121.51 2079.1599999999994Z " fill-opacity="0" fill="#ffffff" stroke-dasharray="0" stroke-linejoin="miter" stroke-linecap="butt" stroke-opacity="1" stroke="#ffffff" stroke-miterlimit="50" stroke-width="1" clip-path="url(&quot;#SvgjsClipPath1016&quot;)" transform="matrix(1,0,0,1,-94,-2038)"></path><path id="SvgjsPath1017" d="M150.5 2042L150.5 2094.5L98 2094.5L98 2042Z " fill-opacity="0" fill="#ffffff" stroke-dasharray="0" stroke-linejoin="miter" stroke-linecap="round" stroke-opacity="1" stroke="#ffffff" stroke-miterlimit="50" stroke-width="2.045454545454545" transform="matrix(1,0,0,1,-94,-2038)"></path></svg>