<?xml version="1.0" encoding="UTF-8" standalone="no"?>
<svg width="80px" height="80px" viewBox="0 0 80 80" version="1.1" xmlns="http://www.w3.org/2000/svg" xmlns:xlink="http://www.w3.org/1999/xlink">
    <!-- Generator: Sketch 39 (31667) - http://www.bohemiancoding.com/sketch -->
    <title>Group 2</title>
    <desc>Created with Sketch.</desc>
    <defs></defs>
    <g id="Page-1" stroke="none" stroke-width="1" fill="none" fill-rule="evenodd">
        <g id="Fitvigo/Desktop-HD" transform="translate(-552.000000, -2942.000000)">
            <g id="Group-9" transform="translate(264.000000, 2942.000000)">
                <g id="Group-2" transform="translate(288.000000, 0.000000)">
                    <g id="Habit-Border" fill="#63E3B1">
                        <g id="Group">
                            <rect id="Rectangle-10" x="0" y="0" width="80" height="80" rx="40"></rect>
                        </g>
                    </g>
                    <path d="M49.0629468,50.974355 C49.0629468,50.974355 48.4900436,56.928195 44.4537856,55.874835 C41.8261726,55.188175 42.5179146,52.052795 43.4260436,49.798635 L49.0629468,50.974355 Z M49.7322372,48.255075 L44.0322372,47.064915 C44.0322372,47.064915 42.4300436,41.772655 43.4562372,37.360095 C44.8726243,31.294535 48.3824307,32.114575 49.311463,32.436815 C53.0810114,33.742875 53.1162372,39.003215 52.5131404,42.086535 C52.1090114,44.149175 49.7330114,48.254695 49.7322372,48.255075 Z M30.5413985,43.572355 C30.5413985,43.572355 30.4775275,49.552035 34.6020436,48.917815 C37.2900436,48.503995 36.9350759,45.315035 36.2708178,42.981075 L30.5413985,43.572355 Z M28.0566243,34.377875 C28.2370114,36.472055 30.163592,40.797595 30.1639791,40.797595 L35.9588178,40.199095 C35.9588178,40.199095 38.119592,35.101015 37.5656565,30.606755 C36.8030759,24.429475 33.2259146,24.883575 32.2690114,25.108915 C28.379463,26.022055 27.7852694,31.249715 28.0566243,34.377875 Z" id="Combined-Shape" stroke="#FFFFFF" stroke-width="2" stroke-linecap="round" stroke-linejoin="round"></path>
                    <rect id="Rectangle-10-Copy" stroke="#FFFFFF" stroke-width="2.72727273" stroke-linecap="round" stroke-dasharray="61.91193171909877,312.906254359654" transform="translate(40.000000, 40.000000) rotate(0) translate(-40.000000, -40.000000) " x="5" y="5" width="70" height="70" rx="35"></rect>
                </g>
            </g>
        </g>
    </g>
</svg>