<svg height="80" width="80" xmlns="http://www.w3.org/2000/svg" viewBox="0 0 80 80"><path fill="#b7e923" fill-rule="evenodd" d="M0 40c0-22.09 17.9-40 40-40 22.09 0 40 17.9 40 40 0 22.09-17.9 40-40 40-22.09 0-40-17.9-40-40zm0 0"/><path stroke-linecap="round" stroke-width="3" stroke="#fff" d="M5 40c0-19.33 15.67-35 35-35s35 15.67 35 35-15.67 35-35 35-35-15.67-35-35zm0 0" fill="none"/><path stroke-linejoin="round" stroke-linecap="round" stroke-width="2" stroke="#fff" d="M39.82 29.27s-1.9-7.37 5-6.46M45.8 53.74c.8 0 4.49-.61 6.4-5.9 1.91-5.3 2.57-10.5-1.02-15.41-3.6-4.91-10.78-2.07-10.78-2.07h-.74s-7.18-2.84-10.77 2.07c-3.6 4.91-2.51 10.11-.6 15.41 1.91 5.29 5.17 5.9 5.97 5.9 1.34 0 3.84-.9 5.74-.9 1.96 0 4.46.9 5.8.9zm0 0" fill="none"/></svg>