<svg height="80" width="80" xmlns="http://www.w3.org/2000/svg" viewBox="0 0 80 80"><path fill="#82b3f5" fill-rule="evenodd" d="M0 40c0-22.09 17.9-40 40-40 22.09 0 40 17.9 40 40 0 22.09-17.9 40-40 40-22.09 0-40-17.9-40-40zm0 0"/><path stroke-linejoin="round" stroke-linecap="round" stroke-width="2" stroke="#fff" d="M52.34 45.12c-2.04 4.34-6.45 7.35-11.57 7.35-7.05 0-12.77-5.72-12.77-12.77 0-6.58 4.98-12 11.38-12.7-1.65 1.99-2.65 4.55-2.65 7.34 0 6.37 5.16 11.53 11.53 11.53 1.44 0 2.81-.27 4.08-.75zm0 0" fill="none"/><path stroke-linecap="round" stroke-width="3" stroke="#fff" d="M5 40c0-19.33 15.67-35 35-35s35 15.67 35 35-15.67 35-35 35-35-15.67-35-35zm0 0" fill="none"/></svg>