<svg id="SvgjsSvg1050" xmlns="http://www.w3.org/2000/svg" version="1.1" xmlns:xlink="http://www.w3.org/1999/xlink" xmlns:svgjs="http://svgjs.com/svgjs" width="80" height="80"><defs id="SvgjsDefs1051"></defs><path id="SvgjsPath1052" d="M264 2942L344 2942L344 3022L264 3022Z " fill="#f76b96" fill-opacity="1" transform="matrix(1,0,0,1,-264,-2942)"></path><path id="SvgjsPath1053" d="M339 2947L339 3017L269 3017L269 2947Z " fill-opacity="0" fill="#ffffff" stroke-dasharray="0" stroke-linejoin="miter" stroke-linecap="round" stroke-opacity="1" stroke="#ffffff" stroke-miterlimit="50" stroke-width="2.727272727272727" transform="matrix(1,0,0,1,-264,-2942)"></path><path id="SvgjsPath1054" d="M316.71 2972.29C313.65999999999997 2969.24 308.71999999999997 2969.24 305.66999999999996 2972.29L304.49999999999994 2973.35L303.3299999999999 2972.29C300.2799999999999 2969.24 295.3399999999999 2969.24 292.2899999999999 2972.29C289.2399999999999 2975.34 289.2399999999999 2980.2799999999997 292.2899999999999 2983.33L304.4999999999999 2995.65L316.70999999999987 2983.33C319.7599999999999 2980.2799999999997 319.7599999999999 2975.34 316.70999999999987 2972.29Z " fill-opacity="0" fill="#ffffff" stroke-dasharray="0" stroke-linejoin="round" stroke-linecap="round" stroke-opacity="1" stroke="#ffffff" stroke-miterlimit="50" stroke-width="2" transform="matrix(1,0,0,1,-264,-2942)"></path></svg>