<svg id="SvgjsSvg1018" xmlns="http://www.w3.org/2000/svg" version="1.1" xmlns:xlink="http://www.w3.org/1999/xlink" xmlns:svgjs="http://svgjs.com/svgjs" width="60" height="60"><defs id="SvgjsDefs1019"></defs><path id="SvgjsPath1020" d="M166 2038L226 2038L226 2098L166 2098Z " fill="#82b3f5" fill-opacity="1" transform="matrix(1,0,0,1,-166,-2038)"></path><path id="SvgjsPath1021" d="M187 2067.5C187 2062.41816 190.99019 2058.26829 196.00844 2058.0125C194.75548 2059.49323 194 2061.4083899999996 194 2063.5C194 2068.19442 197.80558 2072 202.5 2072C203.39577 2072 204.25918 2071.86144 205.06996 2071.60457C203.53853 2074.79626 200.27662 2077 196.5 2077C191.25329 2077 187 2072.74671 187 2067.5Z " fill-opacity="0" fill="#ffffff" stroke-dasharray="0" stroke-linejoin="round" stroke-linecap="round" stroke-opacity="1" stroke="#ffffff" stroke-miterlimit="50" stroke-width="1.5" transform="matrix(1,0,0,1,-166,-2038)"></path><path id="SvgjsPath1022" d="M222.5 2042L222.5 2094.5L170 2094.5L170 2042Z " fill-opacity="0" fill="#ffffff" stroke-dasharray="0" stroke-linejoin="miter" stroke-linecap="round" stroke-opacity="1" stroke="#ffffff" stroke-miterlimit="50" stroke-width="2.045454545454545" transform="matrix(1,0,0,1,-166,-2038)"></path></svg>