<svg id="SvgjsSvg1023" xmlns="http://www.w3.org/2000/svg" version="1.1" xmlns:xlink="http://www.w3.org/1999/xlink" xmlns:svgjs="http://svgjs.com/svgjs" width="60" height="60"><defs id="SvgjsDefs1024"></defs><path id="SvgjsPath1025" d="M238 2038L298 2038L298 2098L238 2098Z " fill="#64e2b1" fill-opacity="1" transform="matrix(1,0,0,1,-238,-2038)"></path><path id="SvgjsPath1026" d="M275.3 2074.44L271.02000000000004 2073.55C271.02000000000004 2073.55 269.82000000000005 2069.5800000000004 270.59000000000003 2066.27C271.65000000000003 2061.72 274.29 2062.34 274.98 2062.58C277.81 2063.56 277.84000000000003 2067.5 277.38 2069.81C277.08 2071.36 275.3 2074.44 275.3 2074.44ZM274.8 2076.48C274.8 2076.48 274.37 2080.95 271.34000000000003 2080.16C269.37 2079.64 269.89000000000004 2077.29 270.57000000000005 2075.6ZM265.2 2070.49C265.7 2072.24 265.96999999999997 2074.6299999999997 263.95 2074.9399999999996C260.86 2075.4099999999994 260.90999999999997 2070.9299999999994 260.90999999999997 2070.9299999999994ZM262.2 2057.08C262.92 2056.91 265.59999999999997 2056.5699999999997 266.17 2061.21C266.59000000000003 2064.58 264.97 2068.4 264.97 2068.4L260.62 2068.85C260.62 2068.85 259.18 2065.6 259.04 2064.0299999999997C258.84000000000003 2061.6899999999996 259.28000000000003 2057.7699999999995 262.20000000000005 2057.08Z " fill-opacity="0" fill="#ffffff" stroke-dasharray="0" stroke-linejoin="round" stroke-linecap="round" stroke-opacity="1" stroke="#ffffff" stroke-miterlimit="50" stroke-width="1.5" transform="matrix(1,0,0,1,-238,-2038)"></path><path id="SvgjsPath1027" d="M294.5 2042L294.5 2094.5L242 2094.5L242 2042Z " fill-opacity="0" fill="#ffffff" stroke-dasharray="0" stroke-linejoin="miter" stroke-linecap="round" stroke-opacity="1" stroke="#ffffff" stroke-miterlimit="50" stroke-width="2.045454545454545" transform="matrix(1,0,0,1,-238,-2038)"></path></svg>