<svg id="SvgjsSvg1028" xmlns="http://www.w3.org/2000/svg" version="1.1" xmlns:xlink="http://www.w3.org/1999/xlink" xmlns:svgjs="http://svgjs.com/svgjs" width="82" height="2174"><defs id="SvgjsDefs1029"></defs><path id="SvgjsPath1030" d="M22 2114L82 2114L82 2174L22 2174Z " fill="#ffc217" fill-opacity="1" transform="matrix(1,0,0,1,0,0)"></path><path id="SvgjsPath1031" d="M78.5 2118L78.5 2170.5L26 2170.5L26 2118Z " fill-opacity="0" fill="#ffffff" stroke-dasharray="0" stroke-linejoin="miter" stroke-linecap="round" stroke-opacity="1" stroke="#ffffff" stroke-miterlimit="50" stroke-width="2.045454545454545" transform="matrix(1,0,0,1,0,0)"></path><path id="SvgjsPath1032" d="M47 2144.25C47 2147.15 49.36 2149.5 52.25 2149.5C55.14 2149.5 57.5 2147.15 57.5 2144.25C57.5 2141.36 55.14 2139 52.25 2139C49.36 2139 47 2141.36 47 2144.25Z " fill-opacity="0" fill="#ffffff" stroke-dasharray="0" stroke-linejoin="round" stroke-linecap="round" stroke-opacity="1" stroke="#ffffff" stroke-miterlimit="50" stroke-width="1.5" transform="matrix(1,0,0,1,0,0)"></path><path id="SvgjsPath1033" d="M0 0 " fill-opacity="0" fill="#ffffff" stroke-dasharray="0" stroke-linejoin="round" stroke-linecap="round" stroke-opacity="1" stroke="#ffffff" stroke-miterlimit="50" stroke-width="1.5" transform="matrix(1,0,0,1,0,0)"></path></svg>