<svg height="80" width="80" xmlns="http://www.w3.org/2000/svg" viewBox="0 0 80 80"><path fill="#bca3f4" fill-rule="evenodd" d="M0 40c0-22.09 17.9-40 40-40 22.09 0 40 17.9 40 40 0 22.09-17.9 40-40 40-22.09 0-40-17.9-40-40zm0 0"/><path stroke-width=".2" stroke="#fff" fill="#fff" fill-rule="evenodd" d="M40 53.41l-.64-.67c-.06-.06-1.41-1.49-2.78-3.8-1.27-2.15-2.78-5.49-2.78-9.24 0-3.74 1.51-7.09 2.78-9.23 1.37-2.31 2.73-3.74 2.78-3.8l.64-.67.64.67c.06.06 1.41 1.49 2.78 3.8 1.27 2.14 2.78 5.49 2.78 9.23 0 3.75-1.51 7.09-2.78 9.24-1.37 2.31-2.72 3.74-2.78 3.8l-.64.67zm0-24.75c-1.36 1.68-4.43 6.04-4.43 11.04 0 5.02 3.07 9.36 4.43 11.05 1.36-1.69 4.43-6.04 4.43-11.05 0-5.01-3.07-9.36-4.43-11.04zm3.5 25.57c-.43 0-.8-.31-.88-.74-.08-.49.24-.96.73-1.04.07-.01 7.23-1.34 10.97-6.51 2.93-4.05 2.99-9.38 2.87-11.55-1.68.44-5.27 1.62-8.12 4.18-.36.33-.92.29-1.25-.08-.32-.37-.29-.93.08-1.26 4.22-3.79 9.71-4.79 9.94-4.83l.9-.16.13.92c.01.08.27 2.05.03 4.72-.23 2.49-.96 6.09-3.15 9.12-2.19 3.03-5.36 4.82-7.64 5.8-2.45 1.05-4.38 1.4-4.46 1.41l-.15.02zm-7.15-.01c-.08-.02-2.01-.37-4.46-1.42-2.28-.97-5.45-2.77-7.64-5.8-2.19-3.02-2.92-6.63-3.15-9.12-.24-2.67.02-4.64.03-4.72l.13-.92.9.16c.23.04 5.72 1.04 9.94 4.83.37.33.4.89.08 1.26-.33.37-.89.41-1.25.08-2.86-2.56-6.44-3.74-8.12-4.18-.11 2.17-.05 7.51 2.87 11.55 3.75 5.19 10.9 6.5 10.97 6.51.49.08.81.55.73 1.04-.08.43-.45.74-.88.74l-.15-.01zm0 0"/><path stroke-linecap="round" stroke-width="3" stroke="#fff" d="M5 40c0-19.33 15.67-35 35-35s35 15.67 35 35-15.67 35-35 35-35-15.67-35-35zm0 0" fill="none"/></svg>