<svg height="80" width="80" xmlns="http://www.w3.org/2000/svg" viewBox="0 0 80 80"><path fill="#83dae8" fill-rule="evenodd" d="M0 40c0-22.09 17.9-40 40-40 22.09 0 40 17.9 40 40 0 22.09-17.9 40-40 40-22.09 0-40-17.9-40-40zm0 0"/><path stroke-linejoin="round" stroke-linecap="round" stroke-width="2" stroke="#fff" d="M49.35 38.05l-15.41 20.23 4-17.05h-6.94l14.41-20.23-3 17.05h6.94zm0 0" fill="none"/><path stroke-linecap="round" stroke-width="3" stroke="#fff" d="M5 40c0-19.33 15.67-35 35-35s35 15.67 35 35-15.67 35-35 35-35-15.67-35-35zm0 0" fill="none"/></svg>