<svg xmlns="http://www.w3.org/2000/svg" style="width:0; height:0; visibility:hidden;">
    <symbol id="icon_burger" viewBox="0 0 24 14">
      <path id="SvgjsPath1014" d="M16 30L16 28L40 28L40 30ZM16 36L16 34L40 34L40 36ZM16 42L16 40L40 40L40 42Z " fill="#9ac9ff" fill-opacity="1" transform="matrix(1,0,0,1,-16,-28)"/>
    </symbol>
    <symbol id="icon_close_nav" viewBox="0 0 20 20">
      <path id="SvgjsPath1010" d="M17.22183 44.19239L15.80762 42.778180000000006L32.77818 25.807620000000007L34.192389999999996 27.221830000000008Z " fill="#9ac9ff" fill-opacity="1" transform="matrix(1,0,0,1,-15,-25)"/><path id="SvgjsPath1011" d="M15.80761 27.22183L17.22182 25.80762L34.19238 42.77818L32.77817 44.192389999999996Z " fill="#9ac9ff" fill-opacity="1" transform="matrix(1,0,0,1,-15,-25)"/>
    </symbol>
    <symbol id="icon_habits_1" viewBox="0 0 80 80">
      <path fill="#f76b96" fill-rule="evenodd" d="M0 40c0-22.09 17.9-40 40-40 22.09 0 40 17.9 40 40 0 22.09-17.9 40-40 40-22.09 0-40-17.9-40-40zm0 0"/><path stroke-linecap="round" stroke-dasharray="169,853" stroke-width="3" stroke="#fff" d="M5 40c0-19.33 15.67-35 35-35s35 15.67 35 35-15.67 35-35 35-35-15.67-35-35zm0 0" fill="none"/><path stroke-linejoin="round" stroke-linecap="round" stroke-width="2" stroke="#fff" d="M52.71 30.29c-3.05-3.05-7.99-3.05-11.04 0l-1.17 1.06-1.17-1.06c-3.05-3.05-7.99-3.05-11.04 0-3.05 3.05-3.05 7.99 0 11.04l12.21 12.32 12.21-12.32c3.05-3.05 3.05-7.99 0-11.04zm0 0" fill="none"/>
    </symbol>
    <symbol id="icon_habits_2" viewBox="0 0 80 80">
      <path fill="#bca3f4" fill-rule="evenodd" d="M0 40c0-22.09 17.9-40 40-40 22.09 0 40 17.9 40 40 0 22.09-17.9 40-40 40-22.09 0-40-17.9-40-40zm0 0"/><path stroke-width=".2" stroke="#fff" fill="#fff" fill-rule="evenodd" d="M40 53.41l-.64-.67c-.06-.06-1.41-1.49-2.78-3.8-1.27-2.15-2.78-5.49-2.78-9.24 0-3.74 1.51-7.09 2.78-9.23 1.37-2.31 2.73-3.74 2.78-3.8l.64-.67.64.67c.06.06 1.41 1.49 2.78 3.8 1.27 2.14 2.78 5.49 2.78 9.23 0 3.75-1.51 7.09-2.78 9.24-1.37 2.31-2.72 3.74-2.78 3.8l-.64.67zm0-24.75c-1.36 1.68-4.43 6.04-4.43 11.04 0 5.02 3.07 9.36 4.43 11.05 1.36-1.69 4.43-6.04 4.43-11.05 0-5.01-3.07-9.36-4.43-11.04zm3.5 25.57c-.43 0-.8-.31-.88-.74-.08-.49.24-.96.73-1.04.07-.01 7.23-1.34 10.97-6.51 2.93-4.05 2.99-9.38 2.87-11.55-1.68.44-5.27 1.62-8.12 4.18-.36.33-.92.29-1.25-.08-.32-.37-.29-.93.08-1.26 4.22-3.79 9.71-4.79 9.94-4.83l.9-.16.13.92c.01.08.27 2.05.03 4.72-.23 2.49-.96 6.09-3.15 9.12-2.19 3.03-5.36 4.82-7.64 5.8-2.45 1.05-4.38 1.4-4.46 1.41l-.15.02zm-7.15-.01c-.08-.02-2.01-.37-4.46-1.42-2.28-.97-5.45-2.77-7.64-5.8-2.19-3.02-2.92-6.63-3.15-9.12-.24-2.67.02-4.64.03-4.72l.13-.92.9.16c.23.04 5.72 1.04 9.94 4.83.37.33.4.89.08 1.26-.33.37-.89.41-1.25.08-2.86-2.56-6.44-3.74-8.12-4.18-.11 2.17-.05 7.51 2.87 11.55 3.75 5.19 10.9 6.5 10.97 6.51.49.08.81.55.73 1.04-.08.43-.45.74-.88.74l-.15-.01zm0 0"/><path stroke-linecap="round" stroke-width="3" stroke="#fff" d="M5 40c0-19.33 15.67-35 35-35s35 15.67 35 35-15.67 35-35 35-35-15.67-35-35zm0 0" fill="none"/>
    </symbol>
    <symbol id="icon_habits_3" viewBox="0 0 80 80">
      <path fill="#82b3f5" fill-rule="evenodd" d="M0 40c0-22.09 17.9-40 40-40 22.09 0 40 17.9 40 40 0 22.09-17.9 40-40 40-22.09 0-40-17.9-40-40zm0 0"/><path stroke-linejoin="round" stroke-linecap="round" stroke-width="2" stroke="#fff" d="M52.34 45.12c-2.04 4.34-6.45 7.35-11.57 7.35-7.05 0-12.77-5.72-12.77-12.77 0-6.58 4.98-12 11.38-12.7-1.65 1.99-2.65 4.55-2.65 7.34 0 6.37 5.16 11.53 11.53 11.53 1.44 0 2.81-.27 4.08-.75zm0 0" fill="none"/><path stroke-linecap="round" stroke-width="3" stroke="#fff" d="M5 40c0-19.33 15.67-35 35-35s35 15.67 35 35-15.67 35-35 35-35-15.67-35-35zm0 0" fill="none"/>
    </symbol>
    <symbol id="icon_habits_4" viewBox="0 0 80 80">
      <path fill="#64e2b1" fill-rule="evenodd" d="M0 40c0-22.09 17.9-40 40-40 22.09 0 40 17.9 40 40 0 22.09-17.9 40-40 40-22.09 0-40-17.9-40-40zm0 0"/><path stroke-linejoin="round" stroke-linecap="round" stroke-width="2" stroke="#fff" d="M49.06 50.97s-.57 5.96-4.61 4.9c-2.62-.68-1.93-3.82-1.02-6.07l5.63 1.17zm.67-2.71l-5.7-1.2s-1.6-5.29-.57-9.7c1.41-6.07 4.92-5.25 5.85-4.92 3.77 1.3 3.81 6.56 3.2 9.65-.4 2.06-2.78 6.16-2.78 6.17zm-19.19-4.69s-.06 5.98 4.06 5.35c2.69-.42 2.34-3.6 1.67-5.94l-5.73.59zm-2.48-9.19c.18 2.09 2.1 6.42 2.1 6.42l5.8-.6s2.16-5.1 1.61-9.59c-.77-6.18-4.34-5.73-5.3-5.5-3.89.91-4.48 6.14-4.21 9.27zm0 0" fill="none"/><path stroke-linecap="round" stroke-dasharray="168.85072287026935,853.3806937081472" stroke-width="3" stroke="#fff" d="M5 40c0-19.33 15.67-35 35-35s35 15.67 35 35-15.67 35-35 35-35-15.67-35-35zm0 0" fill="none"/>
    </symbol>
    <symbol id="icon_habits_5" viewBox="0 0 80 80">
      <path fill="#ffc217" fill-rule="evenodd" d="M0 40c0-22.09 17.9-40 40-40 22.09 0 40 17.9 40 40 0 22.09-17.9 40-40 40-22.09 0-40-17.9-40-40zm0 0"/><path stroke-linecap="round" stroke-dasharray="168.8507269236667,853.3806666854982" stroke-width="3" stroke="#fff" d="M5 40c0-19.33 15.67-35 35-35s35 15.67 35 35-15.67 35-35 35-35-15.67-35-35zm0 0" fill="none"/><path stroke-linejoin="round" stroke-linecap="round" stroke-width="2" stroke="#fff" d="M33 40c0 3.86 3.14 7 7 7s7-3.14 7-7-3.14-7-7-7-7 3.14-7 7zm0 0M40 27.9v-6.18 6.18zm8.55 3.55l4.38-4.38-4.38 4.38zm3.55 8.55h6.18-6.18zm-3.55 8.55l4.38 4.38-4.38-4.38zm-8.55 3.55v6.18-6.18zm-8.55-3.55l-4.38 4.38 4.38-4.38zm-3.55-8.55h-6.18 6.18zm3.55-8.55l-4.38-4.38 4.38 4.38zm0 0" fill="none"/>
    </symbol>
    <symbol id="icon_habits_6" viewBox="0 0 80 80">
      <path fill="#83dae8" fill-rule="evenodd" d="M0 40c0-22.09 17.9-40 40-40 22.09 0 40 17.9 40 40 0 22.09-17.9 40-40 40-22.09 0-40-17.9-40-40zm0 0"/><path stroke-linejoin="round" stroke-linecap="round" stroke-width="2" stroke="#fff" d="M49.35 38.05l-15.41 20.23 4-17.05h-6.94l14.41-20.23-3 17.05h6.94zm0 0" fill="none"/><path stroke-linecap="round" stroke-width="3" stroke="#fff" d="M5 40c0-19.33 15.67-35 35-35s35 15.67 35 35-15.67 35-35 35-35-15.67-35-35zm0 0" fill="none"/>
    </symbol>
    <symbol id="icon_habits_7" viewBox="0 0 80 80">
      <path fill="#b7e923" fill-rule="evenodd" d="M0 40c0-22.09 17.9-40 40-40 22.09 0 40 17.9 40 40 0 22.09-17.9 40-40 40-22.09 0-40-17.9-40-40zm0 0"/><path stroke-linecap="round" stroke-width="3" stroke="#fff" d="M5 40c0-19.33 15.67-35 35-35s35 15.67 35 35-15.67 35-35 35-35-15.67-35-35zm0 0" fill="none"/><path stroke-linejoin="round" stroke-linecap="round" stroke-width="2" stroke="#fff" d="M39.82 29.27s-1.9-7.37 5-6.46M45.8 53.74c.8 0 4.49-.61 6.4-5.9 1.91-5.3 2.57-10.5-1.02-15.41-3.6-4.91-10.78-2.07-10.78-2.07h-.74s-7.18-2.84-10.77 2.07c-3.6 4.91-2.51 10.11-.6 15.41 1.91 5.29 5.17 5.9 5.97 5.9 1.34 0 3.84-.9 5.74-.9 1.96 0 4.46.9 5.8.9zm0 0" fill="none"/>
    </symbol>
    <symbol id="icon_habits_8" viewBox="0 0 80 80">
      <path fill="#ff7362" fill-rule="evenodd" d="M0 40c0-22.09 17.9-40 40-40 22.09 0 40 17.9 40 40 0 22.09-17.9 40-40 40-22.09 0-40-17.9-40-40zm0 0"/><path stroke-linecap="round" stroke-dasharray="168.8507269236667,853.3806666854982" stroke-width="3" stroke="#fff" d="M5 40c0-19.33 15.67-35 35-35s35 15.67 35 35-15.67 35-35 35-35-15.67-35-35zm0 0" fill="none"/><path stroke-linejoin="round" stroke-linecap="round" stroke-width="2" stroke="#fff" d="M25 39.54h6.28l6.8-9.54 5.14 20.56 4.69-10.01h6.28" fill="none"/>
    </symbol>
    <symbol id="icon_lock" viewBox="0 0 122 122">
      <path stroke-linejoin="round" stroke-linecap="round" stroke-width="2" stroke="#9ac9ff" d="M61 121c33.14 0 60-26.86 60-60s-26.86-60-60-60-60 26.86-60 60 26.86 60 60 60zm0 0" fill="none"/><path fill="#fff" fill-rule="evenodd" d="M72.64 53.45h7v26h-7v-26zm0 0"/><path stroke-linejoin="round" stroke-linecap="round" stroke-width="2" stroke="#9ac9ff" d="M83.36 87.63v-34.81h-44.72v34.81c0 1.86 1.5 3.37 3.35 3.37h38.02c1.85 0 3.35-1.51 3.35-3.37zm0 0M63.18 68.64c0 1.2-.98 2.18-2.18 2.18-1.2 0-2.18-.98-2.18-2.18 0-1.21.98-2.19 2.18-2.19 1.2 0 2.18.98 2.18 2.19zm0 0M61 72.45v6-6zm0 0" fill="none"/>
    </symbol>
    <symbol id="icon_lock_head" viewBox="0 0 34 35">
      <path stroke-linejoin="round" stroke-linecap="round" stroke-width="2" stroke="#9ac9ff" d="M1.18 23.82v-6.71c0-8.65 6.96-15.66 15.55-15.66 8.58 0 15.54 7.01 15.54 15.66v16.71" fill="none"/>
    </symbol></svg>