<svg xmlns="http://www.w3.org/2000/svg" style="width:0; height:0; visibility:hidden;">
  <defs>
      <clipPath id="SvgjsClipPath1021"><path id="SvgjsPath1020" d="M146.29 2419.21C146.13 2419.21 146 2419.09 146 2418.93C146 2415.37 148.36 2412.41 151.84 2411.46C150.44 2410.66 149.54 2409.17 149.54 2407.54C149.54 2405.04 151.63 2403 154.19 2403C156.75 2403 158.84 2405.04 158.84 2407.54C158.84 2409.17 157.94 2410.66 156.53 2411.46C160.01 2412.41 162.38 2415.37 162.38 2418.93C162.38 2419.0899999999997 162.25 2419.21 162.09 2419.21Z " fill="#ffffff"/></clipPath>
  </defs>
    <symbol id="icon_burger" viewBox="0 0 24 14">
      <path id="SvgjsPath1014" d="M16 30L16 28L40 28L40 30ZM16 36L16 34L40 34L40 36ZM16 42L16 40L40 40L40 42Z " fill="#9ac9ff" fill-opacity="1" transform="matrix(1,0,0,1,-16,-28)"/>
    </symbol>
    <symbol id="icon_close_nav" viewBox="0 0 20 20">
      <path id="SvgjsPath1010" d="M17.22183 44.19239L15.80762 42.778180000000006L32.77818 25.807620000000007L34.192389999999996 27.221830000000008Z " fill="#9ac9ff" fill-opacity="1" transform="matrix(1,0,0,1,-15,-25)"/><path id="SvgjsPath1011" d="M15.80761 27.22183L17.22182 25.80762L34.19238 42.77818L32.77817 44.192389999999996Z " fill="#9ac9ff" fill-opacity="1" transform="matrix(1,0,0,1,-15,-25)"/>
    </symbol>
    <symbol id="icon_feature_bmi" viewBox="0 0 45 56">
      <path id="SvgjsPath1042" d="M1031.34 1872.92C1031.72 1871.76 1032.06 1870.5 1032.3799999999999 1869.17C1033.01 1866.52 1033.51 1863.69 1033.8899999999999 1860.8600000000001C1034.02 1859.8700000000001 1034.1299999999999 1858.95 1034.2099999999998 1858.13C1034.2599999999998 1857.65 1034.2899999999997 1857.3000000000002 1034.3099999999997 1857.1100000000001C1034.4099999999996 1856.98 1034.4899999999998 1856.8300000000002 1034.5199999999998 1856.66C1034.8399999999997 1855.14 1034.9999999999998 1853.5800000000002 1034.9999999999998 1852C1034.9999999999998 1847.16 1033.4299999999998 1843.85 1029.0999999999997 1837.61C1028.9699999999996 1837.4099999999999 1028.9699999999996 1837.4099999999999 1028.8399999999997 1837.2199999999998C1028.0799999999997 1836.1299999999999 1027.6999999999996 1835.5799999999997 1027.2799999999997 1834.9299999999998C1026.3399999999997 1833.5199999999998 1025.1899999999998 1830.9299999999998 1024.3799999999997 1828.4599999999998C1023.3599999999997 1825.3799999999999 1024.1299999999997 1821.9999999999998 1026.2399999999996 1818.5199999999998C1026.6499999999996 1817.8499999999997 1026.1699999999996 1816.9999999999998 1025.3999999999996 1816.9999999999998L1000.5199999999996 1816.9999999999998C999.7999999999996 1816.9999999999998 999.3199999999996 1817.7599999999998 999.6199999999997 1818.4199999999998C1001.2399999999997 1821.9199999999998 1001.7299999999997 1825.33 1000.6999999999997 1828.4599999999998C1000.5899999999997 1828.7799999999997 1000.5799999999997 1828.8299999999997 1000.3099999999997 1829.6699999999998C999.4799999999997 1832.2899999999997 998.9699999999997 1833.4699999999998 997.9299999999997 1834.7199999999998C992.3999999999997 1841.4399999999998 989.9999999999998 1846.0099999999998 989.9999999999998 1851.9999999999998C989.9999999999998 1853.6199999999997 990.1699999999997 1855.2199999999998 990.4999999999998 1856.7899999999997C990.5499999999997 1856.9899999999998 990.6399999999998 1857.1599999999996 990.7799999999997 1857.2899999999997C990.8499999999998 1858.1499999999996 990.9499999999997 1859.0899999999997 991.0699999999997 1860.0999999999997C991.4199999999997 1863.1199999999997 991.9099999999997 1866.1499999999996 992.5699999999997 1868.9799999999998C992.8899999999998 1870.3899999999999 993.2599999999998 1871.7199999999998 993.6499999999997 1872.9499999999998L993.6899999999997 1872.93709L993.6899999999997 1873L1011.4699999999997 1873L1011.2599999999996 1871L1011.2580499999997 1871L1010.6799999999997 1864L1014.3899999999998 1864L1013.7769199999998 1871.20981L1013.5799999999998 1873L1031.34 1873ZM1025.63 1836.04C1026.0600000000002 1836.7 1026.45 1837.27 1027.21 1838.37C1027.3400000000001 1838.56 1027.3400000000001 1838.56 1027.48 1838.75C1029.18405 1841.20864 1030.4274 1843.16704 1031.29914 1844.92384C1020.1960500000001 1850.47239 1008.7018 1850.3093299999998 998.0200000000001 1846.6499999999999C996.3900000000001 1846.09 994.9200000000001 1845.4999999999998 993.6500000000001 1844.8999999999999C993.6093900000001 1844.88051 993.5694500000001 1844.8612799999999 993.5301900000001 1844.8423099999998C994.73175 1842.1733099999997 996.66745 1839.3924699999998 999.46 1835.9999999999998C1000.7 1834.4899999999998 1001.3000000000001 1833.1299999999999 1002.2 1830.2799999999997C1002.46 1829.4499999999998 1002.48 1829.3999999999996 1002.58 1829.0899999999997C1003.5300000000001 1826.1999999999996 1003.39 1823.1699999999996 1002.4100000000001 1820.0999999999997C1002.1400000000001 1819.2599999999998 1002.0400000000001 1818.9999999999998 1002.0400000000001 1818.9999999999998L1023.71 1818.9899999999998C1021.97 1822.4199999999998 1021.4300000000001 1825.8299999999997 1022.5 1829.0899999999997C1023.36 1831.7199999999998 1024.58 1834.4599999999996 1025.63 1836.0399999999997ZM1032.10123 1846.75923C1032.74826 1848.4943099999998 1033.02 1850.12554 1033.02 1852C1033.02 1853.44 1032.78 1855.34 1032.78 1855.34C1030.1399999999999 1855.07 1026.85 1855.53 1023.5699999999999 1856.6699999999998C1020.27 1857.82 1017.39 1859.4999999999998 1015.4799999999999 1861.36C1015.1399999999999 1861.6899999999998 1014.8899999999999 1861.99 1014.8899999999999 1862C1013.7399999999999 1861.99 1010.6999999999998 1861.99 1010.6999999999998 1861.99C1008.8199999999998 1859.88 1005.6699999999998 1857.95 1002.0099999999998 1856.67C998.9699999999998 1855.6200000000001 995.9399999999997 1855.15 993.4199999999997 1855.29C992.6399999999998 1855.34 992.2599999999998 1855.4099999999999 992.2599999999998 1855.4099999999999C992.0799999999998 1854.29 991.9799999999998 1853.1499999999999 991.9799999999998 1851.9999999999998C991.9799999999998 1850.1409599999997 992.2440899999998 1848.4210999999998 992.8059199999998 1846.7033899999997C992.8106099999998 1846.7055899999996 992.8152999999998 1846.7077899999997 992.8199999999998 1846.7099999999996C994.1499999999999 1847.3399999999997 995.6799999999998 1847.9599999999996 997.3799999999998 1848.5399999999995C1008.4966799999997 1852.3536099999994 1020.4950699999997 1852.5313099999996 1032.1012299999998 1846.7592299999994ZM1024.22 1858.57C1027.13 1857.55 1030.02 1857.1299999999999 1032.3 1857.3C1032.28 1857.47 1032.27 1857.68 1032.24 1857.9199999999998C1032.16 1858.7299999999998 1032.05 1859.62 1031.92 1860.59C1031.5500000000002 1863.36 1031.0700000000002 1866.1299999999999 1030.45 1868.6999999999998C1030.25762 1869.5005299999998 1030.05755 1870.2663999999997 1029.8473800000002 1870.9999999999998L1015.7888900000002 1870.9999999999998L1016.4500000000002 1863.2099999999998C1018.1000000000001 1861.4299999999998 1020.9100000000002 1859.7099999999998 1024.2200000000003 1858.5699999999997ZM995.13384 1871C994.90824 1870.20873 994.69612 1869.38037 994.5 1868.52C993.86 1865.77 993.38 1862.82 993.03 1859.86C992.93 1858.9699999999998 992.8399999999999 1858.12 992.78 1857.35C995.12 1857.07 998.22 1857.48 1001.36 1858.57C1004.33 1859.59 1006.9 1861.08 1008.59 1862.6599999999999L1009.26752 1870.9999999999998ZM1012.5 1843C1011.41 1843 1010.52 1842.1 1010.52 1841C1010.52 1839.89 1011.41 1839 1012.5 1839C1013.59 1839 1014.48 1839.89 1014.48 1841C1014.48 1842.1 1013.59 1843 1012.5 1843Z " fill="#9dc6ff" fill-opacity="1" transform="matrix(1,0,0,1,-990,-1817)"/>
    </symbol>
    <symbol id="icon_feature_body-fat" viewBox="0 0 58 61">
      <path id="SvgjsPath1030" d="M641 1540C624.97 1540 612 1553.67 612 1570.5C612 1587.33 624.97 1601 641 1601C657.03 1601 670 1587.33 670 1570.5C670 1553.67 657.03 1540 641 1540ZM641 1599.01C626.11 1599.01 614.02 1586.26 614.02 1570.5C614.02 1554.74 626.11 1541.99 641 1541.99C655.89 1541.99 667.98 1554.74 667.98 1570.5C667.98 1586.26 655.89 1599.01 641 1599.01ZM652.46 1568.36C646.72 1568.36 642.09 1573.24 642.09 1579.2199999999998C642.09 1585.2099999999998 646.72 1590.0799999999997 652.46 1590.0799999999997C658.2 1590.0799999999997 662.83 1585.2099999999998 662.83 1579.2199999999998C662.83 1573.2399999999998 658.2 1568.36 652.46 1568.36ZM645.02 1547.92C639.87 1547.92 635.73 1552.29 635.73 1557.65C635.73 1563 639.87 1567.3700000000001 645.02 1567.3700000000001C650.16 1567.3700000000001 654.31 1563.0000000000002 654.31 1557.65C654.31 1552.2900000000002 650.16 1547.92 645.02 1547.92ZM638.06 1574.8C638.06 1569.47 633.9799999999999 1565.1699999999998 628.9899999999999 1565.1699999999998C623.9999999999999 1565.1699999999998 619.9199999999998 1569.4699999999998 619.9199999999998 1574.8C619.9199999999998 1580.1299999999999 623.9999999999999 1584.43 628.9899999999999 1584.43C633.9799999999999 1584.43 638.06 1580.13 638.06 1574.8ZM652.46 1588.1C647.86 1588.1 644.11 1584.1399999999999 644.11 1579.2199999999998C644.11 1574.3099999999997 647.86 1570.35 652.46 1570.35C657.0500000000001 1570.35 660.8100000000001 1574.31 660.8100000000001 1579.2199999999998C660.8100000000001 1584.1399999999999 657.0500000000001 1588.1 652.46 1588.1ZM645.02 1565.38C641.01 1565.38 637.74 1561.93 637.74 1557.65C637.74 1553.3600000000001 641.01 1549.91 645.02 1549.91C649.02 1549.91 652.29 1553.3600000000001 652.29 1557.65C652.29 1561.93 649.02 1565.38 645.02 1565.38ZM640.07 1574.8C640.07 1581.2 635.13 1586.4199999999998 628.99 1586.4199999999998C622.85 1586.4199999999998 617.91 1581.1999999999998 617.91 1574.8C617.91 1568.3999999999999 622.85 1563.19 628.99 1563.19C635.13 1563.19 640.07 1568.4 640.07 1574.8Z " fill="#9dc6ff" fill-opacity="1" transform="matrix(1,0,0,1,-612,-1540)"/>
    </symbol>
    <symbol id="icon_feature_body-water" viewBox="0 0 33 56">
      <path id="SvgjsPath1033" d="M1024 1580.03C1024 1577.74 1023.22 1574.22 1022.51 1572.78C1022.29 1572.32 1021.02 1569.96 1019.01 1566.25C1019 1566.23 1019 1566.23 1018.99 1566.21C1018.21 1564.78 1017.38 1563.25 1016.55 1561.72C1016.0799999999999 1560.8500000000001 1016.0799999999999 1560.8500000000001 1015.75 1560.24C1015.5 1559.79 1015.5 1559.79 1015.44 1559.68L1007.5 1545L999.56 1559.69C999.5 1559.79 999.5 1559.79 999.25 1560.24C998.92 1560.85 998.92 1560.85 998.45 1561.72C997.62 1563.25 996.7900000000001 1564.78 996.01 1566.21C996 1566.23 996 1566.23 995.99 1566.25C993.98 1569.96 992.71 1572.32 992.49 1572.78C991.78 1574.22 991 1577.74 991 1580.03C991 1584.21 992.39 1588.18 994.87 1591.31C994.8100000000001 1591.72 994.78 1592.11 994.78 1592.45C994.78 1597.16 998.37 1601 1002.85 1601C1005.5500000000001 1601 1007.9300000000001 1599.6 1009.4 1597.45C1017.68 1596.45 1024 1588.97 1024 1580.03ZM1010.85 1593.63C1010.9 1593.25 1010.9200000000001 1592.8500000000001 1010.9200000000001 1592.45C1010.9200000000001 1591.3300000000002 1010.5500000000001 1589.64 1010.19 1588.91C1010.1400000000001 1588.8000000000002 1009.97 1588.47 1009.69 1587.97C1009.4200000000001 1587.46 1009.0500000000001 1586.76 1008.58 1585.91C1008.58 1585.9 1008.58 1585.9 1008.57 1585.89C1008.22 1585.24 1007.84 1584.5400000000002 1007.46 1583.8400000000001C1007.0500000000001 1583.1000000000001 1007.0500000000001 1583.1000000000001 1006.95 1582.91L1002.85 1575.3200000000002L998.74 1582.91C998.64 1583.1000000000001 998.64 1583.1000000000001 998.24 1583.8400000000001C997.86 1584.5400000000002 997.48 1585.2400000000002 997.13 1585.89C997.12 1585.9 997.12 1585.9 997.12 1585.91C996.19 1587.6200000000001 995.62 1588.69 995.51 1588.91C995.31 1589.3200000000002 993 1583.91 993 1580.03C993 1578.03 993.72 1574.82 994.28 1573.6499999999999C994.49 1573.2299999999998 995.78 1570.84 997.75 1567.1999999999998C997.76 1567.1799999999998 997.76 1567.1799999999998 997.78 1567.1499999999999C998.55 1565.7199999999998 999.38 1564.1999999999998 1000.2099999999999 1562.6699999999998C1000.68 1561.8 1000.68 1561.8 1001.0099999999999 1561.1899999999998C1001.2599999999999 1560.7399999999998 1001.2599999999999 1560.7399999999998 1001.3199999999998 1560.6399999999999L1007.4999999999998 1549.2099999999998L1013.6799999999997 1560.6299999999999C1013.7399999999997 1560.7399999999998 1013.7399999999997 1560.7399999999998 1013.9899999999997 1561.1899999999998C1014.3199999999997 1561.7999999999997 1014.3199999999997 1561.7999999999997 1014.7899999999996 1562.6699999999998C1015.6199999999997 1564.1999999999998 1016.4499999999996 1565.7199999999998 1017.2199999999996 1567.1499999999999C1017.2399999999996 1567.1799999999998 1017.2399999999996 1567.1799999999998 1017.2499999999995 1567.1999999999998C1019.2199999999996 1570.84 1020.5099999999995 1573.2299999999998 1020.7199999999996 1573.6499999999999C1021.2799999999995 1574.82 1021.9999999999995 1578.03 1021.9999999999995 1580.03C1021.9999999999995 1587.48837 1017.0821499999995 1593.7672499999999 1010.4843299999995 1595.23904C1010.6546699999996 1594.7188899999999 1010.7771899999996 1594.18066 1010.8499999999996 1593.6299999999999ZM1009.67 1597.02C1010 1596.47 1010.28 1595.87 1010.4799999999999 1595.24C1010.4814399999999 1595.23968 1010.4828799999999 1595.23936 1010.4843299999999 1595.23904C1010.2803699999998 1595.86185 1010.0078499999998 1596.45875 1009.6699999999998 1597.02ZM997.31 1589.78C997.4 1589.6 997.9899999999999 1588.5 998.88 1586.86C999.24 1586.1799999999998 999.62 1585.4799999999998 1000 1584.79C1000.4 1584.05 1000.4 1584.05 1000.51 1583.86C1001.02 1582.9199999999998 1001.53 1581.9699999999998 1002.04 1581.03C1002.5999999999999 1579.99 1002.8499999999999 1579.56 1002.87 1579.56C1003.64 1580.99 1004.42 1582.4199999999998 1005.19 1583.86C1005.2900000000001 1584.05 1005.2900000000001 1584.05 1005.7 1584.79C1006.08 1585.48 1006.46 1586.18 1006.8100000000001 1586.83C1007.71 1588.5 1008.3000000000001 1589.6 1008.3900000000001 1589.78C1008.6100000000001 1590.24 1008.9200000000001 1591.62 1008.9200000000001 1592.45C1008.9200000000001 1596.0900000000001 1006.19 1599.01 1002.85 1599.01C999.51 1599.01 996.78 1596.09 996.78 1592.45C996.78 1591.6200000000001 997.0899999999999 1590.24 997.31 1589.78Z " fill="#9dc6ff" fill-opacity="1" transform="matrix(1,0,0,1,-991,-1545)"/>
    </symbol>
    <symbol id="icon_feature_bone" viewBox="0 0 50 60">
      <path id="SvgjsPath1039" d="M628.81 1855.61C627.4499999999999 1857.56 625.3299999999999 1858.9599999999998 623.4699999999999 1859C622.9699999999999 1859.01 622.43 1858.92 621.8299999999999 1858.76L621.5099999999999 1858.72C617.8999999999999 1858.92 615.7599999999999 1861.75 616.0199999999999 1865.09C616.2799999999999 1868.4399999999998 618.8399999999999 1870.8999999999999 622.4299999999998 1870.54C622.7599999999999 1870.51 622.9199999999998 1870.48 623.1499999999999 1870.42C623.4399999999998 1870.3400000000001 623.6399999999999 1870.25 624.0499999999998 1870.04C624.3799999999999 1869.86 624.4999999999999 1869.81 624.6099999999998 1869.8C624.7699999999998 1869.78 625.0299999999997 1869.85 625.2899999999997 1870.03C625.5699999999997 1870.21 625.7499999999998 1870.42 625.7899999999997 1870.58C625.8199999999997 1870.6799999999998 625.8199999999997 1870.82 625.7799999999997 1871.1899999999998C625.7499999999998 1871.6499999999999 625.7399999999998 1871.8899999999999 625.7799999999997 1872.1699999999998C625.8099999999997 1872.3899999999999 625.8499999999998 1872.56 625.9499999999997 1872.87C626.9999999999997 1876.32 630.2699999999998 1877.7099999999998 633.4599999999997 1876.6599999999999C636.6599999999997 1875.6 638.4499999999997 1872.54 637.2299999999997 1869.1499999999999L637.0799999999997 1868.86C636.6899999999997 1868.3799999999999 636.3999999999997 1867.9099999999999 636.2199999999997 1867.4499999999998C635.5299999999996 1865.7199999999998 636.0099999999996 1863.2399999999998 637.2999999999997 1861.2099999999998C639.3699999999998 1858.11 641.5299999999997 1854.86 644.2399999999998 1850.8099999999997C647.7199999999998 1845.5999999999997 647.7199999999998 1845.5999999999997 651.1899999999998 1840.3899999999996C652.5499999999998 1838.4399999999996 654.6699999999998 1837.0399999999997 656.5299999999999 1836.9999999999995C657.0299999999999 1836.9899999999996 657.5699999999998 1837.0799999999995 658.1599999999999 1837.2399999999996L658.4899999999999 1837.2799999999995C662.0999999999999 1837.0899999999995 664.2399999999999 1834.2499999999995 663.9799999999999 1830.9099999999996C663.7199999999999 1827.5599999999997 661.1599999999999 1825.0999999999997 657.5699999999999 1825.4599999999996C657.2499999999999 1825.4899999999996 657.0799999999999 1825.5199999999995 656.8599999999999 1825.5799999999995C656.56 1825.6599999999994 656.3599999999999 1825.7499999999995 655.9499999999999 1825.9599999999996C655.6199999999999 1826.1399999999996 655.4899999999999 1826.1899999999996 655.39 1826.1999999999996C655.23 1826.2199999999996 654.96 1826.1499999999996 654.71 1825.9699999999996C654.4300000000001 1825.7899999999995 654.25 1825.5799999999995 654.21 1825.4199999999996C654.1800000000001 1825.3099999999997 654.1800000000001 1825.1799999999996 654.21 1824.8099999999997C654.25 1824.3499999999997 654.26 1824.1099999999997 654.22 1823.8299999999997C654.19 1823.6099999999997 654.15 1823.4399999999996 654.0500000000001 1823.1299999999997C653.0000000000001 1819.6799999999996 649.73 1818.2899999999997 646.5300000000001 1819.3399999999997C643.34 1820.3999999999996 641.5500000000001 1823.4599999999996 642.7700000000001 1826.8499999999997L642.9200000000001 1827.1399999999996C643.3100000000001 1827.6199999999997 643.6 1828.0899999999997 643.7800000000001 1828.5499999999997C644.4700000000001 1830.2799999999997 643.9900000000001 1832.7599999999998 642.7 1834.7899999999997C637.62 1842.3999999999996 633.11 1849.1599999999996 628.8100000000001 1855.6099999999997ZM645.64 1827.81C645.3977 1827.1949399999999 645.04251 1826.6146199999998 644.59869 1826.02857C643.89138 1823.82361 645.02863 1821.9439399999999 647.1600000000001 1821.24C649.3500000000001 1820.52 651.4300000000001 1821.41 652.1300000000001 1823.71C652.2000000000002 1823.92 652.2200000000001 1824.01 652.2300000000001 1824.0900000000001C652.2500000000001 1824.19 652.2400000000001 1824.3200000000002 652.2200000000001 1824.5600000000002C652.1600000000002 1825.2400000000002 652.1600000000002 1825.5300000000002 652.2700000000001 1825.9400000000003C652.4600000000002 1826.6200000000003 652.95 1827.2200000000003 653.6000000000001 1827.6400000000003C654.2100000000002 1828.0600000000004 654.9600000000002 1828.2800000000004 655.6600000000001 1828.1800000000003C656.0600000000001 1828.1300000000003 656.3500000000001 1828.0100000000002 656.84 1827.7600000000002C657.1600000000001 1827.5900000000001 657.27 1827.5400000000002 657.38 1827.5100000000002C657.46 1827.4900000000002 657.56 1827.4700000000003 657.77 1827.4500000000003C660.17 1827.2100000000003 661.8 1828.7800000000002 661.98 1831.0600000000002C662.15633 1833.30327 660.84526 1835.07634 658.52622 1835.2699700000003C657.81488 1835.0833900000002 657.14396 1834.9907900000003 656.49 1835.0000000000002C653.9 1835.0500000000002 651.24 1836.8200000000002 649.53 1839.2600000000002C646.04 1844.4900000000002 646.04 1844.4900000000002 642.5699999999999 1849.7000000000003C639.8599999999999 1853.7600000000002 637.6999999999999 1857.0000000000002 635.6199999999999 1860.1200000000003C633.9999999999999 1862.6600000000003 633.3999999999999 1865.7900000000004 634.3599999999999 1868.1900000000003C634.6028399999999 1868.8064400000003 634.9503699999999 1869.3879900000002 635.4025699999999 1869.9753800000003C636.1072499999999 1872.1786300000003 634.9698599999998 1874.0564800000004 632.8299999999998 1874.7600000000002C630.6499999999999 1875.4800000000002 628.5699999999998 1874.5900000000001 627.8599999999998 1872.2900000000002C627.7999999999998 1872.0800000000002 627.7799999999997 1871.9900000000002 627.7699999999998 1871.91C627.7499999999998 1871.8100000000002 627.7599999999998 1871.68 627.7799999999997 1871.44C627.8399999999997 1870.76 627.8399999999997 1870.47 627.7299999999998 1870.06C627.5399999999997 1869.3799999999999 627.0499999999998 1868.78 626.3999999999997 1868.36C625.7899999999997 1867.9399999999998 625.0399999999997 1867.7199999999998 624.3399999999998 1867.82C623.9399999999998 1867.87 623.6499999999997 1867.99 623.1599999999999 1868.25C622.8399999999998 1868.41 622.7299999999999 1868.46 622.6199999999999 1868.49C622.5399999999998 1868.51 622.4499999999999 1868.53 622.2299999999999 1868.55C619.8299999999999 1868.79 618.1999999999999 1867.22 618.0199999999999 1864.94C617.8436699999999 1862.6967300000001 619.1547399999998 1860.9236600000002 621.4737799999999 1860.73003C622.1851199999999 1860.91661 622.8560399999999 1861.00921 623.5099999999999 1861C626.0999999999999 1860.95 628.7599999999999 1859.18 630.4699999999999 1856.74C634.79 1850.26 639.29 1843.51 644.3799999999999 1835.88C645.9999999999999 1833.3400000000001 646.5999999999999 1830.21 645.6399999999999 1827.8100000000002ZM644.65 1826.18L643.7099999999999 1826.52L644.4999999999999 1825.9C644.5333599999999 1825.9429 644.5662599999999 1825.98575 644.5986899999999 1826.0285700000002C644.6148299999999 1826.0788800000003 644.6319299999999 1826.1293600000001 644.6499999999999 1826.18ZM635.35 1869.82L636.2900000000001 1869.48L635.5000000000001 1870.1C635.4670000000001 1870.0584199999998 635.4345300000001 1870.0168899999999 635.4025700000001 1869.9753799999999C635.38606 1869.92376 635.36854 1869.87196 635.3500000000001 1869.82ZM658.71 1835.32L658.44 1836.28L658.3800000000001 1835.28C658.4291700000001 1835.27735 658.4779200000002 1835.274 658.5262200000001 1835.26997C658.5871800000001 1835.2859600000002 658.6484300000001 1835.30264 658.71 1835.3200000000002ZM621.29 1860.68L621.56 1859.72L621.6199999999999 1860.72C621.5708299999999 1860.72265 621.5220799999998 1860.726 621.4737799999999 1860.73003C621.4128199999999 1860.7140399999998 621.3515699999999 1860.69736 621.29 1860.6799999999998Z " fill="#9dc6ff" fill-opacity="1" transform="matrix(1,0,0,1,-615,-1818)"/>
    </symbol>
    <symbol id="icon_feature_calories" viewBox="0 0 44 60">
      <path id="SvgjsPath1013" d="M745.01 1584.71C744.72075 1577.8877300000001 752.33039 1563.8231700000001 752.35 1563.75028C752.37005 1568.65022 753.78003 1574.40003 755.5600000000001 1576.19C756.12 1576.76 757.08 1576.48 757.2500000000001 1575.7C757.3100000000001 1575.42 757.3700000000001 1575.13 757.4400000000002 1574.8400000000001C757.6100000000001 1574.13 757.8000000000002 1573.4 758.0500000000002 1572.45C758.1400000000002 1572.14 758.6100000000001 1570.45 758.7500000000002 1569.95C761.0900000000003 1561.32 760.3400000000003 1545.8600000000001 760.3400000000003 1545.8600000000001C768.6500000000002 1554.89 775.7500000000002 1566.3300000000002 776.9200000000003 1575.6200000000001C777.0200000000003 1576.48 778.1100000000004 1576.8000000000002 778.6700000000003 1576.13C780.2000000000003 1574.3200000000002 781.2400000000004 1569.0900000000001 781.2400000000004 1569.0900000000001C784.4900000000004 1579.4 784.5500000000003 1586.8300000000002 781.9700000000004 1591.6200000000001C779.7111300000004 1595.8108000000002 775.4302600000003 1597.86182 770.0026000000004 1597.99672C769.9789700000003 1597.99151 769.9549700000003 1597.9862500000002 769.9300000000004 1597.98C769.8300000000004 1597.97 769.7200000000004 1597.96 769.5700000000004 1597.95C769.3400000000004 1597.94 769.0100000000004 1597.93 768.6000000000004 1597.92C767.8800000000003 1597.92 766.9200000000004 1597.92 765.7500000000003 1597.93C765.1400000000003 1597.94 764.5000000000003 1597.95 763.8300000000004 1597.96C762.9800000000004 1597.98 761.6400000000003 1598 761.6600000000004 1598C751.3800000000005 1598 745.3600000000005 1592.8 745.0100000000004 1584.71ZM770.16 1598.04C770.26 1598.07 770.26 1598.07 770.4399999999999 1598.18C770.6999999999999 1598.3700000000001 769.8499999999999 1598 769.8499999999999 1598C769.9009699999999 1597.99907 769.9518299999999 1597.99798 770.0025999999999 1597.99672C770.05468 1598.00819 770.1049699999999 1598.0193700000002 770.16 1598.0400000000002ZM752.35 1563.75C752.35005 1563.75 752.35005 1563.75009 752.35 1563.75028C752.35 1563.75019 752.35 1563.75009 752.35 1563.75ZM763.86 1599.96C764.53 1599.95 765.17 1599.94 765.78 1599.93C766.93 1599.92 767.88 1599.92 768.5799999999999 1599.92C768.9599999999999 1599.93 769.2599999999999 1599.94 769.4599999999999 1599.95C769.4880199999999 1599.95 769.5131399999999 1599.95097 769.5350399999999 1599.9523000000002C769.6350399999999 1599.98204 769.7546299999999 1600.00241 769.8899999999999 1600.0000000000002C776.0399999999998 1599.8900000000003 781.0599999999998 1597.5100000000002 783.7299999999999 1592.5700000000002C786.9399999999999 1586.6000000000001 786.4899999999999 1577.3500000000001 781.7799999999999 1564.5000000000002C781.4199999999998 1563.5200000000002 779.9799999999999 1563.6800000000003 779.8499999999999 1564.7200000000003C779.1899999999999 1569.9300000000003 778.3599999999999 1572.3900000000003 778.3599999999999 1572.3900000000003C776.0099999999999 1562.4400000000003 768.2899999999998 1551.0200000000004 759.7099999999999 1542.3000000000004C759.03 1541.6100000000004 757.8699999999999 1542.1900000000005 758.0099999999999 1543.1500000000003C759.6499999999999 1554.3500000000004 759.0899999999999 1561.0400000000004 756.8199999999998 1569.4200000000003C756.6799999999998 1569.9200000000003 756.2099999999998 1571.6000000000004 756.1299999999998 1571.9300000000003C755.8599999999998 1572.8900000000003 756.2099999999998 1573.7300000000002 755.8599999999998 1572.8800000000003C754.7099999999998 1570.0700000000004 753.9399999999998 1565.2400000000002 754.5299999999997 1561.3500000000004C754.6699999999997 1560.4000000000003 753.5099999999998 1559.8200000000004 752.8299999999997 1560.5000000000005C748.1099999999997 1565.2200000000005 742.6899999999997 1577.3600000000004 743.0099999999996 1584.8000000000004C743.4099999999996 1594.0100000000004 750.3599999999997 1600.0000000000005 761.6599999999996 1600.0000000000005C761.6599999999996 1600.0000000000005 763.0399999999996 1599.9800000000005 763.8599999999997 1599.9600000000005Z " fill="#9ac9ff" fill-opacity="1" transform="matrix(1,0,0,1,-742,-1541)"/>
    </symbol>
    <symbol id="icon_feature_distance" viewBox="0 0 44 58">
      <path id="SvgjsPath1010" d="M523.36 1570.32C522.75 1570.83 522.14 1571.3899999999999 521.57 1572.01C519.71 1574 518.6400000000001 1576.05 518.85 1578.1C519.03 1579.9399999999998 520.25 1581.53 522.53 1582.79C523.73 1583.44 523.9399999999999 1584.17 523.39 1585.35C522.78 1586.6299999999999 521.29 1588.23 519.06 1590.02C517.43 1591.34 515.4499999999999 1592.74 513.1899999999999 1594.18C510.95365999999996 1595.59886 508.57604999999995 1596.99122 506.18161999999995 1598.30733C509.58552 1593.42884 515.25 1584.60122 515.25 1579.8700000000001C515.25 1573.24 509.81 1567.8500000000001 503.12 1567.8500000000001C496.44 1567.8500000000001 491 1573.2400000000002 491 1579.8700000000001C491 1586.4 502.08 1601.13 502.56 1601.7500000000002C502.69 1601.9300000000003 502.9 1602.0300000000002 503.12 1602.0300000000002C503.13498 1602.0300000000002 503.14988 1602.0295800000001 503.16468000000003 1602.0287300000002L503.22 1602.1400000000003C503.27000000000004 1602.1100000000004 503.35 1602.0700000000004 503.47 1602.0100000000002C503.68 1601.9100000000003 503.91 1601.7900000000002 504.18 1601.6500000000003C504.93 1601.2600000000002 505.77 1600.8100000000004 506.68 1600.3200000000004C509.26 1598.9100000000003 511.85 1597.4000000000003 514.26 1595.8600000000004C516.58 1594.3800000000003 518.63 1592.9500000000003 520.3199999999999 1591.5800000000004C522.76 1589.6100000000004 524.43 1587.8200000000004 525.1899999999999 1586.2000000000003C526.1899999999999 1584.0900000000004 525.64 1582.2100000000003 523.4999999999999 1581.0300000000002C521.7499999999999 1580.0800000000002 520.9499999999999 1579.0300000000002 520.8399999999999 1577.9C520.6999999999999 1576.5700000000002 521.53 1574.99 523.03 1573.3700000000001C523.54 1572.8200000000002 524.0899999999999 1572.3100000000002 524.64 1571.8600000000001C524.97 1571.5900000000001 525.22 1571.4 525.35 1571.3000000000002L525.31728 1571.2536200000002C525.35871 1571.2242300000003 525.39665 1571.1894200000002 525.43 1571.15C525.79 1570.67 534.3399999999999 1559.38 534.3399999999999 1554.27C534.3399999999999 1549.16 530.1499999999999 1545 524.9899999999999 1545C519.8299999999999 1545 515.6399999999999 1549.16 515.6399999999999 1554.27C515.6399999999999 1558.44415 521.5046399999999 1566.94647 523.7241899999999 1570.02296C523.6138899999999 1570.11021 523.4920399999999 1570.20937 523.3599999999999 1570.32ZM502.19 1597.83C500.85 1595.9299999999998 499.52 1593.9499999999998 498.3 1591.97C494.99 1586.63 493 1582.23 493 1579.8700000000001C493 1574.3500000000001 497.54 1569.8500000000001 503.12 1569.8500000000001C508.71 1569.8500000000001 513.25 1574.3500000000001 513.25 1579.8700000000001C513.25 1582.2700000000002 511.26 1586.67 507.95 1592.0100000000002C506.72999999999996 1593.9800000000002 505.4 1595.9600000000003 504.06 1597.8500000000001C503.72662 1598.31832 503.41057 1598.7582800000002 503.12622 1599.1498900000001C502.84174 1598.7556100000002 502.52656 1598.3125300000002 502.19 1597.8300000000002ZM524.64 1567.86C523.61 1566.3999999999999 522.6 1564.8799999999999 521.66 1563.36C519.16 1559.32 517.64 1555.9699999999998 517.64 1554.27C517.64 1550.27 520.9399999999999 1547 524.99 1547C529.05 1547 532.34 1550.27 532.34 1554.27C532.34 1556 530.83 1559.35 528.32 1563.3899999999999C527.38 1564.8999999999999 526.37 1566.4199999999998 525.34 1567.87C525.22119 1568.03893 525.1048000000001 1568.20303 524.99216 1568.36071C524.87886 1568.2013399999998 524.76122 1568.03426 524.64 1567.86ZM503.18 1585.07C506.16 1585.07 508.59000000000003 1582.6499999999999 508.59000000000003 1579.6699999999998C508.59000000000003 1576.6899999999998 506.16 1574.2599999999998 503.18 1574.2599999999998C500.19 1574.2599999999998 497.77 1576.6899999999998 497.77 1579.6699999999998C497.77 1582.6499999999999 500.19 1585.07 503.18 1585.07ZM525.03 1558.41C527.4 1558.41 529.3299999999999 1556.49 529.3299999999999 1554.1200000000001C529.3299999999999 1551.7500000000002 527.4 1549.8200000000002 525.03 1549.8200000000002C522.66 1549.8200000000002 520.74 1551.7500000000002 520.74 1554.1200000000001C520.74 1556.49 522.66 1558.41 525.03 1558.41ZM525.03 1556.41C523.77 1556.41 522.74 1555.38 522.74 1554.1200000000001C522.74 1552.8500000000001 523.77 1551.8200000000002 525.03 1551.8200000000002C526.3 1551.8200000000002 527.3299999999999 1552.8500000000001 527.3299999999999 1554.1200000000001C527.3299999999999 1555.38 526.3 1556.41 525.03 1556.41ZM523.84 1569.93C524.07617 1569.6205400000001 524.4980300000001 1569.0524400000002 524.99216 1568.3607100000002C525.47703 1569.0427100000002 525.8825 1569.5833400000001 526.15 1569.94C525.87 1569.5800000000002 525.4399999999999 1569.3600000000001 524.99 1569.3600000000001C524.54 1569.3600000000001 524.11 1569.5800000000002 523.84 1569.93ZM503.12 1600.03C502.72285 1600.03 502.34542 1600.2173 502.10516 1600.52339C502.34045000000003 1600.2214000000001 502.69726 1599.74068 503.12622 1599.1499000000001C503.54103 1599.72483 503.89054999999996 1600.1960000000001 504.14583 1600.53448C503.90560999999997 1600.21782 503.52763 1600.03001 503.12 1600.03001ZM502.1 1600.53C502.10171 1600.5277899999999 502.10343 1600.52558 502.10516 1600.52339C502.10343 1600.5256000000002 502.10172 1600.52781 502.1 1600.53ZM504.15 1600.54C504.14860999999996 1600.53816 504.14722 1600.53632 504.14583 1600.53447C504.14722 1600.53631 504.14860999999996 1600.53815 504.15 1600.54ZM503.18 1583.07C501.3 1583.07 499.77 1581.55 499.77 1579.6699999999998C499.77 1577.7899999999997 501.29999999999995 1576.2599999999998 503.18 1576.2599999999998C505.06 1576.2599999999998 506.59000000000003 1577.7899999999997 506.59000000000003 1579.6699999999998C506.59000000000003 1581.55 505.06000000000006 1583.07 503.18 1583.07Z " fill="#9dc6ff" fill-opacity="1" transform="matrix(1,0,0,1,-491,-1545)"/>
    </symbol>
    <symbol id="icon_feature_muscule" viewBox="0 0 45 72">
      <path id="SvgjsPath1036" d="M290.42 1811.9C292.63 1817.27 293.56 1825.0300000000002 292.69 1835.5300000000002C291.98 1844.1900000000003 287.67 1850.0900000000001 279.81 1855.5700000000002C278.41 1856.5400000000002 271.04 1861.13 269.48 1862.3600000000001C269.41 1862.42 269.41 1862.42 269.33000000000004 1862.48C267.57000000000005 1863.89 266.19000000000005 1865.6100000000001 264.96000000000004 1867.74C264.51000000000005 1868.53 264.1 1869.32 263.6 1870.35C263.51000000000005 1870.54 263.45000000000005 1870.6599999999999 263.31 1870.9699999999998C263.16 1871.2699999999998 263.16 1871.2699999999998 263.02 1871.5699999999997C262.79999999999995 1872.0399999999997 262.64 1872.3699999999997 262.47999999999996 1872.6799999999996C261.52 1874.5999999999997 260.77 1875.5499999999995 259.81999999999994 1875.8799999999997C260.2099999999999 1861.6699999999996 264.22999999999996 1853.0399999999997 271.10999999999996 1847.5199999999998C273.16999999999996 1845.8699999999997 274.38999999999993 1845.1499999999999 278.34999999999997 1843.0299999999997C283.42999999999995 1840.3099999999997 286.45 1834.3699999999997 287.87999999999994 1826.2299999999998C288.8299999999999 1820.87 288.98999999999995 1815.2099999999998 288.69999999999993 1810.11C288.68999999999994 1809.87 288.66999999999996 1809.6399999999999 288.6599999999999 1809.4399999999998C289.2999999999999 1809.8999999999999 289.9299999999999 1810.7199999999998 290.4199999999999 1811.8999999999999ZM286.65 1809.2C286.67999999999995 1809.48 286.7 1809.82 286.71999999999997 1810.23C286.99999999999994 1815.18 286.84 1820.7 285.92999999999995 1825.88C284.59 1833.49 281.8299999999999 1838.91 277.40999999999997 1841.2800000000002C273.34 1843.4500000000003 272.05999999999995 1844.2100000000003 269.86999999999995 1845.9700000000003C262.56999999999994 1851.8200000000002 258.29999999999995 1860.9100000000003 257.84999999999997 1875.5000000000002C254.53999999999996 1872.4500000000003 252.70999999999998 1856.5600000000002 255.15999999999997 1847.5400000000002C256.34999999999997 1843.16 260.59 1838.5700000000002 267.42999999999995 1833.4300000000003C269.9 1831.5800000000004 277.94999999999993 1826.1000000000004 279.03 1825.2300000000002C283.13 1821.9300000000003 284.28999999999996 1819.1500000000003 285.15999999999997 1812.9200000000003C285.24999999999994 1812.3000000000004 285.28999999999996 1811.9900000000002 285.34 1811.6700000000003C285.52 1810.3800000000003 286.02 1809.5600000000004 286.65 1809.2000000000003ZM283.2 1812.64C282.38 1818.41 281.40999999999997 1820.76 277.78999999999996 1823.68C276.78999999999996 1824.48 268.77 1829.94 266.24999999999994 1831.8400000000001C259.06999999999994 1837.2300000000002 254.59999999999994 1842.0800000000002 253.24999999999994 1847.0100000000002C250.20999999999995 1858.1700000000003 252.93999999999994 1877.9700000000003 258.96999999999997 1878.0000000000002C261.33 1878.0100000000002 262.71 1876.6400000000003 264.24999999999994 1873.5800000000002C264.41999999999996 1873.2500000000002 264.5799999999999 1872.91 264.80999999999995 1872.43C264.94999999999993 1872.13 264.94999999999993 1872.13 265.09999999999997 1871.8300000000002C265.23999999999995 1871.5300000000002 265.29999999999995 1871.4 265.39 1871.2200000000003C265.86 1870.2300000000002 266.26 1869.4700000000003 266.68 1868.7400000000002C267.79 1866.8000000000002 269.02 1865.2800000000002 270.57 1864.0300000000002C270.64 1863.9800000000002 270.64 1863.9800000000002 270.71 1863.9200000000003C272.15999999999997 1862.7700000000002 279.46 1858.2300000000002 280.94 1857.2000000000003C289.25 1851.4200000000003 293.9 1845.0400000000002 294.67 1835.6900000000003C295.57 1824.9000000000003 294.59000000000003 1816.8300000000004 292.25 1811.1400000000003C289.99 1805.6400000000003 284.22 1805.5200000000004 283.37 1811.3900000000003C283.33 1811.7100000000003 283.28000000000003 1812.0200000000004 283.2 1812.6400000000003Z " fill="#9dc6ff" fill-opacity="1" transform="matrix(1,0,0,1,-251,-1807)"/>
    </symbol>
    <symbol id="icon_feature_sleep" viewBox="0 0 55 57">
      <path id="SvgjsPath1016" d="M1022.58 1596C1007.9000000000001 1596 996 1584.1 996 1569.42C996 1556.63533 1005.06668 1545.8213 1017.29367 1543.35778C1014.42916 1547.5909900000001 1012.86 1552.60337 1012.86 1557.8600000000001C1012.86 1572.15 1024.45 1583.7400000000002 1038.74 1583.7400000000002C1041.05821 1583.7400000000002 1043.33899 1583.4351700000002 1045.5354 1582.8372300000003C1040.82756 1590.8784400000004 1032.16591 1596.0000000000002 1022.5799999999999 1596.0000000000002ZM1046.66 1580.7L1047.92 1582.06C1047.13807 1582.35826 1046.3424300000001 1582.61753 1045.5354 1582.8372299999999C1045.94013 1582.14593 1046.31564 1581.4330499999999 1046.66 1580.6999999999998ZM1018.79 1541.36L1019.67 1542.99C1018.86606 1543.07753 1018.07344 1543.20067 1017.2936699999999 1543.35778C1017.7586999999999 1542.67055 1018.2578599999999 1542.00386 1018.7899999999998 1541.3600000000001ZM1047.21 1580.19C1044.53 1581.21 1041.67 1581.74 1038.74 1581.74C1025.55 1581.74 1014.86 1571.05 1014.86 1557.86C1014.86 1552.2199999999998 1016.82 1546.8899999999999 1020.33 1542.6399999999999C1020.9100000000001 1541.9499999999998 1020.35 1540.9099999999999 1019.46 1541.0099999999998C1005.0300000000001 1542.5799999999997 994 1554.7999999999997 994 1569.4199999999998C994 1585.1999999999998 1006.8 1597.9999999999998 1022.58 1597.9999999999998C1033.77 1597.9999999999998 1043.79 1591.5099999999998 1048.47 1581.5499999999997C1048.8500000000001 1580.7399999999998 1048.05 1579.8799999999997 1047.21 1580.1899999999998Z " fill="#9dc6ff" fill-opacity="1" transform="matrix(1,0,0,1,-994,-1541)"/>
    </symbol>
    <symbol id="icon_feature_steps" viewBox="0 0 41 58">
      <path id="SvgjsPath1007" d="M243.55 1551.04C240.69 1553.83 240.53 1558.32 241.64000000000001 1565.6399999999999C242.14000000000001 1568.9199999999998 243.04000000000002 1572.1999999999998 244.33 1575.4299999999998C244.60000000000002 1576.11 245 1577.08 245.38000000000002 1577.9799999999998C245.66000000000003 1578.6299999999999 245.91000000000003 1579.1699999999998 246.11 1579.5699999999997C246.23000000000002 1579.8099999999997 246.34 1580.0099999999998 246.43 1580.1499999999996C246.5 1580.2599999999995 246.57 1580.3499999999997 246.66 1580.4399999999996C246.92 1580.7099999999996 247.23 1580.8799999999997 247.72 1580.7299999999996C248.77 1580.4299999999996 249.74 1580.1499999999996 251.76 1579.5599999999995C253.51 1579.0499999999995 254.64 1578.7299999999996 255.79999999999998 1578.3899999999994C256.24 1578.2599999999993 256.53999999999996 1577.8499999999995 256.52 1577.3999999999994C256.51 1576.8499999999995 256.5 1576.2599999999993 256.52 1575.6299999999994C256.57 1574.1299999999994 256.77 1572.9299999999994 257.35999999999996 1570.2199999999993C257.37999999999994 1570.0899999999992 257.37999999999994 1570.0899999999992 257.40999999999997 1569.9599999999994C258.04999999999995 1566.9999999999993 258.28 1565.4599999999994 258.23999999999995 1563.5999999999995C258.06999999999994 1556.9699999999993 255.21999999999994 1550.4099999999994 250.39999999999995 1549.0899999999995C248.77999999999994 1548.6499999999994 244.76999999999995 1549.8499999999995 243.54999999999995 1551.0399999999995ZM263.99 1574.84C263.94 1576.6999999999998 264.17 1578.24 264.81 1581.1999999999998C264.84 1581.33 264.84 1581.33 264.87 1581.4599999999998C265.45 1584.1699999999998 265.66 1585.37 265.7 1586.87C265.71999999999997 1587.5 265.71999999999997 1588.08 265.7 1588.6399999999999C265.69 1589.09 265.99 1589.4999999999998 266.42 1589.6299999999999C267.59000000000003 1589.9599999999998 268.72 1590.29 270.47 1590.8C272.49 1591.3899999999999 273.45000000000005 1591.6699999999998 274.51000000000005 1591.97C275.00000000000006 1592.1100000000001 275.30000000000007 1591.95 275.57000000000005 1591.68C275.65000000000003 1591.5900000000001 275.72 1591.5 275.7900000000001 1591.39C275.8900000000001 1591.24 275.99000000000007 1591.0500000000002 276.12000000000006 1590.8100000000002C276.32000000000005 1590.41 276.56000000000006 1589.8700000000001 276.8400000000001 1589.2100000000003C277.2300000000001 1588.3200000000002 277.6300000000001 1587.3500000000004 277.9000000000001 1586.6600000000003C279.18000000000006 1583.4400000000003 280.0900000000001 1580.1600000000003 280.5900000000001 1576.8800000000003C281.7000000000001 1569.5600000000004 281.5400000000001 1565.0700000000004 278.6700000000001 1562.2700000000004C277.45000000000005 1561.0900000000004 273.45000000000005 1559.8900000000003 271.8300000000001 1560.3300000000004C267.0000000000001 1561.6500000000003 264.1600000000001 1568.2000000000003 263.9900000000001 1574.8400000000004ZM256.24 1563.66C256.28000000000003 1565.3000000000002 256.07 1566.73 255.46 1569.5400000000002C255.43 1569.6700000000003 255.43 1569.6700000000003 255.4 1569.8000000000002C254.79 1572.63 254.57 1573.91 254.52 1575.5700000000002C254.5 1576.2400000000002 254.82000000000002 1576.5900000000001 254.61 1576.65C253.65 1576.93 252.63000000000002 1577.23 251.20000000000002 1577.64C249.18 1578.23 247.99 1578.8600000000001 247.9 1578.67C247.72 1578.3100000000002 247.49 1577.8100000000002 247.22 1577.18C246.84 1576.3100000000002 246.45 1575.3600000000001 246.19 1574.69C244.96 1571.6000000000001 244.09 1568.47 243.62 1565.3400000000001C242.61 1558.7300000000002 242.76 1554.6000000000001 244.95000000000002 1552.4700000000003C245.68 1551.7600000000002 248.96 1550.7800000000002 249.87 1551.0200000000002C253.59 1552.0400000000002 256.09000000000003 1557.8000000000002 256.24 1563.6600000000003ZM277.28 1563.71C279.46999999999997 1565.8400000000001 279.60999999999996 1569.97 278.60999999999996 1576.58C278.13999999999993 1579.71 277.27 1582.84 276.03999999999996 1585.9299999999998C275.77 1586.6 275.37999999999994 1587.5499999999997 275.01 1588.4199999999998C274.74 1589.0399999999997 274.51 1589.55 274.33 1589.9099999999999C274.24 1590.09 273.05 1589.4699999999998 271.02 1588.8799999999999C269.28 1588.37 267.71999999999997 1587.8899999999999 267.71999999999997 1587.8899999999999C267.71999999999997 1587.8899999999999 267.71 1587.1799999999998 267.7 1586.81C267.65 1585.1499999999999 267.44 1583.86 266.82 1581.04C266.79 1580.9099999999999 266.79 1580.9099999999999 266.77 1580.77C266.15999999999997 1577.97 265.95 1576.54 265.99 1574.8899999999999C266.14 1569.04 268.64 1563.27 272.36 1562.2599999999998C273.26 1562.0099999999998 276.55 1562.9899999999998 277.28000000000003 1563.7099999999998ZM263.04 1595.91C261.81 1600.3700000000001 262.55 1604.8500000000001 266.22 1605.8400000000001C267.99 1606.3100000000002 269.92 1605.67 271.37 1604.3000000000002C272.8 1602.9500000000003 273.77 1601.0500000000002 274.28000000000003 1598.8400000000001C274.48 1597.9900000000002 274.59000000000003 1597.1100000000001 274.68 1595.9800000000002C274.68 1595.9700000000003 274.72 1595.4600000000003 274.74 1595.2600000000002C274.75 1595.1900000000003 274.75 1595.1900000000003 274.76 1595.1200000000001C274.78 1594.8600000000001 274.8 1594.65 274.81 1594.48C274.81 1594.38 274.82 1594.3 274.82 1594.23C274.82 1594.16 274.82 1594.16 274.81 1594.06C274.8 1594 274.8 1594 274.77 1593.87C274.74 1593.6499999999999 274.74 1593.6499999999999 274.08 1593.1799999999998C273 1592.87 272.13 1592.62 270.18 1592.07C268.23 1591.52 267.36 1591.27 266.28000000000003 1590.96C265.87 1590.8500000000001 265.43 1591 265.19000000000005 1591.3500000000001C264.14000000000004 1592.8700000000001 263.47 1594.39 263.0400000000001 1595.91ZM247.45 1582.63C247.42 1582.7600000000002 247.42 1582.7600000000002 247.42 1582.8300000000002C247.41 1582.92 247.41 1582.92 247.41 1582.9900000000002C247.41 1583.0600000000002 247.41 1583.1400000000003 247.42 1583.2500000000002C247.42999999999998 1583.4100000000003 247.45 1583.6200000000001 247.47 1583.8800000000003C247.48 1583.9500000000003 247.48 1583.9500000000003 247.48 1584.0300000000004C247.5 1584.2200000000005 247.54999999999998 1584.7300000000005 247.54999999999998 1584.7400000000005C247.63 1585.8700000000006 247.74999999999997 1586.7500000000005 247.95 1587.6100000000004C248.45999999999998 1589.8100000000004 249.42999999999998 1591.7100000000003 250.85999999999999 1593.0700000000004C252.29999999999998 1594.4300000000003 254.23999999999998 1595.0700000000004 255.99999999999997 1594.6000000000004C259.66999999999996 1593.6100000000004 260.41999999999996 1589.1300000000003 259.17999999999995 1584.6800000000003C258.75999999999993 1583.1600000000003 258.09 1581.6300000000003 257.03999999999996 1580.1200000000003C256.79999999999995 1579.7700000000004 256.34999999999997 1579.6100000000004 255.93999999999997 1579.7300000000002C254.85999999999996 1580.0300000000002 253.98999999999998 1580.2800000000002 252.03999999999996 1580.8300000000002C250.08999999999997 1581.39 249.22999999999996 1581.63 248.13999999999996 1581.94C247.48999999999995 1582.41 247.48999999999995 1582.41 247.44999999999996 1582.63ZM252.59 1582.76C254.54 1582.2 255.67000000000002 1581.66 255.8 1581.87C256.48 1582.9799999999998 256.95 1584.1 257.25 1585.2099999999998C258.23 1588.7299999999998 257.67 1592.0799999999997 255.48 1592.6699999999998C254.45 1592.9499999999998 253.2 1592.5299999999997 252.23 1591.61C251.11999999999998 1590.56 250.32 1589 249.89 1587.1499999999999C249.72 1586.4199999999998 249.61999999999998 1585.6299999999999 249.54 1584.6C249.54 1584.56 249.48999999999998 1584.01 249.47 1583.84C249.47 1583.77 249.47 1583.77 249.46 1583.6999999999998C249.44 1583.4599999999998 250.64000000000001 1583.3099999999997 252.59 1582.7599999999998ZM269.63 1593.99C271.58 1594.55 272.79 1594.7 272.76 1594.94C272.76 1595.01 272.76 1595.01 272.75 1595.0800000000002C272.74 1595.2500000000002 272.68 1595.8000000000002 272.68 1595.8400000000001C272.61 1596.8700000000001 272.5 1597.65 272.33 1598.39C271.9 1600.24 271.10999999999996 1601.8000000000002 269.99 1602.8500000000001C269.02 1603.7700000000002 267.78000000000003 1604.18 266.74 1603.9C264.55 1603.3100000000002 264 1599.96 264.97 1596.45C265.28000000000003 1595.32 266.46000000000004 1593.05 266.46000000000004 1593.05C266.46000000000004 1593.05 267.68000000000006 1593.44 269.63000000000005 1593.99Z " fill="#9ac9ff" fill-opacity="1" transform="matrix(1,0,0,1,-241,-1548)"/>
    </symbol>
    <symbol id="icon_feature_weight" viewBox="0 0 54 58">
      <path id="SvgjsPath1027" d="M245.11 1595.87C244.51000000000002 1598.6599999999999 246.42000000000002 1601 249.29000000000002 1601L293.71000000000004 1601C296.57000000000005 1601 298.48 1598.66 297.89000000000004 1595.87L291.49000000000007 1565.7199999999998C290.93000000000006 1563.0899999999997 288.3400000000001 1560.9999999999998 285.64000000000004 1560.9999999999998L257.36 1560.9999999999998C254.66000000000003 1560.9999999999998 252.07000000000002 1563.0899999999997 251.51000000000002 1565.7199999999998ZM257.36 1563L285.64 1563C287.38 1563 289.15 1564.42 289.51 1566.13L295.92 1596.2800000000002C296.25 1597.8300000000002 295.29 1599.0000000000002 293.71000000000004 1599.0000000000002L249.29000000000002 1599.0000000000002C247.71 1599.0000000000002 246.75000000000003 1597.8300000000002 247.08 1596.2800000000002L253.49 1566.13C253.85000000000002 1564.42 255.61 1563 257.36 1563ZM280.58 1552C280.58 1547.03 276.52 1543 271.5 1543C266.48 1543 262.42 1547.03 262.42 1552C262.42 1556.97 266.48 1561 271.5 1561C276.52 1561 280.58 1556.97 280.58 1552ZM264.44 1552C264.44 1548.13 267.6 1545 271.5 1545C275.4 1545 278.56 1548.13 278.56 1552C278.56 1555.87 275.4 1559 271.5 1559C267.6 1559 264.44 1555.87 264.44 1552Z " fill="#9dc6ff" fill-opacity="1" transform="matrix(1,0,0,1,-244,-1543)"/>
    </symbol>
    <symbol id="icon_habits_1" viewBox="0 0 80 80">
       <!-- Generator: Sketch 39 (31667) - http://www.bohemiancoding.com/sketch --> <title>Group 2</title> <desc>Created with Sketch.</desc>  <g id="Page-1" stroke="none" stroke-width="1" fill="none" fill-rule="evenodd"> <g id="Fitvigo/Desktop-HD" transform="translate(-264.000000, -2942.000000)"> <g id="Group-9" transform="translate(264.000000, 2942.000000)"> <g id="Group-2"> <g id="Habit-Border" fill="#F76B96"> <g id="Group"> <rect id="Rectangle-10" x="0" y="0" width="80" height="80" rx="40"/> </g> </g> <rect id="Rectangle-10-Copy" stroke="#FFFFFF" stroke-width="2.72727273" stroke-linecap="round" stroke-dasharray="61.91193320534446,312.9062444513494" transform="translate(40.000000, 40.000000) rotate(0) translate(-40.000000, -40.000000) " x="5" y="5" width="70" height="70" rx="35"/> <path d="M52.7127545,30.2868921 C49.6638438,27.2374238 44.7198905,27.2379815 41.6715375,30.2868921 L40.4998233,31.3459522 L39.3281092,30.2868921 C36.2797562,27.2379815 31.3352451,27.2379815 28.2868921,30.2868921 C25.2374238,33.3358028 25.2379815,38.2797562 28.2868921,41.3281092 L40.4998233,53.6536944 L52.7127545,41.3281092 C55.7616652,38.2797562 55.7616652,33.3352451 52.7127545,30.2868921 Z" id="Path" stroke="#FFFFFF" stroke-width="2" stroke-linecap="round" stroke-linejoin="round"/> </g> </g> </g> </g> 
    </symbol>
    <symbol id="icon_habits_2" viewBox="0 0 80 80">
      <path fill="#bca3f4" fill-rule="evenodd" d="M0 40c0-22.09 17.9-40 40-40 22.09 0 40 17.9 40 40 0 22.09-17.9 40-40 40-22.09 0-40-17.9-40-40zm0 0"/><path stroke-width=".2" stroke="#fff" fill="#fff" fill-rule="evenodd" d="M40 53.41l-.64-.67c-.06-.06-1.41-1.49-2.78-3.8-1.27-2.15-2.78-5.49-2.78-9.24 0-3.74 1.51-7.09 2.78-9.23 1.37-2.31 2.73-3.74 2.78-3.8l.64-.67.64.67c.06.06 1.41 1.49 2.78 3.8 1.27 2.14 2.78 5.49 2.78 9.23 0 3.75-1.51 7.09-2.78 9.24-1.37 2.31-2.72 3.74-2.78 3.8l-.64.67zm0-24.75c-1.36 1.68-4.43 6.04-4.43 11.04 0 5.02 3.07 9.36 4.43 11.05 1.36-1.69 4.43-6.04 4.43-11.05 0-5.01-3.07-9.36-4.43-11.04zm3.5 25.57c-.43 0-.8-.31-.88-.74-.08-.49.24-.96.73-1.04.07-.01 7.23-1.34 10.97-6.51 2.93-4.05 2.99-9.38 2.87-11.55-1.68.44-5.27 1.62-8.12 4.18-.36.33-.92.29-1.25-.08-.32-.37-.29-.93.08-1.26 4.22-3.79 9.71-4.79 9.94-4.83l.9-.16.13.92c.01.08.27 2.05.03 4.72-.23 2.49-.96 6.09-3.15 9.12-2.19 3.03-5.36 4.82-7.64 5.8-2.45 1.05-4.38 1.4-4.46 1.41l-.15.02zm-7.15-.01c-.08-.02-2.01-.37-4.46-1.42-2.28-.97-5.45-2.77-7.64-5.8-2.19-3.02-2.92-6.63-3.15-9.12-.24-2.67.02-4.64.03-4.72l.13-.92.9.16c.23.04 5.72 1.04 9.94 4.83.37.33.4.89.08 1.26-.33.37-.89.41-1.25.08-2.86-2.56-6.44-3.74-8.12-4.18-.11 2.17-.05 7.51 2.87 11.55 3.75 5.19 10.9 6.5 10.97 6.51.49.08.81.55.73 1.04-.08.43-.45.74-.88.74l-.15-.01zm0 0"/><path stroke-linecap="round" stroke-width="3" stroke="#fff" d="M5 40c0-19.33 15.67-35 35-35s35 15.67 35 35-15.67 35-35 35-35-15.67-35-35zm0 0" fill="none"/>
    </symbol>
    <symbol id="icon_habits_3" viewBox="0 0 80 80">
      <path fill="#82b3f5" fill-rule="evenodd" d="M0 40c0-22.09 17.9-40 40-40 22.09 0 40 17.9 40 40 0 22.09-17.9 40-40 40-22.09 0-40-17.9-40-40zm0 0"/><path stroke-linejoin="round" stroke-linecap="round" stroke-width="2" stroke="#fff" d="M52.34 45.12c-2.04 4.34-6.45 7.35-11.57 7.35-7.05 0-12.77-5.72-12.77-12.77 0-6.58 4.98-12 11.38-12.7-1.65 1.99-2.65 4.55-2.65 7.34 0 6.37 5.16 11.53 11.53 11.53 1.44 0 2.81-.27 4.08-.75zm0 0" fill="none"/><path stroke-linecap="round" stroke-width="3" stroke="#fff" d="M5 40c0-19.33 15.67-35 35-35s35 15.67 35 35-15.67 35-35 35-35-15.67-35-35zm0 0" fill="none"/>
    </symbol>
    <symbol id="icon_habits_4" viewBox="0 0 80 80">
       <!-- Generator: Sketch 39 (31667) - http://www.bohemiancoding.com/sketch --> <title>Group 2</title> <desc>Created with Sketch.</desc>  <g id="Page-1" stroke="none" stroke-width="1" fill="none" fill-rule="evenodd"> <g id="Fitvigo/Desktop-HD" transform="translate(-552.000000, -2942.000000)"> <g id="Group-9" transform="translate(264.000000, 2942.000000)"> <g id="Group-2" transform="translate(288.000000, 0.000000)"> <g id="Habit-Border" fill="#63E3B1"> <g id="Group"> <rect id="Rectangle-10" x="0" y="0" width="80" height="80" rx="40"/> </g> </g> <path d="M49.0629468,50.974355 C49.0629468,50.974355 48.4900436,56.928195 44.4537856,55.874835 C41.8261726,55.188175 42.5179146,52.052795 43.4260436,49.798635 L49.0629468,50.974355 Z M49.7322372,48.255075 L44.0322372,47.064915 C44.0322372,47.064915 42.4300436,41.772655 43.4562372,37.360095 C44.8726243,31.294535 48.3824307,32.114575 49.311463,32.436815 C53.0810114,33.742875 53.1162372,39.003215 52.5131404,42.086535 C52.1090114,44.149175 49.7330114,48.254695 49.7322372,48.255075 Z M30.5413985,43.572355 C30.5413985,43.572355 30.4775275,49.552035 34.6020436,48.917815 C37.2900436,48.503995 36.9350759,45.315035 36.2708178,42.981075 L30.5413985,43.572355 Z M28.0566243,34.377875 C28.2370114,36.472055 30.163592,40.797595 30.1639791,40.797595 L35.9588178,40.199095 C35.9588178,40.199095 38.119592,35.101015 37.5656565,30.606755 C36.8030759,24.429475 33.2259146,24.883575 32.2690114,25.108915 C28.379463,26.022055 27.7852694,31.249715 28.0566243,34.377875 Z" id="Combined-Shape" stroke="#FFFFFF" stroke-width="2" stroke-linecap="round" stroke-linejoin="round"/> <rect id="Rectangle-10-Copy" stroke="#FFFFFF" stroke-width="2.72727273" stroke-linecap="round" stroke-dasharray="61.91193171909877,312.906254359654" transform="translate(40.000000, 40.000000) rotate(0) translate(-40.000000, -40.000000) " x="5" y="5" width="70" height="70" rx="35"/> </g> </g> </g> </g> 
    </symbol>
    <symbol id="icon_habits_5" viewBox="0 0 80 80">
       <!-- Generator: Sketch 39 (31667) - http://www.bohemiancoding.com/sketch --> <title>Group 2</title> <desc>Created with Sketch.</desc>  <g id="Page-1" stroke="none" stroke-width="1" fill="none" fill-rule="evenodd"> <g id="Fitvigo/Desktop-HD" transform="translate(-648.000000, -2942.000000)"> <g id="Group-9" transform="translate(264.000000, 2942.000000)"> <g id="Group-2" transform="translate(384.000000, 0.000000)"> <g id="Habit-Border" fill="#FFC216"> <g id="Group"> <rect id="Rectangle-10" x="0" y="0" width="80" height="80" rx="40"/> </g> </g> <rect id="Rectangle-10-Copy" stroke="#FFFFFF" stroke-width="2.72727273" stroke-linecap="round" stroke-dasharray="61.91193320534446,312.9062444513494" transform="translate(40.000000, 40.000000) rotate(0) translate(-40.000000, -40.000000) " x="5" y="5" width="70" height="70" rx="35"/> <path d="M33,40 C33,43.8605206 36.1400551,47 40,47 C43.8599449,47 47,43.8605206 47,40 C47,36.1402216 43.8599449,33 40,33 C36.1400551,33 33,36.1402216 33,40 Z" id="Fill-1" stroke="#FFFFFF" stroke-width="2" stroke-linecap="round" stroke-linejoin="round"/> <path d="M40,27.9004961 L40,21.7191162 L40,27.9004961 C40,27.9004961 40,27.9004961 40,27.9004961 Z M48.5516668,31.4483332 L52.9265369,27.0734631 L48.5516668,31.4483332 C48.5516668,31.4483332 48.5516668,31.4483332 48.5516668,31.4483332 Z M52.0995039,40 L58.2808838,40 L52.0995039,40 C52.0995039,40 52.0995039,40 52.0995039,40 Z M48.5519074,48.5519074 L52.9265369,52.9265369 L48.5519074,48.5519074 C48.5519074,48.5519074 48.5519074,48.5519074 48.5519074,48.5519074 Z M40,52.0995039 L40,58.2808838 L40,52.0995039 C40,52.0995039 40,52.0995039 40,52.0995039 Z M31.4480926,48.5519074 L27.0734631,52.9265369 L31.4480926,48.5519074 C31.4480926,48.5519074 31.4480926,48.5519074 31.4480926,48.5519074 Z M27.9004961,40 L21.7191162,40 L27.9004961,40 C27.9004961,40 27.9004961,40 27.9004961,40 Z M31.4483332,31.4483332 L27.0734631,27.0734631 L31.4483332,31.4483332 C31.4483332,31.4483332 31.4483332,31.4483332 31.4483332,31.4483332 Z" id="Path-63" stroke="#FFFFFF" stroke-width="2" stroke-linecap="round" stroke-linejoin="round"/> </g> </g> </g> </g> 
    </symbol>
    <symbol id="icon_habits_6" viewBox="0 0 80 80">
      <path fill="#83dae8" fill-rule="evenodd" d="M0 40c0-22.09 17.9-40 40-40 22.09 0 40 17.9 40 40 0 22.09-17.9 40-40 40-22.09 0-40-17.9-40-40zm0 0"/><path stroke-linejoin="round" stroke-linecap="round" stroke-width="2" stroke="#fff" d="M49.35 38.05l-15.41 20.23 4-17.05h-6.94l14.41-20.23-3 17.05h6.94zm0 0" fill="none"/><path stroke-linecap="round" stroke-width="3" stroke="#fff" d="M5 40c0-19.33 15.67-35 35-35s35 15.67 35 35-15.67 35-35 35-35-15.67-35-35zm0 0" fill="none"/>
    </symbol>
    <symbol id="icon_habits_7" viewBox="0 0 80 80">
      <path fill="#b7e923" fill-rule="evenodd" d="M0 40c0-22.09 17.9-40 40-40 22.09 0 40 17.9 40 40 0 22.09-17.9 40-40 40-22.09 0-40-17.9-40-40zm0 0"/><path stroke-linecap="round" stroke-width="3" stroke="#fff" d="M5 40c0-19.33 15.67-35 35-35s35 15.67 35 35-15.67 35-35 35-35-15.67-35-35zm0 0" fill="none"/><path stroke-linejoin="round" stroke-linecap="round" stroke-width="2" stroke="#fff" d="M39.82 29.27s-1.9-7.37 5-6.46M45.8 53.74c.8 0 4.49-.61 6.4-5.9 1.91-5.3 2.57-10.5-1.02-15.41-3.6-4.91-10.78-2.07-10.78-2.07h-.74s-7.18-2.84-10.77 2.07c-3.6 4.91-2.51 10.11-.6 15.41 1.91 5.29 5.17 5.9 5.97 5.9 1.34 0 3.84-.9 5.74-.9 1.96 0 4.46.9 5.8.9zm0 0" fill="none"/>
    </symbol>
    <symbol id="icon_habits_8" viewBox="0 0 80 80">
       <!-- Generator: Sketch 39 (31667) - http://www.bohemiancoding.com/sketch --> <title>Group 2</title> <desc>Created with Sketch.</desc>  <g id="Page-1" stroke="none" stroke-width="1" fill="none" fill-rule="evenodd"> <g id="Fitvigo/Desktop-HD" transform="translate(-936.000000, -2942.000000)"> <g id="Group-9" transform="translate(264.000000, 2942.000000)"> <g id="Group-2" transform="translate(672.000000, 0.000000)"> <g id="Habit-Border" fill="#FF7362"> <g id="Group"> <rect id="Rectangle-10" x="0" y="0" width="80" height="80" rx="40"/> </g> </g> <rect id="Rectangle-10-Copy" stroke="#FFFFFF" stroke-width="2.72727273" stroke-linecap="round" stroke-dasharray="61.91193320534446,312.9062444513494" transform="translate(40.000000, 40.000000) rotate(0) translate(-40.000000, -40.000000) " x="5" y="5" width="70" height="70" rx="35"/> <polyline id="Stroke-3" stroke="#FFFFFF" stroke-width="2" stroke-linecap="round" stroke-linejoin="round" points="25 39.5381389 31.2836656 39.5381389 38.0753977 30 43.2165161 50.5644779 47.9064765 40.5450204 54.1901421 40.5450204"/> </g> </g> </g> </g> 
    </symbol>
    <symbol id="icon_lock" viewBox="0 0 122 122">
      <path stroke-linejoin="round" stroke-linecap="round" stroke-width="2" stroke="#9ac9ff" d="M61 121c33.14 0 60-26.86 60-60s-26.86-60-60-60-60 26.86-60 60 26.86 60 60 60zm0 0" fill="none"/><path fill="#fff" fill-rule="evenodd" d="M72.64 53.45h7v26h-7v-26zm0 0"/><path stroke-linejoin="round" stroke-linecap="round" stroke-width="2" stroke="#9ac9ff" d="M83.36 87.63v-34.81h-44.72v34.81c0 1.86 1.5 3.37 3.35 3.37h38.02c1.85 0 3.35-1.51 3.35-3.37zm0 0M63.18 68.64c0 1.2-.98 2.18-2.18 2.18-1.2 0-2.18-.98-2.18-2.18 0-1.21.98-2.19 2.18-2.19 1.2 0 2.18.98 2.18 2.19zm0 0M61 72.45v6-6zm0 0" fill="none"/>
    </symbol>
    <symbol id="icon_lock_head" viewBox="0 0 34 35">
      <path stroke-linejoin="round" stroke-linecap="round" stroke-width="2" stroke="#9ac9ff" d="M1.18 23.82v-6.71c0-8.65 6.96-15.66 15.55-15.66 8.58 0 15.54 7.01 15.54 15.66v16.71" fill="none"/>
    </symbol>
    <symbol id="icon_user" viewBox="-1 -1 18 17">
      <path id="SvgjsPath1019" d="M146.29 2419.21C146.13 2419.21 146 2419.09 146 2418.93C146 2415.37 148.36 2412.41 151.84 2411.46C150.44 2410.66 149.54 2409.17 149.54 2407.54C149.54 2405.04 151.63 2403 154.19 2403C156.75 2403 158.84 2405.04 158.84 2407.54C158.84 2409.17 157.94 2410.66 156.53 2411.46C160.01 2412.41 162.38 2415.37 162.38 2418.93C162.38 2419.0899999999997 162.25 2419.21 162.09 2419.21Z " fill-opacity="0" fill="#ffffff" stroke-dasharray="0" stroke-linejoin="miter" stroke-linecap="butt" stroke-opacity="1" stroke="#ffffff" stroke-miterlimit="50" stroke-width="2" clip-path="url(&apos;#SvgjsClipPath1021&apos;)" transform="matrix(1,0,0,1,-146,-2403)"/>
    </symbol></svg>