<svg xmlns="http://www.w3.org/2000/svg" style="width:0; height:0; visibility:hidden;">
  <defs>
       <mask id="mask-2" maskContentUnits="userSpaceOnUse" maskUnits="objectBoundingBox" x="-0.2" y="-0.2" width="38.3993157" height="28.6289412"> <rect x="20.8" y="25.8" width="38.3993157" height="28.6289412" fill="white"/> <path d="M40.0001737,53.405 L39.3621959,52.7375735 C39.3047737,52.6774412 37.946907,51.2474853 36.5822848,48.939 C35.3130848,46.793 33.8002626,43.4481912 33.8002626,39.7029265 C33.8002626,35.9576618 35.3130848,32.6128529 36.5822848,30.4668529 C37.9473293,28.1583676 39.3051959,26.7279853 39.3621959,26.6682794 L40.0001737,26 L40.6385737,26.6674265 C40.6955737,26.7275588 42.0534404,28.1575147 43.4184848,30.466 C44.6876848,32.612 46.200507,35.9568088 46.200507,39.7020735 C46.200507,43.4473382 44.6876848,46.7921471 43.4184848,48.9381471 C42.0534404,51.2466324 40.6955737,52.6770147 40.6385737,52.7367206 L40.0001737,53.405 Z M40.0010182,28.6573382 C38.6401959,30.3436029 35.5740182,34.6987206 35.5740182,39.7025 C35.5740182,44.7199265 38.6372404,49.0643824 39.998907,50.7476618 C41.3601515,49.0609706 44.4254848,44.7058529 44.4254848,39.7025 C44.425907,34.6855 41.3626848,30.3406176 40.0010182,28.6573382 Z M43.4961737,54.2289412 C43.073107,54.2289412 42.6981737,53.9214559 42.6230182,53.4860294 C42.5389959,52.9981471 42.8624182,52.5345735 43.3450182,52.4497059 C43.4159515,52.4369118 50.5814848,51.1118676 54.317307,45.9434706 C57.2466848,41.8907206 57.3083293,36.5568529 57.1913737,34.3865441 C55.5117737,34.8296471 51.9249959,36.0126765 49.0737293,38.5680882 C48.7072404,38.8968971 48.1465293,38.8627794 47.8214182,38.4926029 C47.496307,38.1224265 47.5296626,37.5560735 47.8961515,37.2272647 C52.1234404,33.4380735 57.6051515,32.4397059 57.836107,32.3996176 L58.7413515,32.2405441 L58.8671737,33.1595882 C58.8781515,33.2418971 59.1399293,35.2057941 58.8950404,37.8831765 C58.6670404,40.3724853 57.9365959,43.9748824 55.7503293,46.9998382 C53.5636404,50.0252206 50.3893737,51.8249265 48.1114848,52.8028235 C45.6613293,53.8540735 43.7300848,54.2003676 43.6490182,54.2148676 C43.5979293,54.22425 43.5468404,54.2289412 43.4961737,54.2289412 Z M36.3504848,54.2152941 C36.2694182,54.2012206 34.3377515,53.8545 31.8880182,52.80325 C29.609707,51.8253529 26.4354404,50.0252206 24.2491737,47.0002647 C22.062907,43.9753088 21.3324626,40.3729118 21.1044626,37.8836029 C20.8591515,35.2062206 21.1213515,33.2423235 21.1323293,33.1600147 L21.2581515,32.2409706 L22.1633959,32.4000441 C22.3947737,32.4405588 27.8764848,33.4389265 32.1033515,37.2276912 C32.4698404,37.5565 32.5031959,38.1228529 32.1780848,38.4930294 C31.8525515,38.8632059 31.2918404,38.8968971 30.9253515,38.5685147 C28.0660626,36.0054265 24.4877293,34.8275147 22.8098182,34.3856912 C22.6953959,36.5577059 22.7608404,41.9013824 25.6821959,45.9434706 C29.4294182,51.1276471 36.5831293,52.4369118 36.654907,52.4497059 C37.1379293,52.5341471 37.4609293,52.9981471 37.376907,53.4860294 C37.3017515,53.9214559 36.9272404,54.2289412 36.5037515,54.2289412 C36.4530848,54.2289412 36.4019959,54.22425 36.3504848,54.2152941 Z" fill="black"/> </mask> 
  </defs>
    <symbol id="icon_apple" viewBox="0 0 80 80">
       <g id="Page-1" stroke="none" stroke-width="1" fill="none" fill-rule="evenodd"> <g id="Fitvigo/Desktop-HD" transform="translate(-840.000000, -2942.000000)"> <g id="Group-9" transform="translate(264.000000, 2942.000000)"> <g id="Group-2" transform="translate(576.000000, 0.000000)"> <g id="Habit-Border" fill="#B7EA23"> <g id="Group"> <rect id="Rectangle-10" x="0" y="0" width="80" height="80" rx="40"/> </g> </g> <rect id="Rectangle-10-Copy" stroke="#FFFFFF" stroke-width="2.72727273" stroke-linecap="round" transform="translate(40.000000, 40.000000) rotate(-270.000000) translate(-40.000000, -40.000000) " x="5" y="5" width="70" height="70" rx="35"/> <g id="Group" transform="translate(26.000000, 22.000000)" stroke="#FFFFFF" stroke-width="2" stroke-linecap="round" stroke-linejoin="round"> <path d="M13.8242187,7.26831055 C13.8242187,7.26831055 11.9191895,-0.104492178 18.8205565,0.805419922" id="Path-9"/> <path d="M19.7992726,31.7353516 C20.6024954,31.7353521 24.2868646,31.1335446 26.1967767,25.8388677 C28.1066887,20.5441908 28.770464,15.3398438 25.1750049,10.4294433 C21.5795459,5.51904284 14.4005909,8.35791016 14.4005909,8.35791016 L13.6599121,8.35791016 C13.6599121,8.35791016 6.48095713,5.51904284 2.88549811,10.4294433 C-0.709960921,15.3398438 0.379638778,20.5441908 2.28955082,25.8388677 C4.19946286,31.1335446 7.45800764,31.7353521 8.26123047,31.7353516 C9.60131853,31.7353507 12.0971681,30.8439933 14.0000002,30.8439933 C15.9633349,30.8439933 18.4591845,31.7353507 19.7992726,31.7353516 Z" id="Combined-Shape"/> </g> </g> </g> </g> </g> 
    </symbol>
    <symbol id="icon_cardio" viewBox="0 0 80 80">
       <g id="Page-1" stroke="none" stroke-width="1" fill="none" fill-rule="evenodd"> <g id="Fitvigo/Desktop-HD" transform="translate(-936.000000, -2942.000000)"> <g id="Group-9" transform="translate(264.000000, 2942.000000)"> <g id="Group-2" transform="translate(672.000000, 0.000000)"> <g id="Habit-Border" fill="#FF7362"> <g id="Group"> <rect id="Rectangle-10" x="0" y="0" width="80" height="80" rx="40"/> </g> </g> <rect id="Rectangle-10-Copy" stroke="#FFFFFF" stroke-width="2.72727273" stroke-linecap="round" stroke-dasharray="61.91193320534446,312.9062444513494" transform="translate(40.000000, 40.000000) rotate(-270.000000) translate(-40.000000, -40.000000) " x="5" y="5" width="70" height="70" rx="35"/> <polyline id="Stroke-3" stroke="#FFFFFF" stroke-width="2" stroke-linecap="round" stroke-linejoin="round" points="25 39.5381389 31.2836656 39.5381389 38.0753977 30 43.2165161 50.5644779 47.9064765 40.5450204 54.1901421 40.5450204"/> </g> </g> </g> </g> 
    </symbol>
    <symbol id="icon_energy" viewBox="0 0 80 80">
       <g id="Page-1" stroke="none" stroke-width="1" fill="none" fill-rule="evenodd"> <g id="Fitvigo/Desktop-HD" transform="translate(-744.000000, -2942.000000)"> <g id="Group-9" transform="translate(264.000000, 2942.000000)"> <g id="Group-2" transform="translate(480.000000, 0.000000)"> <g id="Habit-Border" fill="#83DAE9"> <g id="Group"> <rect id="Rectangle-10" x="0" y="0" width="80" height="80" rx="40"/> </g> </g> <polygon id="Combined-Shape" stroke="#FFFFFF" stroke-width="2" stroke-linecap="round" stroke-linejoin="round" points="49.3543385 38.0468338 33.9417354 58.278403 37.9417354 41.2315692 31 41.2315692 45.4126031 21 42.4126031 38.0468338"/> <rect id="Rectangle-10-Copy" stroke="#FFFFFF" stroke-width="2.72727273" stroke-linecap="round" transform="translate(40.000000, 40.000000) rotate(-270.000000) translate(-40.000000, -40.000000) " x="5" y="5" width="70" height="70" rx="35"/> </g> </g> </g> </g> 
    </symbol>
    <symbol id="icon_heart" viewBox="0 0 80 80">
       <g id="Page-1" stroke="none" stroke-width="1" fill="none" fill-rule="evenodd"> <g id="Fitvigo/Desktop-HD" transform="translate(-264.000000, -2942.000000)"> <g id="Group-9" transform="translate(264.000000, 2942.000000)"> <g id="Group-2"> <g id="Habit-Border" fill="#F76B96"> <g id="Group"> <rect id="Rectangle-10" x="0" y="0" width="80" height="80" rx="40"/> </g> </g> <rect id="Rectangle-10-Copy" stroke="#FFFFFF" stroke-width="2.72727273" stroke-linecap="round" stroke-dasharray="61.91193320534446,312.9062444513494" transform="translate(40.000000, 40.000000) rotate(-270.000000) translate(-40.000000, -40.000000) " x="5" y="5" width="70" height="70" rx="35"/> <path d="M52.7127545,30.2868921 C49.6638438,27.2374238 44.7198905,27.2379815 41.6715375,30.2868921 L40.4998233,31.3459522 L39.3281092,30.2868921 C36.2797562,27.2379815 31.3352451,27.2379815 28.2868921,30.2868921 C25.2374238,33.3358028 25.2379815,38.2797562 28.2868921,41.3281092 L40.4998233,53.6536944 L52.7127545,41.3281092 C55.7616652,38.2797562 55.7616652,33.3352451 52.7127545,30.2868921 Z" id="Path" stroke="#FFFFFF" stroke-width="2" stroke-linecap="round" stroke-linejoin="round"/> </g> </g> </g> </g> 
    </symbol>
    <symbol id="icon_leaf" viewBox="0 0 80 80">
        <g id="Page-1" stroke="none" stroke-width="1" fill="none" fill-rule="evenodd"> <g id="Fitvigo/Desktop-HD" transform="translate(-360.000000, -2942.000000)"> <g id="Group-9" transform="translate(264.000000, 2942.000000)"> <g id="Group-2" transform="translate(96.000000, 0.000000)"> <g id="Habit-Border" fill="#BDA3F5"> <g id="Group"> <rect id="Rectangle-10" x="0" y="0" width="80" height="80" rx="40"/> </g> </g> <g id="Combined-Shape"> <path d="M40.0001737,53.405 L39.3621959,52.7375735 C39.3047737,52.6774412 37.946907,51.2474853 36.5822848,48.939 C35.3130848,46.793 33.8002626,43.4481912 33.8002626,39.7029265 C33.8002626,35.9576618 35.3130848,32.6128529 36.5822848,30.4668529 C37.9473293,28.1583676 39.3051959,26.7279853 39.3621959,26.6682794 L40.0001737,26 L40.6385737,26.6674265 C40.6955737,26.7275588 42.0534404,28.1575147 43.4184848,30.466 C44.6876848,32.612 46.200507,35.9568088 46.200507,39.7020735 C46.200507,43.4473382 44.6876848,46.7921471 43.4184848,48.9381471 C42.0534404,51.2466324 40.6955737,52.6770147 40.6385737,52.7367206 L40.0001737,53.405 Z M40.0010182,28.6573382 C38.6401959,30.3436029 35.5740182,34.6987206 35.5740182,39.7025 C35.5740182,44.7199265 38.6372404,49.0643824 39.998907,50.7476618 C41.3601515,49.0609706 44.4254848,44.7058529 44.4254848,39.7025 C44.425907,34.6855 41.3626848,30.3406176 40.0010182,28.6573382 Z M43.4961737,54.2289412 C43.073107,54.2289412 42.6981737,53.9214559 42.6230182,53.4860294 C42.5389959,52.9981471 42.8624182,52.5345735 43.3450182,52.4497059 C43.4159515,52.4369118 50.5814848,51.1118676 54.317307,45.9434706 C57.2466848,41.8907206 57.3083293,36.5568529 57.1913737,34.3865441 C55.5117737,34.8296471 51.9249959,36.0126765 49.0737293,38.5680882 C48.7072404,38.8968971 48.1465293,38.8627794 47.8214182,38.4926029 C47.496307,38.1224265 47.5296626,37.5560735 47.8961515,37.2272647 C52.1234404,33.4380735 57.6051515,32.4397059 57.836107,32.3996176 L58.7413515,32.2405441 L58.8671737,33.1595882 C58.8781515,33.2418971 59.1399293,35.2057941 58.8950404,37.8831765 C58.6670404,40.3724853 57.9365959,43.9748824 55.7503293,46.9998382 C53.5636404,50.0252206 50.3893737,51.8249265 48.1114848,52.8028235 C45.6613293,53.8540735 43.7300848,54.2003676 43.6490182,54.2148676 C43.5979293,54.22425 43.5468404,54.2289412 43.4961737,54.2289412 Z M36.3504848,54.2152941 C36.2694182,54.2012206 34.3377515,53.8545 31.8880182,52.80325 C29.609707,51.8253529 26.4354404,50.0252206 24.2491737,47.0002647 C22.062907,43.9753088 21.3324626,40.3729118 21.1044626,37.8836029 C20.8591515,35.2062206 21.1213515,33.2423235 21.1323293,33.1600147 L21.2581515,32.2409706 L22.1633959,32.4000441 C22.3947737,32.4405588 27.8764848,33.4389265 32.1033515,37.2276912 C32.4698404,37.5565 32.5031959,38.1228529 32.1780848,38.4930294 C31.8525515,38.8632059 31.2918404,38.8968971 30.9253515,38.5685147 C28.0660626,36.0054265 24.4877293,34.8275147 22.8098182,34.3856912 C22.6953959,36.5577059 22.7608404,41.9013824 25.6821959,45.9434706 C29.4294182,51.1276471 36.5831293,52.4369118 36.654907,52.4497059 C37.1379293,52.5341471 37.4609293,52.9981471 37.376907,53.4860294 C37.3017515,53.9214559 36.9272404,54.2289412 36.5037515,54.2289412 C36.4530848,54.2289412 36.4019959,54.22425 36.3504848,54.2152941 Z" fill="#FFFFFF" fill-rule="evenodd"/> <path d="M40.0001737,53.405 L39.3621959,52.7375735 C39.3047737,52.6774412 37.946907,51.2474853 36.5822848,48.939 C35.3130848,46.793 33.8002626,43.4481912 33.8002626,39.7029265 C33.8002626,35.9576618 35.3130848,32.6128529 36.5822848,30.4668529 C37.9473293,28.1583676 39.3051959,26.7279853 39.3621959,26.6682794 L40.0001737,26 L40.6385737,26.6674265 C40.6955737,26.7275588 42.0534404,28.1575147 43.4184848,30.466 C44.6876848,32.612 46.200507,35.9568088 46.200507,39.7020735 C46.200507,43.4473382 44.6876848,46.7921471 43.4184848,48.9381471 C42.0534404,51.2466324 40.6955737,52.6770147 40.6385737,52.7367206 L40.0001737,53.405 Z M40.0010182,28.6573382 C38.6401959,30.3436029 35.5740182,34.6987206 35.5740182,39.7025 C35.5740182,44.7199265 38.6372404,49.0643824 39.998907,50.7476618 C41.3601515,49.0609706 44.4254848,44.7058529 44.4254848,39.7025 C44.425907,34.6855 41.3626848,30.3406176 40.0010182,28.6573382 Z M43.4961737,54.2289412 C43.073107,54.2289412 42.6981737,53.9214559 42.6230182,53.4860294 C42.5389959,52.9981471 42.8624182,52.5345735 43.3450182,52.4497059 C43.4159515,52.4369118 50.5814848,51.1118676 54.317307,45.9434706 C57.2466848,41.8907206 57.3083293,36.5568529 57.1913737,34.3865441 C55.5117737,34.8296471 51.9249959,36.0126765 49.0737293,38.5680882 C48.7072404,38.8968971 48.1465293,38.8627794 47.8214182,38.4926029 C47.496307,38.1224265 47.5296626,37.5560735 47.8961515,37.2272647 C52.1234404,33.4380735 57.6051515,32.4397059 57.836107,32.3996176 L58.7413515,32.2405441 L58.8671737,33.1595882 C58.8781515,33.2418971 59.1399293,35.2057941 58.8950404,37.8831765 C58.6670404,40.3724853 57.9365959,43.9748824 55.7503293,46.9998382 C53.5636404,50.0252206 50.3893737,51.8249265 48.1114848,52.8028235 C45.6613293,53.8540735 43.7300848,54.2003676 43.6490182,54.2148676 C43.5979293,54.22425 43.5468404,54.2289412 43.4961737,54.2289412 Z M36.3504848,54.2152941 C36.2694182,54.2012206 34.3377515,53.8545 31.8880182,52.80325 C29.609707,51.8253529 26.4354404,50.0252206 24.2491737,47.0002647 C22.062907,43.9753088 21.3324626,40.3729118 21.1044626,37.8836029 C20.8591515,35.2062206 21.1213515,33.2423235 21.1323293,33.1600147 L21.2581515,32.2409706 L22.1633959,32.4000441 C22.3947737,32.4405588 27.8764848,33.4389265 32.1033515,37.2276912 C32.4698404,37.5565 32.5031959,38.1228529 32.1780848,38.4930294 C31.8525515,38.8632059 31.2918404,38.8968971 30.9253515,38.5685147 C28.0660626,36.0054265 24.4877293,34.8275147 22.8098182,34.3856912 C22.6953959,36.5577059 22.7608404,41.9013824 25.6821959,45.9434706 C29.4294182,51.1276471 36.5831293,52.4369118 36.654907,52.4497059 C37.1379293,52.5341471 37.4609293,52.9981471 37.376907,53.4860294 C37.3017515,53.9214559 36.9272404,54.2289412 36.5037515,54.2289412 C36.4530848,54.2289412 36.4019959,54.22425 36.3504848,54.2152941 Z" stroke="#FFFFFF" mask="url(#mask-2)" stroke-width="0.4"/> </g> <rect id="Rectangle-10-Copy" stroke="#FFFFFF" stroke-width="2.72727273" stroke-linecap="round" transform="translate(40.000000, 40.000000) rotate(-270.000000) translate(-40.000000, -40.000000) " x="5" y="5" width="70" height="70" rx="35"/> </g> </g> </g> </g> 
    </symbol>
    <symbol id="icon_moon" viewBox="0 0 80 80">
       <g id="Page-1" stroke="none" stroke-width="1" fill="none" fill-rule="evenodd"> <g id="Fitvigo/Desktop-HD" transform="translate(-456.000000, -2942.000000)"> <g id="Group-9" transform="translate(264.000000, 2942.000000)"> <g id="Group-2" transform="translate(192.000000, 0.000000)"> <g id="Habit-Border" fill="#82B3F5"> <g id="Group"> <rect id="Rectangle-10" x="0" y="0" width="80" height="80" rx="40"/> </g> </g> <path d="M52.3419424,45.1213941 C50.3023636,49.4644 45.889135,52.4715491 40.7735491,52.4715491 C33.7189127,52.4715491 28,46.7526364 28,39.698 C28,33.1155541 32.9789619,27.696007 39.3762446,27 C37.7260942,28.9937628 36.7344017,31.5523824 36.7344017,34.3426243 C36.7344017,40.7068488 41.8936251,45.8660722 48.2578497,45.8660722 C49.6959502,45.8660722 51.0725224,45.6026382 52.3419424,45.1213941 Z" id="Oval-6" stroke="#FFFFFF" stroke-width="2" stroke-linecap="round" stroke-linejoin="round"/> <rect id="Rectangle-10-Copy" stroke="#FFFFFF" stroke-width="2.72727273" stroke-linecap="round" transform="translate(40.000000, 40.000000) rotate(-270.000000) translate(-40.000000, -40.000000) " x="5" y="5" width="70" height="70" rx="35"/> </g> </g> </g> </g> 
    </symbol>
    <symbol id="icon_step" viewBox="0 0 80 80">
       <g id="Page-1" stroke="none" stroke-width="1" fill="none" fill-rule="evenodd"> <g id="Fitvigo/Desktop-HD" transform="translate(-552.000000, -2942.000000)"> <g id="Group-9" transform="translate(264.000000, 2942.000000)"> <g id="Group-2" transform="translate(288.000000, 0.000000)"> <g id="Habit-Border" fill="#63E3B1"> <g id="Group"> <rect id="Rectangle-10" x="0" y="0" width="80" height="80" rx="40"/> </g> </g> <path d="M49.0629468,50.974355 C49.0629468,50.974355 48.4900436,56.928195 44.4537856,55.874835 C41.8261726,55.188175 42.5179146,52.052795 43.4260436,49.798635 L49.0629468,50.974355 Z M49.7322372,48.255075 L44.0322372,47.064915 C44.0322372,47.064915 42.4300436,41.772655 43.4562372,37.360095 C44.8726243,31.294535 48.3824307,32.114575 49.311463,32.436815 C53.0810114,33.742875 53.1162372,39.003215 52.5131404,42.086535 C52.1090114,44.149175 49.7330114,48.254695 49.7322372,48.255075 Z M30.5413985,43.572355 C30.5413985,43.572355 30.4775275,49.552035 34.6020436,48.917815 C37.2900436,48.503995 36.9350759,45.315035 36.2708178,42.981075 L30.5413985,43.572355 Z M28.0566243,34.377875 C28.2370114,36.472055 30.163592,40.797595 30.1639791,40.797595 L35.9588178,40.199095 C35.9588178,40.199095 38.119592,35.101015 37.5656565,30.606755 C36.8030759,24.429475 33.2259146,24.883575 32.2690114,25.108915 C28.379463,26.022055 27.7852694,31.249715 28.0566243,34.377875 Z" id="Combined-Shape" stroke="#FFFFFF" stroke-width="2" stroke-linecap="round" stroke-linejoin="round"/> <rect id="Rectangle-10-Copy" stroke="#FFFFFF" stroke-width="2.72727273" stroke-linecap="round" stroke-dasharray="61.91193171909877,312.906254359654" transform="translate(40.000000, 40.000000) rotate(-270.000000) translate(-40.000000, -40.000000) " x="5" y="5" width="70" height="70" rx="35"/> </g> </g> </g> </g> 
    </symbol>
    <symbol id="icon_sun" viewBox="0 0 80 80">
       <g id="Page-1" stroke="none" stroke-width="1" fill="none" fill-rule="evenodd"> <g id="Fitvigo/Desktop-HD" transform="translate(-648.000000, -2942.000000)"> <g id="Group-9" transform="translate(264.000000, 2942.000000)"> <g id="Group-2" transform="translate(384.000000, 0.000000)"> <g id="Habit-Border" fill="#FFC216"> <g id="Group"> <rect id="Rectangle-10" x="0" y="0" width="80" height="80" rx="40"/> </g> </g> <rect id="Rectangle-10-Copy" stroke="#FFFFFF" stroke-width="2.72727273" stroke-linecap="round" stroke-dasharray="61.91193320534446,312.9062444513494" transform="translate(40.000000, 40.000000) rotate(-270.000000) translate(-40.000000, -40.000000) " x="5" y="5" width="70" height="70" rx="35"/> <path d="M33,40 C33,43.8605206 36.1400551,47 40,47 C43.8599449,47 47,43.8605206 47,40 C47,36.1402216 43.8599449,33 40,33 C36.1400551,33 33,36.1402216 33,40 Z" id="Fill-1" stroke="#FFFFFF" stroke-width="2" stroke-linecap="round" stroke-linejoin="round"/> <path d="M40,27.9004961 L40,21.7191162 L40,27.9004961 C40,27.9004961 40,27.9004961 40,27.9004961 Z M48.5516668,31.4483332 L52.9265369,27.0734631 L48.5516668,31.4483332 C48.5516668,31.4483332 48.5516668,31.4483332 48.5516668,31.4483332 Z M52.0995039,40 L58.2808838,40 L52.0995039,40 C52.0995039,40 52.0995039,40 52.0995039,40 Z M48.5519074,48.5519074 L52.9265369,52.9265369 L48.5519074,48.5519074 C48.5519074,48.5519074 48.5519074,48.5519074 48.5519074,48.5519074 Z M40,52.0995039 L40,58.2808838 L40,52.0995039 C40,52.0995039 40,52.0995039 40,52.0995039 Z M31.4480926,48.5519074 L27.0734631,52.9265369 L31.4480926,48.5519074 C31.4480926,48.5519074 31.4480926,48.5519074 31.4480926,48.5519074 Z M27.9004961,40 L21.7191162,40 L27.9004961,40 C27.9004961,40 27.9004961,40 27.9004961,40 Z M31.4483332,31.4483332 L27.0734631,27.0734631 L31.4483332,31.4483332 C31.4483332,31.4483332 31.4483332,31.4483332 31.4483332,31.4483332 Z" id="Path-63" stroke="#FFFFFF" stroke-width="2" stroke-linecap="round" stroke-linejoin="round"/> </g> </g> </g> </g> 
    </symbol></svg>