<?xml version="1.0" encoding="UTF-8" standalone="no"?>
<svg width="80px" height="80px" viewBox="0 0 80 80" version="1.1" xmlns="http://www.w3.org/2000/svg" xmlns:xlink="http://www.w3.org/1999/xlink">
    <g id="Page-1" stroke="none" stroke-width="1" fill="none" fill-rule="evenodd">
        <g id="Fitvigo/Desktop-HD" transform="translate(-840.000000, -2942.000000)">
            <g id="Group-9" transform="translate(264.000000, 2942.000000)">
                <g id="Group-2" transform="translate(576.000000, 0.000000)">
                    <g id="Habit-Border" fill="#B7EA23">
                        <g id="Group">
                            <rect id="Rectangle-10" x="0" y="0" width="80" height="80" rx="40"></rect>
                        </g>
                    </g>
                    <rect id="Rectangle-10-Copy" stroke="#FFFFFF" stroke-width="2.72727273" stroke-linecap="round" transform="translate(40.000000, 40.000000) rotate(-270.000000) translate(-40.000000, -40.000000) " x="5" y="5" width="70" height="70" rx="35"></rect>
                    <g id="Group" transform="translate(26.000000, 22.000000)" stroke="#FFFFFF" stroke-width="2" stroke-linecap="round" stroke-linejoin="round">
                        <path d="M13.8242187,7.26831055 C13.8242187,7.26831055 11.9191895,-0.104492178 18.8205565,0.805419922" id="Path-9"></path>
                        <path d="M19.7992726,31.7353516 C20.6024954,31.7353521 24.2868646,31.1335446 26.1967767,25.8388677 C28.1066887,20.5441908 28.770464,15.3398438 25.1750049,10.4294433 C21.5795459,5.51904284 14.4005909,8.35791016 14.4005909,8.35791016 L13.6599121,8.35791016 C13.6599121,8.35791016 6.48095713,5.51904284 2.88549811,10.4294433 C-0.709960921,15.3398438 0.379638778,20.5441908 2.28955082,25.8388677 C4.19946286,31.1335446 7.45800764,31.7353521 8.26123047,31.7353516 C9.60131853,31.7353507 12.0971681,30.8439933 14.0000002,30.8439933 C15.9633349,30.8439933 18.4591845,31.7353507 19.7992726,31.7353516 Z" id="Combined-Shape"></path>
                    </g>
                </g>
            </g>
        </g>
    </g>
</svg>
