<svg xmlns="http://www.w3.org/2000/svg" version="1.1" xmlns:xlink="http://www.w3.org/1999/xlink" viewBox="0 0 44 60"><path id="SvgjsPath1013" d="M745.01 1584.71C744.72075 1577.8877300000001 752.33039 1563.8231700000001 752.35 1563.75028C752.37005 1568.65022 753.78003 1574.40003 755.5600000000001 1576.19C756.12 1576.76 757.08 1576.48 757.2500000000001 1575.7C757.3100000000001 1575.42 757.3700000000001 1575.13 757.4400000000002 1574.8400000000001C757.6100000000001 1574.13 757.8000000000002 1573.4 758.0500000000002 1572.45C758.1400000000002 1572.14 758.6100000000001 1570.45 758.7500000000002 1569.95C761.0900000000003 1561.32 760.3400000000003 1545.8600000000001 760.3400000000003 1545.8600000000001C768.6500000000002 1554.89 775.7500000000002 1566.3300000000002 776.9200000000003 1575.6200000000001C777.0200000000003 1576.48 778.1100000000004 1576.8000000000002 778.6700000000003 1576.13C780.2000000000003 1574.3200000000002 781.2400000000004 1569.0900000000001 781.2400000000004 1569.0900000000001C784.4900000000004 1579.4 784.5500000000003 1586.8300000000002 781.9700000000004 1591.6200000000001C779.7111300000004 1595.8108000000002 775.4302600000003 1597.86182 770.0026000000004 1597.99672C769.9789700000003 1597.99151 769.9549700000003 1597.9862500000002 769.9300000000004 1597.98C769.8300000000004 1597.97 769.7200000000004 1597.96 769.5700000000004 1597.95C769.3400000000004 1597.94 769.0100000000004 1597.93 768.6000000000004 1597.92C767.8800000000003 1597.92 766.9200000000004 1597.92 765.7500000000003 1597.93C765.1400000000003 1597.94 764.5000000000003 1597.95 763.8300000000004 1597.96C762.9800000000004 1597.98 761.6400000000003 1598 761.6600000000004 1598C751.3800000000005 1598 745.3600000000005 1592.8 745.0100000000004 1584.71ZM770.16 1598.04C770.26 1598.07 770.26 1598.07 770.4399999999999 1598.18C770.6999999999999 1598.3700000000001 769.8499999999999 1598 769.8499999999999 1598C769.9009699999999 1597.99907 769.9518299999999 1597.99798 770.0025999999999 1597.99672C770.05468 1598.00819 770.1049699999999 1598.0193700000002 770.16 1598.0400000000002ZM752.35 1563.75C752.35005 1563.75 752.35005 1563.75009 752.35 1563.75028C752.35 1563.75019 752.35 1563.75009 752.35 1563.75ZM763.86 1599.96C764.53 1599.95 765.17 1599.94 765.78 1599.93C766.93 1599.92 767.88 1599.92 768.5799999999999 1599.92C768.9599999999999 1599.93 769.2599999999999 1599.94 769.4599999999999 1599.95C769.4880199999999 1599.95 769.5131399999999 1599.95097 769.5350399999999 1599.9523000000002C769.6350399999999 1599.98204 769.7546299999999 1600.00241 769.8899999999999 1600.0000000000002C776.0399999999998 1599.8900000000003 781.0599999999998 1597.5100000000002 783.7299999999999 1592.5700000000002C786.9399999999999 1586.6000000000001 786.4899999999999 1577.3500000000001 781.7799999999999 1564.5000000000002C781.4199999999998 1563.5200000000002 779.9799999999999 1563.6800000000003 779.8499999999999 1564.7200000000003C779.1899999999999 1569.9300000000003 778.3599999999999 1572.3900000000003 778.3599999999999 1572.3900000000003C776.0099999999999 1562.4400000000003 768.2899999999998 1551.0200000000004 759.7099999999999 1542.3000000000004C759.03 1541.6100000000004 757.8699999999999 1542.1900000000005 758.0099999999999 1543.1500000000003C759.6499999999999 1554.3500000000004 759.0899999999999 1561.0400000000004 756.8199999999998 1569.4200000000003C756.6799999999998 1569.9200000000003 756.2099999999998 1571.6000000000004 756.1299999999998 1571.9300000000003C755.8599999999998 1572.8900000000003 756.2099999999998 1573.7300000000002 755.8599999999998 1572.8800000000003C754.7099999999998 1570.0700000000004 753.9399999999998 1565.2400000000002 754.5299999999997 1561.3500000000004C754.6699999999997 1560.4000000000003 753.5099999999998 1559.8200000000004 752.8299999999997 1560.5000000000005C748.1099999999997 1565.2200000000005 742.6899999999997 1577.3600000000004 743.0099999999996 1584.8000000000004C743.4099999999996 1594.0100000000004 750.3599999999997 1600.0000000000005 761.6599999999996 1600.0000000000005C761.6599999999996 1600.0000000000005 763.0399999999996 1599.9800000000005 763.8599999999997 1599.9600000000005Z " fill="#9ac9ff" fill-opacity="1" transform="matrix(1,0,0,1,-742,-1541)"></path></svg>
