<svg xmlns="http://www.w3.org/2000/svg" version="1.1" xmlns:xlink="http://www.w3.org/1999/xlink" viewBox="0 0 58 61"><path id="SvgjsPath1030" d="M641 1540C624.97 1540 612 1553.67 612 1570.5C612 1587.33 624.97 1601 641 1601C657.03 1601 670 1587.33 670 1570.5C670 1553.67 657.03 1540 641 1540ZM641 1599.01C626.11 1599.01 614.02 1586.26 614.02 1570.5C614.02 1554.74 626.11 1541.99 641 1541.99C655.89 1541.99 667.98 1554.74 667.98 1570.5C667.98 1586.26 655.89 1599.01 641 1599.01ZM652.46 1568.36C646.72 1568.36 642.09 1573.24 642.09 1579.2199999999998C642.09 1585.2099999999998 646.72 1590.0799999999997 652.46 1590.0799999999997C658.2 1590.0799999999997 662.83 1585.2099999999998 662.83 1579.2199999999998C662.83 1573.2399999999998 658.2 1568.36 652.46 1568.36ZM645.02 1547.92C639.87 1547.92 635.73 1552.29 635.73 1557.65C635.73 1563 639.87 1567.3700000000001 645.02 1567.3700000000001C650.16 1567.3700000000001 654.31 1563.0000000000002 654.31 1557.65C654.31 1552.2900000000002 650.16 1547.92 645.02 1547.92ZM638.06 1574.8C638.06 1569.47 633.9799999999999 1565.1699999999998 628.9899999999999 1565.1699999999998C623.9999999999999 1565.1699999999998 619.9199999999998 1569.4699999999998 619.9199999999998 1574.8C619.9199999999998 1580.1299999999999 623.9999999999999 1584.43 628.9899999999999 1584.43C633.9799999999999 1584.43 638.06 1580.13 638.06 1574.8ZM652.46 1588.1C647.86 1588.1 644.11 1584.1399999999999 644.11 1579.2199999999998C644.11 1574.3099999999997 647.86 1570.35 652.46 1570.35C657.0500000000001 1570.35 660.8100000000001 1574.31 660.8100000000001 1579.2199999999998C660.8100000000001 1584.1399999999999 657.0500000000001 1588.1 652.46 1588.1ZM645.02 1565.38C641.01 1565.38 637.74 1561.93 637.74 1557.65C637.74 1553.3600000000001 641.01 1549.91 645.02 1549.91C649.02 1549.91 652.29 1553.3600000000001 652.29 1557.65C652.29 1561.93 649.02 1565.38 645.02 1565.38ZM640.07 1574.8C640.07 1581.2 635.13 1586.4199999999998 628.99 1586.4199999999998C622.85 1586.4199999999998 617.91 1581.1999999999998 617.91 1574.8C617.91 1568.3999999999999 622.85 1563.19 628.99 1563.19C635.13 1563.19 640.07 1568.4 640.07 1574.8Z " fill="#9dc6ff" fill-opacity="1" transform="matrix(1,0,0,1,-612,-1540)"></path></svg>
