<svg xmlns="http://www.w3.org/2000/svg" version="1.1" xmlns:xlink="http://www.w3.org/1999/xlink" viewBox="0 0 55 57"><path id="SvgjsPath1016" d="M1022.58 1596C1007.9000000000001 1596 996 1584.1 996 1569.42C996 1556.63533 1005.06668 1545.8213 1017.29367 1543.35778C1014.42916 1547.5909900000001 1012.86 1552.60337 1012.86 1557.8600000000001C1012.86 1572.15 1024.45 1583.7400000000002 1038.74 1583.7400000000002C1041.05821 1583.7400000000002 1043.33899 1583.4351700000002 1045.5354 1582.8372300000003C1040.82756 1590.8784400000004 1032.16591 1596.0000000000002 1022.5799999999999 1596.0000000000002ZM1046.66 1580.7L1047.92 1582.06C1047.13807 1582.35826 1046.3424300000001 1582.61753 1045.5354 1582.8372299999999C1045.94013 1582.14593 1046.31564 1581.4330499999999 1046.66 1580.6999999999998ZM1018.79 1541.36L1019.67 1542.99C1018.86606 1543.07753 1018.07344 1543.20067 1017.2936699999999 1543.35778C1017.7586999999999 1542.67055 1018.2578599999999 1542.00386 1018.7899999999998 1541.3600000000001ZM1047.21 1580.19C1044.53 1581.21 1041.67 1581.74 1038.74 1581.74C1025.55 1581.74 1014.86 1571.05 1014.86 1557.86C1014.86 1552.2199999999998 1016.82 1546.8899999999999 1020.33 1542.6399999999999C1020.9100000000001 1541.9499999999998 1020.35 1540.9099999999999 1019.46 1541.0099999999998C1005.0300000000001 1542.5799999999997 994 1554.7999999999997 994 1569.4199999999998C994 1585.1999999999998 1006.8 1597.9999999999998 1022.58 1597.9999999999998C1033.77 1597.9999999999998 1043.79 1591.5099999999998 1048.47 1581.5499999999997C1048.8500000000001 1580.7399999999998 1048.05 1579.8799999999997 1047.21 1580.1899999999998Z " fill="#9dc6ff" fill-opacity="1" transform="matrix(1,0,0,1,-994,-1541)"></path></svg>
