<svg xmlns="http://www.w3.org/2000/svg" version="1.1" xmlns:xlink="http://www.w3.org/1999/xlink" viewBox="0 0 44 58"><path id="SvgjsPath1010" d="M523.36 1570.32C522.75 1570.83 522.14 1571.3899999999999 521.57 1572.01C519.71 1574 518.6400000000001 1576.05 518.85 1578.1C519.03 1579.9399999999998 520.25 1581.53 522.53 1582.79C523.73 1583.44 523.9399999999999 1584.17 523.39 1585.35C522.78 1586.6299999999999 521.29 1588.23 519.06 1590.02C517.43 1591.34 515.4499999999999 1592.74 513.1899999999999 1594.18C510.95365999999996 1595.59886 508.57604999999995 1596.99122 506.18161999999995 1598.30733C509.58552 1593.42884 515.25 1584.60122 515.25 1579.8700000000001C515.25 1573.24 509.81 1567.8500000000001 503.12 1567.8500000000001C496.44 1567.8500000000001 491 1573.2400000000002 491 1579.8700000000001C491 1586.4 502.08 1601.13 502.56 1601.7500000000002C502.69 1601.9300000000003 502.9 1602.0300000000002 503.12 1602.0300000000002C503.13498 1602.0300000000002 503.14988 1602.0295800000001 503.16468000000003 1602.0287300000002L503.22 1602.1400000000003C503.27000000000004 1602.1100000000004 503.35 1602.0700000000004 503.47 1602.0100000000002C503.68 1601.9100000000003 503.91 1601.7900000000002 504.18 1601.6500000000003C504.93 1601.2600000000002 505.77 1600.8100000000004 506.68 1600.3200000000004C509.26 1598.9100000000003 511.85 1597.4000000000003 514.26 1595.8600000000004C516.58 1594.3800000000003 518.63 1592.9500000000003 520.3199999999999 1591.5800000000004C522.76 1589.6100000000004 524.43 1587.8200000000004 525.1899999999999 1586.2000000000003C526.1899999999999 1584.0900000000004 525.64 1582.2100000000003 523.4999999999999 1581.0300000000002C521.7499999999999 1580.0800000000002 520.9499999999999 1579.0300000000002 520.8399999999999 1577.9C520.6999999999999 1576.5700000000002 521.53 1574.99 523.03 1573.3700000000001C523.54 1572.8200000000002 524.0899999999999 1572.3100000000002 524.64 1571.8600000000001C524.97 1571.5900000000001 525.22 1571.4 525.35 1571.3000000000002L525.31728 1571.2536200000002C525.35871 1571.2242300000003 525.39665 1571.1894200000002 525.43 1571.15C525.79 1570.67 534.3399999999999 1559.38 534.3399999999999 1554.27C534.3399999999999 1549.16 530.1499999999999 1545 524.9899999999999 1545C519.8299999999999 1545 515.6399999999999 1549.16 515.6399999999999 1554.27C515.6399999999999 1558.44415 521.5046399999999 1566.94647 523.7241899999999 1570.02296C523.6138899999999 1570.11021 523.4920399999999 1570.20937 523.3599999999999 1570.32ZM502.19 1597.83C500.85 1595.9299999999998 499.52 1593.9499999999998 498.3 1591.97C494.99 1586.63 493 1582.23 493 1579.8700000000001C493 1574.3500000000001 497.54 1569.8500000000001 503.12 1569.8500000000001C508.71 1569.8500000000001 513.25 1574.3500000000001 513.25 1579.8700000000001C513.25 1582.2700000000002 511.26 1586.67 507.95 1592.0100000000002C506.72999999999996 1593.9800000000002 505.4 1595.9600000000003 504.06 1597.8500000000001C503.72662 1598.31832 503.41057 1598.7582800000002 503.12622 1599.1498900000001C502.84174 1598.7556100000002 502.52656 1598.3125300000002 502.19 1597.8300000000002ZM524.64 1567.86C523.61 1566.3999999999999 522.6 1564.8799999999999 521.66 1563.36C519.16 1559.32 517.64 1555.9699999999998 517.64 1554.27C517.64 1550.27 520.9399999999999 1547 524.99 1547C529.05 1547 532.34 1550.27 532.34 1554.27C532.34 1556 530.83 1559.35 528.32 1563.3899999999999C527.38 1564.8999999999999 526.37 1566.4199999999998 525.34 1567.87C525.22119 1568.03893 525.1048000000001 1568.20303 524.99216 1568.36071C524.87886 1568.2013399999998 524.76122 1568.03426 524.64 1567.86ZM503.18 1585.07C506.16 1585.07 508.59000000000003 1582.6499999999999 508.59000000000003 1579.6699999999998C508.59000000000003 1576.6899999999998 506.16 1574.2599999999998 503.18 1574.2599999999998C500.19 1574.2599999999998 497.77 1576.6899999999998 497.77 1579.6699999999998C497.77 1582.6499999999999 500.19 1585.07 503.18 1585.07ZM525.03 1558.41C527.4 1558.41 529.3299999999999 1556.49 529.3299999999999 1554.1200000000001C529.3299999999999 1551.7500000000002 527.4 1549.8200000000002 525.03 1549.8200000000002C522.66 1549.8200000000002 520.74 1551.7500000000002 520.74 1554.1200000000001C520.74 1556.49 522.66 1558.41 525.03 1558.41ZM525.03 1556.41C523.77 1556.41 522.74 1555.38 522.74 1554.1200000000001C522.74 1552.8500000000001 523.77 1551.8200000000002 525.03 1551.8200000000002C526.3 1551.8200000000002 527.3299999999999 1552.8500000000001 527.3299999999999 1554.1200000000001C527.3299999999999 1555.38 526.3 1556.41 525.03 1556.41ZM523.84 1569.93C524.07617 1569.6205400000001 524.4980300000001 1569.0524400000002 524.99216 1568.3607100000002C525.47703 1569.0427100000002 525.8825 1569.5833400000001 526.15 1569.94C525.87 1569.5800000000002 525.4399999999999 1569.3600000000001 524.99 1569.3600000000001C524.54 1569.3600000000001 524.11 1569.5800000000002 523.84 1569.93ZM503.12 1600.03C502.72285 1600.03 502.34542 1600.2173 502.10516 1600.52339C502.34045000000003 1600.2214000000001 502.69726 1599.74068 503.12622 1599.1499000000001C503.54103 1599.72483 503.89054999999996 1600.1960000000001 504.14583 1600.53448C503.90560999999997 1600.21782 503.52763 1600.03001 503.12 1600.03001ZM502.1 1600.53C502.10171 1600.5277899999999 502.10343 1600.52558 502.10516 1600.52339C502.10343 1600.5256000000002 502.10172 1600.52781 502.1 1600.53ZM504.15 1600.54C504.14860999999996 1600.53816 504.14722 1600.53632 504.14583 1600.53447C504.14722 1600.53631 504.14860999999996 1600.53815 504.15 1600.54ZM503.18 1583.07C501.3 1583.07 499.77 1581.55 499.77 1579.6699999999998C499.77 1577.7899999999997 501.29999999999995 1576.2599999999998 503.18 1576.2599999999998C505.06 1576.2599999999998 506.59000000000003 1577.7899999999997 506.59000000000003 1579.6699999999998C506.59000000000003 1581.55 505.06000000000006 1583.07 503.18 1583.07Z " fill="#9dc6ff" fill-opacity="1" transform="matrix(1,0,0,1,-491,-1545)"></path></svg>
