<svg xmlns="http://www.w3.org/2000/svg" version="1.1" xmlns:xlink="http://www.w3.org/1999/xlink" viewBox="0 0 50 60"><defs id="SvgjsDefs1038"></defs><path id="SvgjsPath1039" d="M628.81 1855.61C627.4499999999999 1857.56 625.3299999999999 1858.9599999999998 623.4699999999999 1859C622.9699999999999 1859.01 622.43 1858.92 621.8299999999999 1858.76L621.5099999999999 1858.72C617.8999999999999 1858.92 615.7599999999999 1861.75 616.0199999999999 1865.09C616.2799999999999 1868.4399999999998 618.8399999999999 1870.8999999999999 622.4299999999998 1870.54C622.7599999999999 1870.51 622.9199999999998 1870.48 623.1499999999999 1870.42C623.4399999999998 1870.3400000000001 623.6399999999999 1870.25 624.0499999999998 1870.04C624.3799999999999 1869.86 624.4999999999999 1869.81 624.6099999999998 1869.8C624.7699999999998 1869.78 625.0299999999997 1869.85 625.2899999999997 1870.03C625.5699999999997 1870.21 625.7499999999998 1870.42 625.7899999999997 1870.58C625.8199999999997 1870.6799999999998 625.8199999999997 1870.82 625.7799999999997 1871.1899999999998C625.7499999999998 1871.6499999999999 625.7399999999998 1871.8899999999999 625.7799999999997 1872.1699999999998C625.8099999999997 1872.3899999999999 625.8499999999998 1872.56 625.9499999999997 1872.87C626.9999999999997 1876.32 630.2699999999998 1877.7099999999998 633.4599999999997 1876.6599999999999C636.6599999999997 1875.6 638.4499999999997 1872.54 637.2299999999997 1869.1499999999999L637.0799999999997 1868.86C636.6899999999997 1868.3799999999999 636.3999999999997 1867.9099999999999 636.2199999999997 1867.4499999999998C635.5299999999996 1865.7199999999998 636.0099999999996 1863.2399999999998 637.2999999999997 1861.2099999999998C639.3699999999998 1858.11 641.5299999999997 1854.86 644.2399999999998 1850.8099999999997C647.7199999999998 1845.5999999999997 647.7199999999998 1845.5999999999997 651.1899999999998 1840.3899999999996C652.5499999999998 1838.4399999999996 654.6699999999998 1837.0399999999997 656.5299999999999 1836.9999999999995C657.0299999999999 1836.9899999999996 657.5699999999998 1837.0799999999995 658.1599999999999 1837.2399999999996L658.4899999999999 1837.2799999999995C662.0999999999999 1837.0899999999995 664.2399999999999 1834.2499999999995 663.9799999999999 1830.9099999999996C663.7199999999999 1827.5599999999997 661.1599999999999 1825.0999999999997 657.5699999999999 1825.4599999999996C657.2499999999999 1825.4899999999996 657.0799999999999 1825.5199999999995 656.8599999999999 1825.5799999999995C656.56 1825.6599999999994 656.3599999999999 1825.7499999999995 655.9499999999999 1825.9599999999996C655.6199999999999 1826.1399999999996 655.4899999999999 1826.1899999999996 655.39 1826.1999999999996C655.23 1826.2199999999996 654.96 1826.1499999999996 654.71 1825.9699999999996C654.4300000000001 1825.7899999999995 654.25 1825.5799999999995 654.21 1825.4199999999996C654.1800000000001 1825.3099999999997 654.1800000000001 1825.1799999999996 654.21 1824.8099999999997C654.25 1824.3499999999997 654.26 1824.1099999999997 654.22 1823.8299999999997C654.19 1823.6099999999997 654.15 1823.4399999999996 654.0500000000001 1823.1299999999997C653.0000000000001 1819.6799999999996 649.73 1818.2899999999997 646.5300000000001 1819.3399999999997C643.34 1820.3999999999996 641.5500000000001 1823.4599999999996 642.7700000000001 1826.8499999999997L642.9200000000001 1827.1399999999996C643.3100000000001 1827.6199999999997 643.6 1828.0899999999997 643.7800000000001 1828.5499999999997C644.4700000000001 1830.2799999999997 643.9900000000001 1832.7599999999998 642.7 1834.7899999999997C637.62 1842.3999999999996 633.11 1849.1599999999996 628.8100000000001 1855.6099999999997ZM645.64 1827.81C645.3977 1827.1949399999999 645.04251 1826.6146199999998 644.59869 1826.02857C643.89138 1823.82361 645.02863 1821.9439399999999 647.1600000000001 1821.24C649.3500000000001 1820.52 651.4300000000001 1821.41 652.1300000000001 1823.71C652.2000000000002 1823.92 652.2200000000001 1824.01 652.2300000000001 1824.0900000000001C652.2500000000001 1824.19 652.2400000000001 1824.3200000000002 652.2200000000001 1824.5600000000002C652.1600000000002 1825.2400000000002 652.1600000000002 1825.5300000000002 652.2700000000001 1825.9400000000003C652.4600000000002 1826.6200000000003 652.95 1827.2200000000003 653.6000000000001 1827.6400000000003C654.2100000000002 1828.0600000000004 654.9600000000002 1828.2800000000004 655.6600000000001 1828.1800000000003C656.0600000000001 1828.1300000000003 656.3500000000001 1828.0100000000002 656.84 1827.7600000000002C657.1600000000001 1827.5900000000001 657.27 1827.5400000000002 657.38 1827.5100000000002C657.46 1827.4900000000002 657.56 1827.4700000000003 657.77 1827.4500000000003C660.17 1827.2100000000003 661.8 1828.7800000000002 661.98 1831.0600000000002C662.15633 1833.30327 660.84526 1835.07634 658.52622 1835.2699700000003C657.81488 1835.0833900000002 657.14396 1834.9907900000003 656.49 1835.0000000000002C653.9 1835.0500000000002 651.24 1836.8200000000002 649.53 1839.2600000000002C646.04 1844.4900000000002 646.04 1844.4900000000002 642.5699999999999 1849.7000000000003C639.8599999999999 1853.7600000000002 637.6999999999999 1857.0000000000002 635.6199999999999 1860.1200000000003C633.9999999999999 1862.6600000000003 633.3999999999999 1865.7900000000004 634.3599999999999 1868.1900000000003C634.6028399999999 1868.8064400000003 634.9503699999999 1869.3879900000002 635.4025699999999 1869.9753800000003C636.1072499999999 1872.1786300000003 634.9698599999998 1874.0564800000004 632.8299999999998 1874.7600000000002C630.6499999999999 1875.4800000000002 628.5699999999998 1874.5900000000001 627.8599999999998 1872.2900000000002C627.7999999999998 1872.0800000000002 627.7799999999997 1871.9900000000002 627.7699999999998 1871.91C627.7499999999998 1871.8100000000002 627.7599999999998 1871.68 627.7799999999997 1871.44C627.8399999999997 1870.76 627.8399999999997 1870.47 627.7299999999998 1870.06C627.5399999999997 1869.3799999999999 627.0499999999998 1868.78 626.3999999999997 1868.36C625.7899999999997 1867.9399999999998 625.0399999999997 1867.7199999999998 624.3399999999998 1867.82C623.9399999999998 1867.87 623.6499999999997 1867.99 623.1599999999999 1868.25C622.8399999999998 1868.41 622.7299999999999 1868.46 622.6199999999999 1868.49C622.5399999999998 1868.51 622.4499999999999 1868.53 622.2299999999999 1868.55C619.8299999999999 1868.79 618.1999999999999 1867.22 618.0199999999999 1864.94C617.8436699999999 1862.6967300000001 619.1547399999998 1860.9236600000002 621.4737799999999 1860.73003C622.1851199999999 1860.91661 622.8560399999999 1861.00921 623.5099999999999 1861C626.0999999999999 1860.95 628.7599999999999 1859.18 630.4699999999999 1856.74C634.79 1850.26 639.29 1843.51 644.3799999999999 1835.88C645.9999999999999 1833.3400000000001 646.5999999999999 1830.21 645.6399999999999 1827.8100000000002ZM644.65 1826.18L643.7099999999999 1826.52L644.4999999999999 1825.9C644.5333599999999 1825.9429 644.5662599999999 1825.98575 644.5986899999999 1826.0285700000002C644.6148299999999 1826.0788800000003 644.6319299999999 1826.1293600000001 644.6499999999999 1826.18ZM635.35 1869.82L636.2900000000001 1869.48L635.5000000000001 1870.1C635.4670000000001 1870.0584199999998 635.4345300000001 1870.0168899999999 635.4025700000001 1869.9753799999999C635.38606 1869.92376 635.36854 1869.87196 635.3500000000001 1869.82ZM658.71 1835.32L658.44 1836.28L658.3800000000001 1835.28C658.4291700000001 1835.27735 658.4779200000002 1835.274 658.5262200000001 1835.26997C658.5871800000001 1835.2859600000002 658.6484300000001 1835.30264 658.71 1835.3200000000002ZM621.29 1860.68L621.56 1859.72L621.6199999999999 1860.72C621.5708299999999 1860.72265 621.5220799999998 1860.726 621.4737799999999 1860.73003C621.4128199999999 1860.7140399999998 621.3515699999999 1860.69736 621.29 1860.6799999999998Z " fill="#9dc6ff" fill-opacity="1" transform="matrix(1,0,0,1,-615,-1818)"></path></svg>
