<svg id="SvgjsSvg1034" xmlns="http://www.w3.org/2000/svg" version="1.1" xmlns:xlink="http://www.w3.org/1999/xlink" xmlns:svgjs="http://svgjs.com/svgjs" width="45" height="72"><defs id="SvgjsDefs1035"></defs><path id="SvgjsPath1036" d="M290.42 1811.9C292.63 1817.27 293.56 1825.0300000000002 292.69 1835.5300000000002C291.98 1844.1900000000003 287.67 1850.0900000000001 279.81 1855.5700000000002C278.41 1856.5400000000002 271.04 1861.13 269.48 1862.3600000000001C269.41 1862.42 269.41 1862.42 269.33000000000004 1862.48C267.57000000000005 1863.89 266.19000000000005 1865.6100000000001 264.96000000000004 1867.74C264.51000000000005 1868.53 264.1 1869.32 263.6 1870.35C263.51000000000005 1870.54 263.45000000000005 1870.6599999999999 263.31 1870.9699999999998C263.16 1871.2699999999998 263.16 1871.2699999999998 263.02 1871.5699999999997C262.79999999999995 1872.0399999999997 262.64 1872.3699999999997 262.47999999999996 1872.6799999999996C261.52 1874.5999999999997 260.77 1875.5499999999995 259.81999999999994 1875.8799999999997C260.2099999999999 1861.6699999999996 264.22999999999996 1853.0399999999997 271.10999999999996 1847.5199999999998C273.16999999999996 1845.8699999999997 274.38999999999993 1845.1499999999999 278.34999999999997 1843.0299999999997C283.42999999999995 1840.3099999999997 286.45 1834.3699999999997 287.87999999999994 1826.2299999999998C288.8299999999999 1820.87 288.98999999999995 1815.2099999999998 288.69999999999993 1810.11C288.68999999999994 1809.87 288.66999999999996 1809.6399999999999 288.6599999999999 1809.4399999999998C289.2999999999999 1809.8999999999999 289.9299999999999 1810.7199999999998 290.4199999999999 1811.8999999999999ZM286.65 1809.2C286.67999999999995 1809.48 286.7 1809.82 286.71999999999997 1810.23C286.99999999999994 1815.18 286.84 1820.7 285.92999999999995 1825.88C284.59 1833.49 281.8299999999999 1838.91 277.40999999999997 1841.2800000000002C273.34 1843.4500000000003 272.05999999999995 1844.2100000000003 269.86999999999995 1845.9700000000003C262.56999999999994 1851.8200000000002 258.29999999999995 1860.9100000000003 257.84999999999997 1875.5000000000002C254.53999999999996 1872.4500000000003 252.70999999999998 1856.5600000000002 255.15999999999997 1847.5400000000002C256.34999999999997 1843.16 260.59 1838.5700000000002 267.42999999999995 1833.4300000000003C269.9 1831.5800000000004 277.94999999999993 1826.1000000000004 279.03 1825.2300000000002C283.13 1821.9300000000003 284.28999999999996 1819.1500000000003 285.15999999999997 1812.9200000000003C285.24999999999994 1812.3000000000004 285.28999999999996 1811.9900000000002 285.34 1811.6700000000003C285.52 1810.3800000000003 286.02 1809.5600000000004 286.65 1809.2000000000003ZM283.2 1812.64C282.38 1818.41 281.40999999999997 1820.76 277.78999999999996 1823.68C276.78999999999996 1824.48 268.77 1829.94 266.24999999999994 1831.8400000000001C259.06999999999994 1837.2300000000002 254.59999999999994 1842.0800000000002 253.24999999999994 1847.0100000000002C250.20999999999995 1858.1700000000003 252.93999999999994 1877.9700000000003 258.96999999999997 1878.0000000000002C261.33 1878.0100000000002 262.71 1876.6400000000003 264.24999999999994 1873.5800000000002C264.41999999999996 1873.2500000000002 264.5799999999999 1872.91 264.80999999999995 1872.43C264.94999999999993 1872.13 264.94999999999993 1872.13 265.09999999999997 1871.8300000000002C265.23999999999995 1871.5300000000002 265.29999999999995 1871.4 265.39 1871.2200000000003C265.86 1870.2300000000002 266.26 1869.4700000000003 266.68 1868.7400000000002C267.79 1866.8000000000002 269.02 1865.2800000000002 270.57 1864.0300000000002C270.64 1863.9800000000002 270.64 1863.9800000000002 270.71 1863.9200000000003C272.15999999999997 1862.7700000000002 279.46 1858.2300000000002 280.94 1857.2000000000003C289.25 1851.4200000000003 293.9 1845.0400000000002 294.67 1835.6900000000003C295.57 1824.9000000000003 294.59000000000003 1816.8300000000004 292.25 1811.1400000000003C289.99 1805.6400000000003 284.22 1805.5200000000004 283.37 1811.3900000000003C283.33 1811.7100000000003 283.28000000000003 1812.0200000000004 283.2 1812.6400000000003Z " fill="#9dc6ff" fill-opacity="1" transform="matrix(1,0,0,1,-251,-1807)"></path></svg>