<svg xmlns="http://www.w3.org/2000/svg" version="1.1" xmlns:xlink="http://www.w3.org/1999/xlink" width="41" height="58" viewBox="0 0 41 58"><path id="SvgjsPath1007" d="M243.55 1551.04C240.69 1553.83 240.53 1558.32 241.64000000000001 1565.6399999999999C242.14000000000001 1568.9199999999998 243.04000000000002 1572.1999999999998 244.33 1575.4299999999998C244.60000000000002 1576.11 245 1577.08 245.38000000000002 1577.9799999999998C245.66000000000003 1578.6299999999999 245.91000000000003 1579.1699999999998 246.11 1579.5699999999997C246.23000000000002 1579.8099999999997 246.34 1580.0099999999998 246.43 1580.1499999999996C246.5 1580.2599999999995 246.57 1580.3499999999997 246.66 1580.4399999999996C246.92 1580.7099999999996 247.23 1580.8799999999997 247.72 1580.7299999999996C248.77 1580.4299999999996 249.74 1580.1499999999996 251.76 1579.5599999999995C253.51 1579.0499999999995 254.64 1578.7299999999996 255.79999999999998 1578.3899999999994C256.24 1578.2599999999993 256.53999999999996 1577.8499999999995 256.52 1577.3999999999994C256.51 1576.8499999999995 256.5 1576.2599999999993 256.52 1575.6299999999994C256.57 1574.1299999999994 256.77 1572.9299999999994 257.35999999999996 1570.2199999999993C257.37999999999994 1570.0899999999992 257.37999999999994 1570.0899999999992 257.40999999999997 1569.9599999999994C258.04999999999995 1566.9999999999993 258.28 1565.4599999999994 258.23999999999995 1563.5999999999995C258.06999999999994 1556.9699999999993 255.21999999999994 1550.4099999999994 250.39999999999995 1549.0899999999995C248.77999999999994 1548.6499999999994 244.76999999999995 1549.8499999999995 243.54999999999995 1551.0399999999995ZM263.99 1574.84C263.94 1576.6999999999998 264.17 1578.24 264.81 1581.1999999999998C264.84 1581.33 264.84 1581.33 264.87 1581.4599999999998C265.45 1584.1699999999998 265.66 1585.37 265.7 1586.87C265.71999999999997 1587.5 265.71999999999997 1588.08 265.7 1588.6399999999999C265.69 1589.09 265.99 1589.4999999999998 266.42 1589.6299999999999C267.59000000000003 1589.9599999999998 268.72 1590.29 270.47 1590.8C272.49 1591.3899999999999 273.45000000000005 1591.6699999999998 274.51000000000005 1591.97C275.00000000000006 1592.1100000000001 275.30000000000007 1591.95 275.57000000000005 1591.68C275.65000000000003 1591.5900000000001 275.72 1591.5 275.7900000000001 1591.39C275.8900000000001 1591.24 275.99000000000007 1591.0500000000002 276.12000000000006 1590.8100000000002C276.32000000000005 1590.41 276.56000000000006 1589.8700000000001 276.8400000000001 1589.2100000000003C277.2300000000001 1588.3200000000002 277.6300000000001 1587.3500000000004 277.9000000000001 1586.6600000000003C279.18000000000006 1583.4400000000003 280.0900000000001 1580.1600000000003 280.5900000000001 1576.8800000000003C281.7000000000001 1569.5600000000004 281.5400000000001 1565.0700000000004 278.6700000000001 1562.2700000000004C277.45000000000005 1561.0900000000004 273.45000000000005 1559.8900000000003 271.8300000000001 1560.3300000000004C267.0000000000001 1561.6500000000003 264.1600000000001 1568.2000000000003 263.9900000000001 1574.8400000000004ZM256.24 1563.66C256.28000000000003 1565.3000000000002 256.07 1566.73 255.46 1569.5400000000002C255.43 1569.6700000000003 255.43 1569.6700000000003 255.4 1569.8000000000002C254.79 1572.63 254.57 1573.91 254.52 1575.5700000000002C254.5 1576.2400000000002 254.82000000000002 1576.5900000000001 254.61 1576.65C253.65 1576.93 252.63000000000002 1577.23 251.20000000000002 1577.64C249.18 1578.23 247.99 1578.8600000000001 247.9 1578.67C247.72 1578.3100000000002 247.49 1577.8100000000002 247.22 1577.18C246.84 1576.3100000000002 246.45 1575.3600000000001 246.19 1574.69C244.96 1571.6000000000001 244.09 1568.47 243.62 1565.3400000000001C242.61 1558.7300000000002 242.76 1554.6000000000001 244.95000000000002 1552.4700000000003C245.68 1551.7600000000002 248.96 1550.7800000000002 249.87 1551.0200000000002C253.59 1552.0400000000002 256.09000000000003 1557.8000000000002 256.24 1563.6600000000003ZM277.28 1563.71C279.46999999999997 1565.8400000000001 279.60999999999996 1569.97 278.60999999999996 1576.58C278.13999999999993 1579.71 277.27 1582.84 276.03999999999996 1585.9299999999998C275.77 1586.6 275.37999999999994 1587.5499999999997 275.01 1588.4199999999998C274.74 1589.0399999999997 274.51 1589.55 274.33 1589.9099999999999C274.24 1590.09 273.05 1589.4699999999998 271.02 1588.8799999999999C269.28 1588.37 267.71999999999997 1587.8899999999999 267.71999999999997 1587.8899999999999C267.71999999999997 1587.8899999999999 267.71 1587.1799999999998 267.7 1586.81C267.65 1585.1499999999999 267.44 1583.86 266.82 1581.04C266.79 1580.9099999999999 266.79 1580.9099999999999 266.77 1580.77C266.15999999999997 1577.97 265.95 1576.54 265.99 1574.8899999999999C266.14 1569.04 268.64 1563.27 272.36 1562.2599999999998C273.26 1562.0099999999998 276.55 1562.9899999999998 277.28000000000003 1563.7099999999998ZM263.04 1595.91C261.81 1600.3700000000001 262.55 1604.8500000000001 266.22 1605.8400000000001C267.99 1606.3100000000002 269.92 1605.67 271.37 1604.3000000000002C272.8 1602.9500000000003 273.77 1601.0500000000002 274.28000000000003 1598.8400000000001C274.48 1597.9900000000002 274.59000000000003 1597.1100000000001 274.68 1595.9800000000002C274.68 1595.9700000000003 274.72 1595.4600000000003 274.74 1595.2600000000002C274.75 1595.1900000000003 274.75 1595.1900000000003 274.76 1595.1200000000001C274.78 1594.8600000000001 274.8 1594.65 274.81 1594.48C274.81 1594.38 274.82 1594.3 274.82 1594.23C274.82 1594.16 274.82 1594.16 274.81 1594.06C274.8 1594 274.8 1594 274.77 1593.87C274.74 1593.6499999999999 274.74 1593.6499999999999 274.08 1593.1799999999998C273 1592.87 272.13 1592.62 270.18 1592.07C268.23 1591.52 267.36 1591.27 266.28000000000003 1590.96C265.87 1590.8500000000001 265.43 1591 265.19000000000005 1591.3500000000001C264.14000000000004 1592.8700000000001 263.47 1594.39 263.0400000000001 1595.91ZM247.45 1582.63C247.42 1582.7600000000002 247.42 1582.7600000000002 247.42 1582.8300000000002C247.41 1582.92 247.41 1582.92 247.41 1582.9900000000002C247.41 1583.0600000000002 247.41 1583.1400000000003 247.42 1583.2500000000002C247.42999999999998 1583.4100000000003 247.45 1583.6200000000001 247.47 1583.8800000000003C247.48 1583.9500000000003 247.48 1583.9500000000003 247.48 1584.0300000000004C247.5 1584.2200000000005 247.54999999999998 1584.7300000000005 247.54999999999998 1584.7400000000005C247.63 1585.8700000000006 247.74999999999997 1586.7500000000005 247.95 1587.6100000000004C248.45999999999998 1589.8100000000004 249.42999999999998 1591.7100000000003 250.85999999999999 1593.0700000000004C252.29999999999998 1594.4300000000003 254.23999999999998 1595.0700000000004 255.99999999999997 1594.6000000000004C259.66999999999996 1593.6100000000004 260.41999999999996 1589.1300000000003 259.17999999999995 1584.6800000000003C258.75999999999993 1583.1600000000003 258.09 1581.6300000000003 257.03999999999996 1580.1200000000003C256.79999999999995 1579.7700000000004 256.34999999999997 1579.6100000000004 255.93999999999997 1579.7300000000002C254.85999999999996 1580.0300000000002 253.98999999999998 1580.2800000000002 252.03999999999996 1580.8300000000002C250.08999999999997 1581.39 249.22999999999996 1581.63 248.13999999999996 1581.94C247.48999999999995 1582.41 247.48999999999995 1582.41 247.44999999999996 1582.63ZM252.59 1582.76C254.54 1582.2 255.67000000000002 1581.66 255.8 1581.87C256.48 1582.9799999999998 256.95 1584.1 257.25 1585.2099999999998C258.23 1588.7299999999998 257.67 1592.0799999999997 255.48 1592.6699999999998C254.45 1592.9499999999998 253.2 1592.5299999999997 252.23 1591.61C251.11999999999998 1590.56 250.32 1589 249.89 1587.1499999999999C249.72 1586.4199999999998 249.61999999999998 1585.6299999999999 249.54 1584.6C249.54 1584.56 249.48999999999998 1584.01 249.47 1583.84C249.47 1583.77 249.47 1583.77 249.46 1583.6999999999998C249.44 1583.4599999999998 250.64000000000001 1583.3099999999997 252.59 1582.7599999999998ZM269.63 1593.99C271.58 1594.55 272.79 1594.7 272.76 1594.94C272.76 1595.01 272.76 1595.01 272.75 1595.0800000000002C272.74 1595.2500000000002 272.68 1595.8000000000002 272.68 1595.8400000000001C272.61 1596.8700000000001 272.5 1597.65 272.33 1598.39C271.9 1600.24 271.10999999999996 1601.8000000000002 269.99 1602.8500000000001C269.02 1603.7700000000002 267.78000000000003 1604.18 266.74 1603.9C264.55 1603.3100000000002 264 1599.96 264.97 1596.45C265.28000000000003 1595.32 266.46000000000004 1593.05 266.46000000000004 1593.05C266.46000000000004 1593.05 267.68000000000006 1593.44 269.63000000000005 1593.99Z " fill="#9ac9ff" fill-opacity="1" transform="matrix(1,0,0,1,-241,-1548)"></path></svg>
