<svg xmlns="http://www.w3.org/2000/svg" version="1.1" xmlns:xlink="http://www.w3.org/1999/xlink" viewBox="0 0 54 58"><path id="SvgjsPath1027" d="M245.11 1595.87C244.51000000000002 1598.6599999999999 246.42000000000002 1601 249.29000000000002 1601L293.71000000000004 1601C296.57000000000005 1601 298.48 1598.66 297.89000000000004 1595.87L291.49000000000007 1565.7199999999998C290.93000000000006 1563.0899999999997 288.3400000000001 1560.9999999999998 285.64000000000004 1560.9999999999998L257.36 1560.9999999999998C254.66000000000003 1560.9999999999998 252.07000000000002 1563.0899999999997 251.51000000000002 1565.7199999999998ZM257.36 1563L285.64 1563C287.38 1563 289.15 1564.42 289.51 1566.13L295.92 1596.2800000000002C296.25 1597.8300000000002 295.29 1599.0000000000002 293.71000000000004 1599.0000000000002L249.29000000000002 1599.0000000000002C247.71 1599.0000000000002 246.75000000000003 1597.8300000000002 247.08 1596.2800000000002L253.49 1566.13C253.85000000000002 1564.42 255.61 1563 257.36 1563ZM280.58 1552C280.58 1547.03 276.52 1543 271.5 1543C266.48 1543 262.42 1547.03 262.42 1552C262.42 1556.97 266.48 1561 271.5 1561C276.52 1561 280.58 1556.97 280.58 1552ZM264.44 1552C264.44 1548.13 267.6 1545 271.5 1545C275.4 1545 278.56 1548.13 278.56 1552C278.56 1555.87 275.4 1559 271.5 1559C267.6 1559 264.44 1555.87 264.44 1552Z " fill="#9dc6ff" fill-opacity="1" transform="matrix(1,0,0,1,-244,-1543)"></path></svg>
