<svg xmlns="http://www.w3.org/2000/svg" version="1.1" xmlns:xlink="http://www.w3.org/1999/xlink" viewBox="0 0 33 56"><path id="SvgjsPath1033" d="M1024 1580.03C1024 1577.74 1023.22 1574.22 1022.51 1572.78C1022.29 1572.32 1021.02 1569.96 1019.01 1566.25C1019 1566.23 1019 1566.23 1018.99 1566.21C1018.21 1564.78 1017.38 1563.25 1016.55 1561.72C1016.0799999999999 1560.8500000000001 1016.0799999999999 1560.8500000000001 1015.75 1560.24C1015.5 1559.79 1015.5 1559.79 1015.44 1559.68L1007.5 1545L999.56 1559.69C999.5 1559.79 999.5 1559.79 999.25 1560.24C998.92 1560.85 998.92 1560.85 998.45 1561.72C997.62 1563.25 996.7900000000001 1564.78 996.01 1566.21C996 1566.23 996 1566.23 995.99 1566.25C993.98 1569.96 992.71 1572.32 992.49 1572.78C991.78 1574.22 991 1577.74 991 1580.03C991 1584.21 992.39 1588.18 994.87 1591.31C994.8100000000001 1591.72 994.78 1592.11 994.78 1592.45C994.78 1597.16 998.37 1601 1002.85 1601C1005.5500000000001 1601 1007.9300000000001 1599.6 1009.4 1597.45C1017.68 1596.45 1024 1588.97 1024 1580.03ZM1010.85 1593.63C1010.9 1593.25 1010.9200000000001 1592.8500000000001 1010.9200000000001 1592.45C1010.9200000000001 1591.3300000000002 1010.5500000000001 1589.64 1010.19 1588.91C1010.1400000000001 1588.8000000000002 1009.97 1588.47 1009.69 1587.97C1009.4200000000001 1587.46 1009.0500000000001 1586.76 1008.58 1585.91C1008.58 1585.9 1008.58 1585.9 1008.57 1585.89C1008.22 1585.24 1007.84 1584.5400000000002 1007.46 1583.8400000000001C1007.0500000000001 1583.1000000000001 1007.0500000000001 1583.1000000000001 1006.95 1582.91L1002.85 1575.3200000000002L998.74 1582.91C998.64 1583.1000000000001 998.64 1583.1000000000001 998.24 1583.8400000000001C997.86 1584.5400000000002 997.48 1585.2400000000002 997.13 1585.89C997.12 1585.9 997.12 1585.9 997.12 1585.91C996.19 1587.6200000000001 995.62 1588.69 995.51 1588.91C995.31 1589.3200000000002 993 1583.91 993 1580.03C993 1578.03 993.72 1574.82 994.28 1573.6499999999999C994.49 1573.2299999999998 995.78 1570.84 997.75 1567.1999999999998C997.76 1567.1799999999998 997.76 1567.1799999999998 997.78 1567.1499999999999C998.55 1565.7199999999998 999.38 1564.1999999999998 1000.2099999999999 1562.6699999999998C1000.68 1561.8 1000.68 1561.8 1001.0099999999999 1561.1899999999998C1001.2599999999999 1560.7399999999998 1001.2599999999999 1560.7399999999998 1001.3199999999998 1560.6399999999999L1007.4999999999998 1549.2099999999998L1013.6799999999997 1560.6299999999999C1013.7399999999997 1560.7399999999998 1013.7399999999997 1560.7399999999998 1013.9899999999997 1561.1899999999998C1014.3199999999997 1561.7999999999997 1014.3199999999997 1561.7999999999997 1014.7899999999996 1562.6699999999998C1015.6199999999997 1564.1999999999998 1016.4499999999996 1565.7199999999998 1017.2199999999996 1567.1499999999999C1017.2399999999996 1567.1799999999998 1017.2399999999996 1567.1799999999998 1017.2499999999995 1567.1999999999998C1019.2199999999996 1570.84 1020.5099999999995 1573.2299999999998 1020.7199999999996 1573.6499999999999C1021.2799999999995 1574.82 1021.9999999999995 1578.03 1021.9999999999995 1580.03C1021.9999999999995 1587.48837 1017.0821499999995 1593.7672499999999 1010.4843299999995 1595.23904C1010.6546699999996 1594.7188899999999 1010.7771899999996 1594.18066 1010.8499999999996 1593.6299999999999ZM1009.67 1597.02C1010 1596.47 1010.28 1595.87 1010.4799999999999 1595.24C1010.4814399999999 1595.23968 1010.4828799999999 1595.23936 1010.4843299999999 1595.23904C1010.2803699999998 1595.86185 1010.0078499999998 1596.45875 1009.6699999999998 1597.02ZM997.31 1589.78C997.4 1589.6 997.9899999999999 1588.5 998.88 1586.86C999.24 1586.1799999999998 999.62 1585.4799999999998 1000 1584.79C1000.4 1584.05 1000.4 1584.05 1000.51 1583.86C1001.02 1582.9199999999998 1001.53 1581.9699999999998 1002.04 1581.03C1002.5999999999999 1579.99 1002.8499999999999 1579.56 1002.87 1579.56C1003.64 1580.99 1004.42 1582.4199999999998 1005.19 1583.86C1005.2900000000001 1584.05 1005.2900000000001 1584.05 1005.7 1584.79C1006.08 1585.48 1006.46 1586.18 1006.8100000000001 1586.83C1007.71 1588.5 1008.3000000000001 1589.6 1008.3900000000001 1589.78C1008.6100000000001 1590.24 1008.9200000000001 1591.62 1008.9200000000001 1592.45C1008.9200000000001 1596.0900000000001 1006.19 1599.01 1002.85 1599.01C999.51 1599.01 996.78 1596.09 996.78 1592.45C996.78 1591.6200000000001 997.0899999999999 1590.24 997.31 1589.78Z " fill="#9dc6ff" fill-opacity="1" transform="matrix(1,0,0,1,-991,-1545)"></path></svg>
