<svg id="SvgjsSvg1040" xmlns="http://www.w3.org/2000/svg" version="1.1" xmlns:xlink="http://www.w3.org/1999/xlink" xmlns:svgjs="http://svgjs.com/svgjs" width="45" height="56"><defs id="SvgjsDefs1041"></defs><path id="SvgjsPath1042" d="M1031.34 1872.92C1031.72 1871.76 1032.06 1870.5 1032.3799999999999 1869.17C1033.01 1866.52 1033.51 1863.69 1033.8899999999999 1860.8600000000001C1034.02 1859.8700000000001 1034.1299999999999 1858.95 1034.2099999999998 1858.13C1034.2599999999998 1857.65 1034.2899999999997 1857.3000000000002 1034.3099999999997 1857.1100000000001C1034.4099999999996 1856.98 1034.4899999999998 1856.8300000000002 1034.5199999999998 1856.66C1034.8399999999997 1855.14 1034.9999999999998 1853.5800000000002 1034.9999999999998 1852C1034.9999999999998 1847.16 1033.4299999999998 1843.85 1029.0999999999997 1837.61C1028.9699999999996 1837.4099999999999 1028.9699999999996 1837.4099999999999 1028.8399999999997 1837.2199999999998C1028.0799999999997 1836.1299999999999 1027.6999999999996 1835.5799999999997 1027.2799999999997 1834.9299999999998C1026.3399999999997 1833.5199999999998 1025.1899999999998 1830.9299999999998 1024.3799999999997 1828.4599999999998C1023.3599999999997 1825.3799999999999 1024.1299999999997 1821.9999999999998 1026.2399999999996 1818.5199999999998C1026.6499999999996 1817.8499999999997 1026.1699999999996 1816.9999999999998 1025.3999999999996 1816.9999999999998L1000.5199999999996 1816.9999999999998C999.7999999999996 1816.9999999999998 999.3199999999996 1817.7599999999998 999.6199999999997 1818.4199999999998C1001.2399999999997 1821.9199999999998 1001.7299999999997 1825.33 1000.6999999999997 1828.4599999999998C1000.5899999999997 1828.7799999999997 1000.5799999999997 1828.8299999999997 1000.3099999999997 1829.6699999999998C999.4799999999997 1832.2899999999997 998.9699999999997 1833.4699999999998 997.9299999999997 1834.7199999999998C992.3999999999997 1841.4399999999998 989.9999999999998 1846.0099999999998 989.9999999999998 1851.9999999999998C989.9999999999998 1853.6199999999997 990.1699999999997 1855.2199999999998 990.4999999999998 1856.7899999999997C990.5499999999997 1856.9899999999998 990.6399999999998 1857.1599999999996 990.7799999999997 1857.2899999999997C990.8499999999998 1858.1499999999996 990.9499999999997 1859.0899999999997 991.0699999999997 1860.0999999999997C991.4199999999997 1863.1199999999997 991.9099999999997 1866.1499999999996 992.5699999999997 1868.9799999999998C992.8899999999998 1870.3899999999999 993.2599999999998 1871.7199999999998 993.6499999999997 1872.9499999999998L993.6899999999997 1872.93709L993.6899999999997 1873L1011.4699999999997 1873L1011.2599999999996 1871L1011.2580499999997 1871L1010.6799999999997 1864L1014.3899999999998 1864L1013.7769199999998 1871.20981L1013.5799999999998 1873L1031.34 1873ZM1025.63 1836.04C1026.0600000000002 1836.7 1026.45 1837.27 1027.21 1838.37C1027.3400000000001 1838.56 1027.3400000000001 1838.56 1027.48 1838.75C1029.18405 1841.20864 1030.4274 1843.16704 1031.29914 1844.92384C1020.1960500000001 1850.47239 1008.7018 1850.3093299999998 998.0200000000001 1846.6499999999999C996.3900000000001 1846.09 994.9200000000001 1845.4999999999998 993.6500000000001 1844.8999999999999C993.6093900000001 1844.88051 993.5694500000001 1844.8612799999999 993.5301900000001 1844.8423099999998C994.73175 1842.1733099999997 996.66745 1839.3924699999998 999.46 1835.9999999999998C1000.7 1834.4899999999998 1001.3000000000001 1833.1299999999999 1002.2 1830.2799999999997C1002.46 1829.4499999999998 1002.48 1829.3999999999996 1002.58 1829.0899999999997C1003.5300000000001 1826.1999999999996 1003.39 1823.1699999999996 1002.4100000000001 1820.0999999999997C1002.1400000000001 1819.2599999999998 1002.0400000000001 1818.9999999999998 1002.0400000000001 1818.9999999999998L1023.71 1818.9899999999998C1021.97 1822.4199999999998 1021.4300000000001 1825.8299999999997 1022.5 1829.0899999999997C1023.36 1831.7199999999998 1024.58 1834.4599999999996 1025.63 1836.0399999999997ZM1032.10123 1846.75923C1032.74826 1848.4943099999998 1033.02 1850.12554 1033.02 1852C1033.02 1853.44 1032.78 1855.34 1032.78 1855.34C1030.1399999999999 1855.07 1026.85 1855.53 1023.5699999999999 1856.6699999999998C1020.27 1857.82 1017.39 1859.4999999999998 1015.4799999999999 1861.36C1015.1399999999999 1861.6899999999998 1014.8899999999999 1861.99 1014.8899999999999 1862C1013.7399999999999 1861.99 1010.6999999999998 1861.99 1010.6999999999998 1861.99C1008.8199999999998 1859.88 1005.6699999999998 1857.95 1002.0099999999998 1856.67C998.9699999999998 1855.6200000000001 995.9399999999997 1855.15 993.4199999999997 1855.29C992.6399999999998 1855.34 992.2599999999998 1855.4099999999999 992.2599999999998 1855.4099999999999C992.0799999999998 1854.29 991.9799999999998 1853.1499999999999 991.9799999999998 1851.9999999999998C991.9799999999998 1850.1409599999997 992.2440899999998 1848.4210999999998 992.8059199999998 1846.7033899999997C992.8106099999998 1846.7055899999996 992.8152999999998 1846.7077899999997 992.8199999999998 1846.7099999999996C994.1499999999999 1847.3399999999997 995.6799999999998 1847.9599999999996 997.3799999999998 1848.5399999999995C1008.4966799999997 1852.3536099999994 1020.4950699999997 1852.5313099999996 1032.1012299999998 1846.7592299999994ZM1024.22 1858.57C1027.13 1857.55 1030.02 1857.1299999999999 1032.3 1857.3C1032.28 1857.47 1032.27 1857.68 1032.24 1857.9199999999998C1032.16 1858.7299999999998 1032.05 1859.62 1031.92 1860.59C1031.5500000000002 1863.36 1031.0700000000002 1866.1299999999999 1030.45 1868.6999999999998C1030.25762 1869.5005299999998 1030.05755 1870.2663999999997 1029.8473800000002 1870.9999999999998L1015.7888900000002 1870.9999999999998L1016.4500000000002 1863.2099999999998C1018.1000000000001 1861.4299999999998 1020.9100000000002 1859.7099999999998 1024.2200000000003 1858.5699999999997ZM995.13384 1871C994.90824 1870.20873 994.69612 1869.38037 994.5 1868.52C993.86 1865.77 993.38 1862.82 993.03 1859.86C992.93 1858.9699999999998 992.8399999999999 1858.12 992.78 1857.35C995.12 1857.07 998.22 1857.48 1001.36 1858.57C1004.33 1859.59 1006.9 1861.08 1008.59 1862.6599999999999L1009.26752 1870.9999999999998ZM1012.5 1843C1011.41 1843 1010.52 1842.1 1010.52 1841C1010.52 1839.89 1011.41 1839 1012.5 1839C1013.59 1839 1014.48 1839.89 1014.48 1841C1014.48 1842.1 1013.59 1843 1012.5 1843Z " fill="#9dc6ff" fill-opacity="1" transform="matrix(1,0,0,1,-990,-1817)"></path></svg>