<svg height="80" width="80" xmlns="http://www.w3.org/2000/svg" viewBox="0 0 80 80"><path fill="#ffc217" fill-rule="evenodd" d="M0 40c0-22.09 17.9-40 40-40 22.09 0 40 17.9 40 40 0 22.09-17.9 40-40 40-22.09 0-40-17.9-40-40zm0 0"/><path stroke-linecap="round" stroke-dasharray="168.8507269236667,853.3806666854982" stroke-width="3" stroke="#fff" d="M5 40c0-19.33 15.67-35 35-35s35 15.67 35 35-15.67 35-35 35-35-15.67-35-35zm0 0" fill="none"/><path stroke-linejoin="round" stroke-linecap="round" stroke-width="2" stroke="#fff" d="M33 40c0 3.86 3.14 7 7 7s7-3.14 7-7-3.14-7-7-7-7 3.14-7 7zm0 0M40 27.9v-6.18 6.18zm8.55 3.55l4.38-4.38-4.38 4.38zm3.55 8.55h6.18-6.18zm-3.55 8.55l4.38 4.38-4.38-4.38zm-8.55 3.55v6.18-6.18zm-8.55-3.55l-4.38 4.38 4.38-4.38zm-3.55-8.55h-6.18 6.18zm3.55-8.55l-4.38-4.38 4.38 4.38zm0 0" fill="none"/></svg>