<?xml version="1.0" encoding="utf-8"?>
<!-- Generator: Avocode 2.6.0 - http://avocode.com -->
<svg height="80" width="80" xmlns:xlink="http://www.w3.org/1999/xlink" xmlns="http://www.w3.org/2000/svg" viewBox="0 0 80 80">
    <path fill="#82b3f5" fill-rule="evenodd" d="M 0 40 C 0 17.91 17.9 0 40 0 L 40 0 C 62.09 0 80 17.9 80 40 L 80 40 C 80 62.09 62.1 80 40 80 L 40 80 C 17.91 80 0 62.1 0 40 L 0 40 Z M 0 40" />
    <path stroke-linejoin="round" stroke-linecap="round" stroke-width="2" stroke="#ffffff" fill="none" fill-rule="evenodd" d="M 52.34 45.12 C 50.3 49.46 45.89 52.47 40.77 52.47 C 33.72 52.47 28 46.75 28 39.7 C 28 33.12 32.98 27.7 39.38 27 C 37.73 28.99 36.73 31.55 36.73 34.34 C 36.73 40.71 41.89 45.87 48.26 45.87 C 49.7 45.87 51.07 45.6 52.34 45.12 Z M 52.34 45.12" />
    <path stroke-linejoin="miter" stroke-linecap="round" stroke-width="2.727272727272727" stroke="#ffffff" fill="none" fill-rule="evenodd" d="M 5 40 C 5 20.67 20.67 5 40 5 L 40 5 C 59.33 5 75 20.67 75 40 L 75 40 C 75 59.33 59.33 75 40 75 L 40 75 C 20.67 75 5 59.33 5 40 L 5 40 Z M 5 40" />
</svg>