<?xml version="1.0" encoding="UTF-8" standalone="no"?>
<svg width="80px" height="80px" viewBox="0 0 80 80" version="1.1" xmlns="http://www.w3.org/2000/svg" xmlns:xlink="http://www.w3.org/1999/xlink">
    <!-- Generator: Sketch 39 (31667) - http://www.bohemiancoding.com/sketch -->
    <title>Group 2</title>
    <desc>Created with Sketch.</desc>
    <defs></defs>
    <g id="Page-1" stroke="none" stroke-width="1" fill="none" fill-rule="evenodd">
        <g id="Fitvigo/Desktop-HD" transform="translate(-648.000000, -2942.000000)">
            <g id="Group-9" transform="translate(264.000000, 2942.000000)">
                <g id="Group-2" transform="translate(384.000000, 0.000000)">
                    <g id="Habit-Border" fill="#FFC216">
                        <g id="Group">
                            <rect id="Rectangle-10" x="0" y="0" width="80" height="80" rx="40"></rect>
                        </g>
                    </g>
                    <rect id="Rectangle-10-Copy" stroke="#FFFFFF" stroke-width="2.72727273" stroke-linecap="round" stroke-dasharray="61.91193320534446,312.9062444513494" transform="translate(40.000000, 40.000000) rotate(0) translate(-40.000000, -40.000000) " x="5" y="5" width="70" height="70" rx="35"></rect>
                    <path d="M33,40 C33,43.8605206 36.1400551,47 40,47 C43.8599449,47 47,43.8605206 47,40 C47,36.1402216 43.8599449,33 40,33 C36.1400551,33 33,36.1402216 33,40 Z" id="Fill-1" stroke="#FFFFFF" stroke-width="2" stroke-linecap="round" stroke-linejoin="round"></path>
                    <path d="M40,27.9004961 L40,21.7191162 L40,27.9004961 C40,27.9004961 40,27.9004961 40,27.9004961 Z M48.5516668,31.4483332 L52.9265369,27.0734631 L48.5516668,31.4483332 C48.5516668,31.4483332 48.5516668,31.4483332 48.5516668,31.4483332 Z M52.0995039,40 L58.2808838,40 L52.0995039,40 C52.0995039,40 52.0995039,40 52.0995039,40 Z M48.5519074,48.5519074 L52.9265369,52.9265369 L48.5519074,48.5519074 C48.5519074,48.5519074 48.5519074,48.5519074 48.5519074,48.5519074 Z M40,52.0995039 L40,58.2808838 L40,52.0995039 C40,52.0995039 40,52.0995039 40,52.0995039 Z M31.4480926,48.5519074 L27.0734631,52.9265369 L31.4480926,48.5519074 C31.4480926,48.5519074 31.4480926,48.5519074 31.4480926,48.5519074 Z M27.9004961,40 L21.7191162,40 L27.9004961,40 C27.9004961,40 27.9004961,40 27.9004961,40 Z M31.4483332,31.4483332 L27.0734631,27.0734631 L31.4483332,31.4483332 C31.4483332,31.4483332 31.4483332,31.4483332 31.4483332,31.4483332 Z" id="Path-63" stroke="#FFFFFF" stroke-width="2" stroke-linecap="round" stroke-linejoin="round"></path>
                </g>
            </g>
        </g>
    </g>
</svg>