<svg height="80" width="80" xmlns="http://www.w3.org/2000/svg" viewBox="0 0 80 80"><path fill="#64e2b1" fill-rule="evenodd" d="M0 40c0-22.09 17.9-40 40-40 22.09 0 40 17.9 40 40 0 22.09-17.9 40-40 40-22.09 0-40-17.9-40-40zm0 0"/><path stroke-linejoin="round" stroke-linecap="round" stroke-width="2" stroke="#fff" d="M49.06 50.97s-.57 5.96-4.61 4.9c-2.62-.68-1.93-3.82-1.02-6.07l5.63 1.17zm.67-2.71l-5.7-1.2s-1.6-5.29-.57-9.7c1.41-6.07 4.92-5.25 5.85-4.92 3.77 1.3 3.81 6.56 3.2 9.65-.4 2.06-2.78 6.16-2.78 6.17zm-19.19-4.69s-.06 5.98 4.06 5.35c2.69-.42 2.34-3.6 1.67-5.94l-5.73.59zm-2.48-9.19c.18 2.09 2.1 6.42 2.1 6.42l5.8-.6s2.16-5.1 1.61-9.59c-.77-6.18-4.34-5.73-5.3-5.5-3.89.91-4.48 6.14-4.21 9.27zm0 0" fill="none"/><path stroke-linecap="round" stroke-dasharray="168.85072287026935,853.3806937081472" stroke-width="3" stroke="#fff" d="M5 40c0-19.33 15.67-35 35-35s35 15.67 35 35-15.67 35-35 35-35-15.67-35-35zm0 0" fill="none"/></svg>