<?xml version="1.0" encoding="utf-8"?>
<!-- Generator: Avocode 2.6.0 - http://avocode.com -->
<svg height="80" width="80" xmlns:xlink="http://www.w3.org/1999/xlink" xmlns="http://www.w3.org/2000/svg" viewBox="0 0 80 80">
    <path fill="#ffc217" fill-rule="evenodd" d="M 0 40 C 0 17.91 17.9 0 40 0 L 40 0 C 62.09 0 80 17.9 80 40 L 80 40 C 80 62.09 62.1 80 40 80 L 40 80 C 17.91 80 0 62.1 0 40 L 0 40 Z M 0 40" />
    <path stroke-linejoin="miter" stroke-linecap="round" stroke-dasharray="168.8507269236667,853.3806666854982" stroke-width="2.727272727272727" stroke="#ffffff" fill="none" fill-rule="evenodd" d="M 5 40 C 5 20.67 20.67 5 40 5 L 40 5 C 59.33 5 75 20.67 75 40 L 75 40 C 75 59.33 59.33 75 40 75 L 40 75 C 20.67 75 5 59.33 5 40 L 5 40 Z M 5 40" />
    <path stroke-linejoin="round" stroke-linecap="round" stroke-width="2" stroke="#ffffff" fill="none" fill-rule="evenodd" d="M 33 40 C 33 43.86 36.14 47 40 47 C 43.86 47 47 43.86 47 40 C 47 36.14 43.86 33 40 33 C 36.14 33 33 36.14 33 40 Z M 33 40" />
    <path stroke-linejoin="round" stroke-linecap="round" stroke-width="2" stroke="#ffffff" fill="none" fill-rule="evenodd" d="M 40 27.9 L 40 21.72 L 40 27.9 C 40 27.9 40 27.9 40 27.9 Z M 48.55 31.45 L 52.93 27.07 L 48.55 31.45 C 48.55 31.45 48.55 31.45 48.55 31.45 Z M 52.1 40 L 58.28 40 L 52.1 40 C 52.1 40 52.1 40 52.1 40 Z M 48.55 48.55 L 52.93 52.93 L 48.55 48.55 C 48.55 48.55 48.55 48.55 48.55 48.55 Z M 40 52.1 L 40 58.28 L 40 52.1 C 40 52.1 40 52.1 40 52.1 Z M 31.45 48.55 L 27.07 52.93 L 31.45 48.55 C 31.45 48.55 31.45 48.55 31.45 48.55 Z M 27.9 40 L 21.72 40 L 27.9 40 C 27.9 40 27.9 40 27.9 40 Z M 31.45 31.45 L 27.07 27.07 L 31.45 31.45 C 31.45 31.45 31.45 31.45 31.45 31.45 Z M 31.45 31.45" />
</svg>