<svg height="80" width="80" xmlns="http://www.w3.org/2000/svg" viewBox="0 0 80 80"><path fill="#ff7362" fill-rule="evenodd" d="M0 40c0-22.09 17.9-40 40-40 22.09 0 40 17.9 40 40 0 22.09-17.9 40-40 40-22.09 0-40-17.9-40-40zm0 0"/><path stroke-linecap="round" stroke-dasharray="168.8507269236667,853.3806666854982" stroke-width="3" stroke="#fff" d="M5 40c0-19.33 15.67-35 35-35s35 15.67 35 35-15.67 35-35 35-35-15.67-35-35zm0 0" fill="none"/><path stroke-linejoin="round" stroke-linecap="round" stroke-width="2" stroke="#fff" d="M25 39.54h6.28l6.8-9.54 5.14 20.56 4.69-10.01h6.28" fill="none"/></svg>