<svg height="80" width="80" xmlns="http://www.w3.org/2000/svg" viewBox="0 0 80 80"><path fill="#f76b96" fill-rule="evenodd" d="M0 40c0-22.09 17.9-40 40-40 22.09 0 40 17.9 40 40 0 22.09-17.9 40-40 40-22.09 0-40-17.9-40-40zm0 0"/><path stroke-linecap="round" stroke-dasharray="169,853" stroke-width="3" stroke="#fff" d="M5 40c0-19.33 15.67-35 35-35s35 15.67 35 35-15.67 35-35 35-35-15.67-35-35zm0 0" fill="none"/><path stroke-linejoin="round" stroke-linecap="round" stroke-width="2" stroke="#fff" d="M52.71 30.29c-3.05-3.05-7.99-3.05-11.04 0l-1.17 1.06-1.17-1.06c-3.05-3.05-7.99-3.05-11.04 0-3.05 3.05-3.05 7.99 0 11.04l12.21 12.32 12.21-12.32c3.05-3.05 3.05-7.99 0-11.04zm0 0" fill="none"/></svg>