<?xml version="1.0" encoding="utf-8"?>
<!-- Generator: Avocode 2.6.0 - http://avocode.com -->
<svg height="80" width="80" xmlns:xlink="http://www.w3.org/1999/xlink" xmlns="http://www.w3.org/2000/svg" viewBox="0 0 80 80">
    <path fill="#bca3f4" fill-rule="evenodd" d="M 0 40 C 0 17.91 17.9 0 40 0 L 40 0 C 62.09 0 80 17.9 80 40 L 80 40 C 80 62.09 62.1 80 40 80 L 40 80 C 17.91 80 0 62.1 0 40 L 0 40 Z M 0 40" />
    <path stroke-linejoin="miter" stroke-linecap="butt" stroke-width="0.2" stroke="#ffffff" fill="#ffffff" fill-rule="evenodd" d="M 40 53.41 L 39.36 52.74 C 39.3 52.68 37.95 51.25 36.58 48.94 C 35.31 46.79 33.8 43.45 33.8 39.7 C 33.8 35.96 35.31 32.61 36.58 30.47 C 37.95 28.16 39.31 26.73 39.36 26.67 L 40 26 L 40.64 26.67 C 40.7 26.73 42.05 28.16 43.42 30.47 C 44.69 32.61 46.2 35.96 46.2 39.7 C 46.2 43.45 44.69 46.79 43.42 48.94 C 42.05 51.25 40.7 52.68 40.64 52.74 L 40 53.41 L 40 53.41 Z M 40 28.66 C 38.64 30.34 35.57 34.7 35.57 39.7 C 35.57 44.72 38.64 49.06 40 50.75 C 41.36 49.06 44.43 44.71 44.43 39.7 C 44.43 34.69 41.36 30.34 40 28.66 Z M 43.5 54.23 C 43.07 54.23 42.7 53.92 42.62 53.49 C 42.54 53 42.86 52.53 43.35 52.45 C 43.42 52.44 50.58 51.11 54.32 45.94 C 57.25 41.89 57.31 36.56 57.19 34.39 C 55.51 34.83 51.92 36.01 49.07 38.57 C 48.71 38.9 48.15 38.86 47.82 38.49 C 47.5 38.12 47.53 37.56 47.9 37.23 C 52.12 33.44 57.61 32.44 57.84 32.4 L 58.74 32.24 L 58.87 33.16 C 58.88 33.24 59.14 35.21 58.9 37.88 C 58.67 40.37 57.94 43.97 55.75 47 C 53.56 50.03 50.39 51.82 48.11 52.8 C 45.66 53.85 43.73 54.2 43.65 54.21 C 43.6 54.22 43.55 54.23 43.5 54.23 Z M 36.35 54.22 C 36.27 54.2 34.34 53.85 31.89 52.8 C 29.61 51.83 26.44 50.03 24.25 47 C 22.06 43.98 21.33 40.37 21.1 37.88 C 20.86 35.21 21.12 33.24 21.13 33.16 L 21.26 32.24 L 22.16 32.4 C 22.39 32.44 27.88 33.44 32.1 37.23 C 32.47 37.56 32.5 38.12 32.18 38.49 C 31.85 38.86 31.29 38.9 30.93 38.57 C 28.07 36.01 24.49 34.83 22.81 34.39 C 22.7 36.56 22.76 41.9 25.68 45.94 C 29.43 51.13 36.58 52.44 36.65 52.45 C 37.14 52.53 37.46 53 37.38 53.49 C 37.3 53.92 36.93 54.23 36.5 54.23 C 36.45 54.23 36.4 54.22 36.35 54.22 Z M 36.35 54.22" />
    <path stroke-linejoin="miter" stroke-linecap="round" stroke-width="2.727272727272727" stroke="#ffffff" fill="none" fill-rule="evenodd" d="M 5 40 C 5 20.67 20.67 5 40 5 L 40 5 C 59.33 5 75 20.67 75 40 L 75 40 C 75 59.33 59.33 75 40 75 L 40 75 C 20.67 75 5 59.33 5 40 L 5 40 Z M 5 40" />
</svg>