<?xml version="1.0" encoding="utf-8"?>
<!-- Generator: Avocode 2.6.0 - http://avocode.com -->
<svg height="80" width="80" xmlns:xlink="http://www.w3.org/1999/xlink" xmlns="http://www.w3.org/2000/svg" viewBox="0 0 80 80">
    <path fill="#f76b96" fill-rule="evenodd" d="M 0 40 C 0 17.91 17.9 0 40 0 L 40 0 C 62.09 0 80 17.9 80 40 L 80 40 C 80 62.09 62.1 80 40 80 L 40 80 C 17.91 80 0 62.1 0 40 L 0 40 Z M 0 40" />
    <path stroke-linejoin="miter" stroke-linecap="round" stroke-dasharray="168.8507269236667,853.3806666854982" stroke-width="2.727272727272727" stroke="#ffffff" fill="none" fill-rule="evenodd" d="M 5 40 C 5 20.67 20.67 5 40 5 L 40 5 C 59.33 5 75 20.67 75 40 L 75 40 C 75 59.33 59.33 75 40 75 L 40 75 C 20.67 75 5 59.33 5 40 L 5 40 Z M 5 40" />
    <path stroke-linejoin="round" stroke-linecap="round" stroke-width="2" stroke="#ffffff" fill="none" fill-rule="evenodd" d="M 52.71 30.29 C 49.66 27.24 44.72 27.24 41.67 30.29 L 40.5 31.35 L 39.33 30.29 C 36.28 27.24 31.34 27.24 28.29 30.29 C 25.24 33.34 25.24 38.28 28.29 41.33 L 40.5 53.65 L 52.71 41.33 C 55.76 38.28 55.76 33.34 52.71 30.29 Z M 52.71 30.29" />
</svg>