<?xml version="1.0" encoding="UTF-8" standalone="no"?>
<svg viewBox="0 0 80 80" version="1.1" xmlns="http://www.w3.org/2000/svg" xmlns:xlink="http://www.w3.org/1999/xlink">
    <defs>
        <mask id="mask-2" maskContentUnits="userSpaceOnUse" maskUnits="objectBoundingBox" x="-0.2" y="-0.2" width="38.3993157" height="28.6289412">
            <rect x="20.8" y="25.8" width="38.3993157" height="28.6289412" fill="white"></rect>
              <path d="M40.0001737,53.405 L39.3621959,52.7375735 C39.3047737,52.6774412 37.946907,51.2474853 36.5822848,48.939 C35.3130848,46.793 33.8002626,43.4481912 33.8002626,39.7029265 C33.8002626,35.9576618 35.3130848,32.6128529 36.5822848,30.4668529 C37.9473293,28.1583676 39.3051959,26.7279853 39.3621959,26.6682794 L40.0001737,26 L40.6385737,26.6674265 C40.6955737,26.7275588 42.0534404,28.1575147 43.4184848,30.466 C44.6876848,32.612 46.200507,35.9568088 46.200507,39.7020735 C46.200507,43.4473382 44.6876848,46.7921471 43.4184848,48.9381471 C42.0534404,51.2466324 40.6955737,52.6770147 40.6385737,52.7367206 L40.0001737,53.405 Z M40.0010182,28.6573382 C38.6401959,30.3436029 35.5740182,34.6987206 35.5740182,39.7025 C35.5740182,44.7199265 38.6372404,49.0643824 39.998907,50.7476618 C41.3601515,49.0609706 44.4254848,44.7058529 44.4254848,39.7025 C44.425907,34.6855 41.3626848,30.3406176 40.0010182,28.6573382 Z M43.4961737,54.2289412 C43.073107,54.2289412 42.6981737,53.9214559 42.6230182,53.4860294 C42.5389959,52.9981471 42.8624182,52.5345735 43.3450182,52.4497059 C43.4159515,52.4369118 50.5814848,51.1118676 54.317307,45.9434706 C57.2466848,41.8907206 57.3083293,36.5568529 57.1913737,34.3865441 C55.5117737,34.8296471 51.9249959,36.0126765 49.0737293,38.5680882 C48.7072404,38.8968971 48.1465293,38.8627794 47.8214182,38.4926029 C47.496307,38.1224265 47.5296626,37.5560735 47.8961515,37.2272647 C52.1234404,33.4380735 57.6051515,32.4397059 57.836107,32.3996176 L58.7413515,32.2405441 L58.8671737,33.1595882 C58.8781515,33.2418971 59.1399293,35.2057941 58.8950404,37.8831765 C58.6670404,40.3724853 57.9365959,43.9748824 55.7503293,46.9998382 C53.5636404,50.0252206 50.3893737,51.8249265 48.1114848,52.8028235 C45.6613293,53.8540735 43.7300848,54.2003676 43.6490182,54.2148676 C43.5979293,54.22425 43.5468404,54.2289412 43.4961737,54.2289412 Z M36.3504848,54.2152941 C36.2694182,54.2012206 34.3377515,53.8545 31.8880182,52.80325 C29.609707,51.8253529 26.4354404,50.0252206 24.2491737,47.0002647 C22.062907,43.9753088 21.3324626,40.3729118 21.1044626,37.8836029 C20.8591515,35.2062206 21.1213515,33.2423235 21.1323293,33.1600147 L21.2581515,32.2409706 L22.1633959,32.4000441 C22.3947737,32.4405588 27.8764848,33.4389265 32.1033515,37.2276912 C32.4698404,37.5565 32.5031959,38.1228529 32.1780848,38.4930294 C31.8525515,38.8632059 31.2918404,38.8968971 30.9253515,38.5685147 C28.0660626,36.0054265 24.4877293,34.8275147 22.8098182,34.3856912 C22.6953959,36.5577059 22.7608404,41.9013824 25.6821959,45.9434706 C29.4294182,51.1276471 36.5831293,52.4369118 36.654907,52.4497059 C37.1379293,52.5341471 37.4609293,52.9981471 37.376907,53.4860294 C37.3017515,53.9214559 36.9272404,54.2289412 36.5037515,54.2289412 C36.4530848,54.2289412 36.4019959,54.22425 36.3504848,54.2152941 Z" fill="black"></path>
        </mask>
    </defs>
    <g id="Page-1" stroke="none" stroke-width="1" fill="none" fill-rule="evenodd">
        <g id="Fitvigo/Desktop-HD" transform="translate(-360.000000, -2942.000000)">
            <g id="Group-9" transform="translate(264.000000, 2942.000000)">
                <g id="Group-2" transform="translate(96.000000, 0.000000)">
                    <g id="Habit-Border" fill="#BDA3F5">
                        <g id="Group">
                            <rect id="Rectangle-10" x="0" y="0" width="80" height="80" rx="40"></rect>
                        </g>
                    </g>
                    <g id="Combined-Shape">
              <path d="M40.0001737,53.405 L39.3621959,52.7375735 C39.3047737,52.6774412 37.946907,51.2474853 36.5822848,48.939 C35.3130848,46.793 33.8002626,43.4481912 33.8002626,39.7029265 C33.8002626,35.9576618 35.3130848,32.6128529 36.5822848,30.4668529 C37.9473293,28.1583676 39.3051959,26.7279853 39.3621959,26.6682794 L40.0001737,26 L40.6385737,26.6674265 C40.6955737,26.7275588 42.0534404,28.1575147 43.4184848,30.466 C44.6876848,32.612 46.200507,35.9568088 46.200507,39.7020735 C46.200507,43.4473382 44.6876848,46.7921471 43.4184848,48.9381471 C42.0534404,51.2466324 40.6955737,52.6770147 40.6385737,52.7367206 L40.0001737,53.405 Z M40.0010182,28.6573382 C38.6401959,30.3436029 35.5740182,34.6987206 35.5740182,39.7025 C35.5740182,44.7199265 38.6372404,49.0643824 39.998907,50.7476618 C41.3601515,49.0609706 44.4254848,44.7058529 44.4254848,39.7025 C44.425907,34.6855 41.3626848,30.3406176 40.0010182,28.6573382 Z M43.4961737,54.2289412 C43.073107,54.2289412 42.6981737,53.9214559 42.6230182,53.4860294 C42.5389959,52.9981471 42.8624182,52.5345735 43.3450182,52.4497059 C43.4159515,52.4369118 50.5814848,51.1118676 54.317307,45.9434706 C57.2466848,41.8907206 57.3083293,36.5568529 57.1913737,34.3865441 C55.5117737,34.8296471 51.9249959,36.0126765 49.0737293,38.5680882 C48.7072404,38.8968971 48.1465293,38.8627794 47.8214182,38.4926029 C47.496307,38.1224265 47.5296626,37.5560735 47.8961515,37.2272647 C52.1234404,33.4380735 57.6051515,32.4397059 57.836107,32.3996176 L58.7413515,32.2405441 L58.8671737,33.1595882 C58.8781515,33.2418971 59.1399293,35.2057941 58.8950404,37.8831765 C58.6670404,40.3724853 57.9365959,43.9748824 55.7503293,46.9998382 C53.5636404,50.0252206 50.3893737,51.8249265 48.1114848,52.8028235 C45.6613293,53.8540735 43.7300848,54.2003676 43.6490182,54.2148676 C43.5979293,54.22425 43.5468404,54.2289412 43.4961737,54.2289412 Z M36.3504848,54.2152941 C36.2694182,54.2012206 34.3377515,53.8545 31.8880182,52.80325 C29.609707,51.8253529 26.4354404,50.0252206 24.2491737,47.0002647 C22.062907,43.9753088 21.3324626,40.3729118 21.1044626,37.8836029 C20.8591515,35.2062206 21.1213515,33.2423235 21.1323293,33.1600147 L21.2581515,32.2409706 L22.1633959,32.4000441 C22.3947737,32.4405588 27.8764848,33.4389265 32.1033515,37.2276912 C32.4698404,37.5565 32.5031959,38.1228529 32.1780848,38.4930294 C31.8525515,38.8632059 31.2918404,38.8968971 30.9253515,38.5685147 C28.0660626,36.0054265 24.4877293,34.8275147 22.8098182,34.3856912 C22.6953959,36.5577059 22.7608404,41.9013824 25.6821959,45.9434706 C29.4294182,51.1276471 36.5831293,52.4369118 36.654907,52.4497059 C37.1379293,52.5341471 37.4609293,52.9981471 37.376907,53.4860294 C37.3017515,53.9214559 36.9272404,54.2289412 36.5037515,54.2289412 C36.4530848,54.2289412 36.4019959,54.22425 36.3504848,54.2152941 Z" fill="#FFFFFF" fill-rule="evenodd"></path>
              <path d="M40.0001737,53.405 L39.3621959,52.7375735 C39.3047737,52.6774412 37.946907,51.2474853 36.5822848,48.939 C35.3130848,46.793 33.8002626,43.4481912 33.8002626,39.7029265 C33.8002626,35.9576618 35.3130848,32.6128529 36.5822848,30.4668529 C37.9473293,28.1583676 39.3051959,26.7279853 39.3621959,26.6682794 L40.0001737,26 L40.6385737,26.6674265 C40.6955737,26.7275588 42.0534404,28.1575147 43.4184848,30.466 C44.6876848,32.612 46.200507,35.9568088 46.200507,39.7020735 C46.200507,43.4473382 44.6876848,46.7921471 43.4184848,48.9381471 C42.0534404,51.2466324 40.6955737,52.6770147 40.6385737,52.7367206 L40.0001737,53.405 Z M40.0010182,28.6573382 C38.6401959,30.3436029 35.5740182,34.6987206 35.5740182,39.7025 C35.5740182,44.7199265 38.6372404,49.0643824 39.998907,50.7476618 C41.3601515,49.0609706 44.4254848,44.7058529 44.4254848,39.7025 C44.425907,34.6855 41.3626848,30.3406176 40.0010182,28.6573382 Z M43.4961737,54.2289412 C43.073107,54.2289412 42.6981737,53.9214559 42.6230182,53.4860294 C42.5389959,52.9981471 42.8624182,52.5345735 43.3450182,52.4497059 C43.4159515,52.4369118 50.5814848,51.1118676 54.317307,45.9434706 C57.2466848,41.8907206 57.3083293,36.5568529 57.1913737,34.3865441 C55.5117737,34.8296471 51.9249959,36.0126765 49.0737293,38.5680882 C48.7072404,38.8968971 48.1465293,38.8627794 47.8214182,38.4926029 C47.496307,38.1224265 47.5296626,37.5560735 47.8961515,37.2272647 C52.1234404,33.4380735 57.6051515,32.4397059 57.836107,32.3996176 L58.7413515,32.2405441 L58.8671737,33.1595882 C58.8781515,33.2418971 59.1399293,35.2057941 58.8950404,37.8831765 C58.6670404,40.3724853 57.9365959,43.9748824 55.7503293,46.9998382 C53.5636404,50.0252206 50.3893737,51.8249265 48.1114848,52.8028235 C45.6613293,53.8540735 43.7300848,54.2003676 43.6490182,54.2148676 C43.5979293,54.22425 43.5468404,54.2289412 43.4961737,54.2289412 Z M36.3504848,54.2152941 C36.2694182,54.2012206 34.3377515,53.8545 31.8880182,52.80325 C29.609707,51.8253529 26.4354404,50.0252206 24.2491737,47.0002647 C22.062907,43.9753088 21.3324626,40.3729118 21.1044626,37.8836029 C20.8591515,35.2062206 21.1213515,33.2423235 21.1323293,33.1600147 L21.2581515,32.2409706 L22.1633959,32.4000441 C22.3947737,32.4405588 27.8764848,33.4389265 32.1033515,37.2276912 C32.4698404,37.5565 32.5031959,38.1228529 32.1780848,38.4930294 C31.8525515,38.8632059 31.2918404,38.8968971 30.9253515,38.5685147 C28.0660626,36.0054265 24.4877293,34.8275147 22.8098182,34.3856912 C22.6953959,36.5577059 22.7608404,41.9013824 25.6821959,45.9434706 C29.4294182,51.1276471 36.5831293,52.4369118 36.654907,52.4497059 C37.1379293,52.5341471 37.4609293,52.9981471 37.376907,53.4860294 C37.3017515,53.9214559 36.9272404,54.2289412 36.5037515,54.2289412 C36.4530848,54.2289412 36.4019959,54.22425 36.3504848,54.2152941 Z" stroke="#FFFFFF" mask="url(#mask-2)" stroke-width="0.4"></path>
                    </g>
                    <rect id="Rectangle-10-Copy" stroke="#FFFFFF" stroke-width="2.72727273" stroke-linecap="round" transform="translate(40.000000, 40.000000) rotate(-270.000000) translate(-40.000000, -40.000000) " x="5" y="5" width="70" height="70" rx="35"></rect>
                </g>
            </g>
        </g>
    </g>
</svg>
