<svg height="122" width="122" xmlns="http://www.w3.org/2000/svg" viewBox="0 0 122 122"><path stroke-linejoin="round" stroke-linecap="round" stroke-width="2" stroke="#9ac9ff" d="M61 121c33.14 0 60-26.86 60-60s-26.86-60-60-60-60 26.86-60 60 26.86 60 60 60zm0 0" fill="none"/><path fill="#fff" fill-rule="evenodd" d="M72.64 53.45h7v26h-7v-26zm0 0"/><path stroke-linejoin="round" stroke-linecap="round" stroke-width="2" stroke="#9ac9ff" d="M83.36 87.63v-34.81h-44.72v34.81c0 1.86 1.5 3.37 3.35 3.37h38.02c1.85 0 3.35-1.51 3.35-3.37zm0 0M63.18 68.64c0 1.2-.98 2.18-2.18 2.18-1.2 0-2.18-.98-2.18-2.18 0-1.21.98-2.19 2.18-2.19 1.2 0 2.18.98 2.18 2.19zm0 0M61 72.45v6-6zm0 0" fill="none"/></svg>