<?xml version="1.0" encoding="utf-8"?>
<!-- Generator: Avocode 2.6.0 - http://avocode.com -->
<svg height="122" width="122" xmlns:xlink="http://www.w3.org/1999/xlink" xmlns="http://www.w3.org/2000/svg" viewBox="0 0 122 122">
    <path stroke-linejoin="round" stroke-linecap="round" stroke-width="2" stroke="#9ac9ff" fill="none" fill-rule="evenodd" d="M 61 121 C 94.14 121 121 94.14 121 61 C 121 27.86 94.14 1 61 1 C 27.86 1 1 27.86 1 61 C 1 94.14 27.86 121 61 121 Z M 61 121" />
    <path fill="#ffffff" fill-rule="evenodd" d="M 72.64 53.45 L 79.64 53.45 L 79.64 79.45 L 72.64 79.45 L 72.64 53.45 Z M 72.64 53.45" />
    <path stroke-linejoin="round" stroke-linecap="round" stroke-width="2" stroke="#9ac9ff" fill="none" fill-rule="evenodd" d="M 83.36 87.63 L 83.36 52.82 L 38.64 52.82 L 38.64 87.63 C 38.64 89.49 40.14 91 41.99 91 L 80.01 91 C 81.86 91 83.36 89.49 83.36 87.63 L 83.36 87.63 Z M 83.36 87.63" />
    <path stroke-linejoin="round" stroke-linecap="round" stroke-width="2" stroke="#9ac9ff" fill="none" fill-rule="evenodd" d="M 63.18 68.64 C 63.18 69.84 62.2 70.82 61 70.82 C 59.8 70.82 58.82 69.84 58.82 68.64 C 58.82 67.43 59.8 66.45 61 66.45 C 62.2 66.45 63.18 67.43 63.18 68.64 L 63.18 68.64 Z M 63.18 68.64" />
    <path stroke-linejoin="round" stroke-linecap="round" stroke-width="2" stroke="#9ac9ff" fill="none" fill-rule="evenodd" d="M 61 72.45 L 61 78.45 L 61 72.45 Z M 61 72.45" />
</svg>