<?xml version="1.0" encoding="UTF-8" standalone="no"?>
<svg width="80px" height="80px" viewBox="0 0 80 80" version="1.1" xmlns="http://www.w3.org/2000/svg" xmlns:xlink="http://www.w3.org/1999/xlink">
    <g id="Page-1" stroke="none" stroke-width="1" fill="none" fill-rule="evenodd">
        <g id="Fitvigo/Desktop-HD" transform="translate(-456.000000, -2942.000000)">
            <g id="Group-9" transform="translate(264.000000, 2942.000000)">
                <g id="Group-2" transform="translate(192.000000, 0.000000)">
                    <g id="Habit-Border" fill="#82B3F5">
                        <g id="Group">
                            <rect id="Rectangle-10" x="0" y="0" width="80" height="80" rx="40"></rect>
                        </g>
                    </g>
                    <path d="M52.3419424,45.1213941 C50.3023636,49.4644 45.889135,52.4715491 40.7735491,52.4715491 C33.7189127,52.4715491 28,46.7526364 28,39.698 C28,33.1155541 32.9789619,27.696007 39.3762446,27 C37.7260942,28.9937628 36.7344017,31.5523824 36.7344017,34.3426243 C36.7344017,40.7068488 41.8936251,45.8660722 48.2578497,45.8660722 C49.6959502,45.8660722 51.0725224,45.6026382 52.3419424,45.1213941 Z" id="Oval-6" stroke="#FFFFFF" stroke-width="2" stroke-linecap="round" stroke-linejoin="round"></path>
                    <rect id="Rectangle-10-Copy" stroke="#FFFFFF" stroke-width="2.72727273" stroke-linecap="round" transform="translate(40.000000, 40.000000) rotate(-270.000000) translate(-40.000000, -40.000000) " x="5" y="5" width="70" height="70" rx="35"></rect>
                </g>
            </g>
        </g>
    </g>
</svg>
