<svg id="SvgjsSvg1017" xmlns="http://www.w3.org/2000/svg" version="1.1" xmlns:xlink="http://www.w3.org/1999/xlink" xmlns:svgjs="http://svgjs.com/svgjs" width="17" height="17" viewbox="0 0 17 17"><defs id="SvgjsDefs1018"><clipPath id="SvgjsClipPath1021"><path id="SvgjsPath1020" d="M146.29 2419.21C146.13 2419.21 146 2419.09 146 2418.93C146 2415.37 148.36 2412.41 151.84 2411.46C150.44 2410.66 149.54 2409.17 149.54 2407.54C149.54 2405.04 151.63 2403 154.19 2403C156.75 2403 158.84 2405.04 158.84 2407.54C158.84 2409.17 157.94 2410.66 156.53 2411.46C160.01 2412.41 162.38 2415.37 162.38 2418.93C162.38 2419.0899999999997 162.25 2419.21 162.09 2419.21Z " fill="#ffffff"></path></clipPath></defs><path id="SvgjsPath1019" d="M146.29 2419.21C146.13 2419.21 146 2419.09 146 2418.93C146 2415.37 148.36 2412.41 151.84 2411.46C150.44 2410.66 149.54 2409.17 149.54 2407.54C149.54 2405.04 151.63 2403 154.19 2403C156.75 2403 158.84 2405.04 158.84 2407.54C158.84 2409.17 157.94 2410.66 156.53 2411.46C160.01 2412.41 162.38 2415.37 162.38 2418.93C162.38 2419.0899999999997 162.25 2419.21 162.09 2419.21Z " fill-opacity="0" fill="#ffffff" stroke-dasharray="0" stroke-linejoin="miter" stroke-linecap="butt" stroke-opacity="1" stroke="#ffffff" stroke-miterlimit="50" stroke-width="2" clip-path="url('#SvgjsClipPath1021')" transform="matrix(1,0,0,1,-146,-2403)"></path></svg>