<svg id="SvgjsSvg1000" xmlns="http://www.w3.org/2000/svg" version="1.1" xmlns:xlink="http://www.w3.org/1999/xlink" xmlns:svgjs="http://svgjs.com/svgjs" width="123" height="40"><defs id="SvgjsDefs1001"></defs><path id="SvgjsPath1007" d="M120 46.91L120 24.999999999999996L133.44 24.999999999999996L133.44 25.989999999999995L121.05 25.989999999999995L121.05 35.14999999999999L133.21 35.14999999999999L133.21 36.12999999999999L121.05000000000001 36.12999999999999L121.05000000000001 46.90999999999999L120.00000000000001 46.90999999999999 " fill="#9ac9ff" fill-opacity="1" transform="matrix(1,0,0,1,-120,-17)"></path><path id="SvgjsPath1008" d="M137 46.91L138.05 46.91L138.05 24.999999999999996L137 24.999999999999996Z " fill="#9ac9ff" fill-opacity="1" transform="matrix(1,0,0,1,-120,-17)"></path><path id="SvgjsPath1009" d="M149.41 46.91L149.41 25.989999999999995L142 25.989999999999995L142 24.999999999999996L157.91 24.999999999999996L157.91 25.989999999999995L150.47 25.989999999999995L150.47 46.91L149.41 46.91 " fill="#9ac9ff" fill-opacity="1" transform="matrix(1,0,0,1,-120,-17)"></path><path id="SvgjsPath1010" d="M168.99 46.97L160 25L165.11 25L171.54000000000002 41.46L177.97000000000003 25L183.13000000000002 25L174.14000000000001 46.97L168.99 46.97 " fill="#9ac9ff" fill-opacity="1" transform="matrix(1,0,0,1,-120,-17)"></path><path id="SvgjsPath1011" d="M185.59 47.56L190.38 47.56L190.38 25.6L185.59 25.6ZM187.97 17C189.60999999999999 17 190.93 18.32 190.93 19.96C190.93 21.59 189.61 22.91 187.97 22.91C186.37 22.91 185 21.59 185 19.96C185 18.32 186.37 17 187.97 17Z " fill="#9ac9ff" fill-opacity="1" transform="matrix(1,0,0,1,-120,-17)"></path><path id="SvgjsPath1012" d="M211.83 32.19C210.78 30.549999999999997 208.41000000000003 29.229999999999997 206.18 29.229999999999997C202.39000000000001 29.229999999999997 199.97 32.05 199.97 36.279999999999994C199.97 40.50999999999999 202.39 43.32999999999999 206.18 43.32999999999999C208.41 43.32999999999999 210.78 42.00999999999999 211.83 40.36999999999999ZM198.33 49.69C200.11 51.739999999999995 202.39000000000001 52.51 205.31 52.51C208.46 52.51 211.83 51.059999999999995 211.83 46.559999999999995L211.83 43.919999999999995C210.14000000000001 46.099999999999994 207.64000000000001 47.559999999999995 204.76000000000002 47.559999999999995C199.15 47.559999999999995 195.00000000000003 43.51 195.00000000000003 36.279999999999994C195.00000000000003 29.179999999999993 199.11000000000004 24.999999999999993 204.76000000000002 24.999999999999993C207.54000000000002 24.999999999999993 210.05 26.269999999999992 211.83 28.589999999999993L211.83 25.549999999999994L216.62 25.549999999999994L216.62 46.36999999999999C216.62 54.28999999999999 210.74 56.42999999999999 205.31 56.42999999999999C201.57 56.42999999999999 198.79 55.60999999999999 196.1 53.14999999999999Z " fill="#9ac9ff" fill-opacity="1" transform="matrix(1,0,0,1,-120,-17)"></path><path id="SvgjsPath1013" d="M231.31 29.23C227.25 29.23 224.97 32.64 224.97 36.51C224.97 40.42 227.25 43.83 231.31 43.83C235.42000000000002 43.83 237.7 40.42 237.7 36.51C237.7 32.64 235.42 29.229999999999997 231.31 29.229999999999997ZM231.31 25C238.38 25 242.67000000000002 30.23 242.67000000000002 36.51C242.67000000000002 42.83 238.38000000000002 48.06 231.31 48.06C224.33 48.06 220 42.83 220 36.510000000000005C220 30.230000000000004 224.33 25.000000000000007 231.31 25.000000000000007Z " fill="#9ac9ff" fill-opacity="1" transform="matrix(1,0,0,1,-120,-17)"></path></svg>