<svg id="SvgjsSvg1014" xmlns="http://www.w3.org/2000/svg" version="1.1" xmlns:xlink="http://www.w3.org/1999/xlink" xmlns:svgjs="http://svgjs.com/svgjs" width="947.0000000000001" height="204"><defs id="SvgjsDefs1015"><clipPath id="SvgjsClipPath1020"><path id="SvgjsPath1019" d="M839 2084L839 2072L851 2072L851 2084ZM845 2082C847.20914 2082 849 2080.20914 849 2078C849 2075.79086 847.20914 2074 845 2074C842.79086 2074 841 2075.79086 841 2078C841 2080.20914 842.79086 2082 845 2082Z " fill="#ffffff"></path></clipPath><clipPath id="SvgjsClipPath1024"><path id="SvgjsPath1023" d="M921 2119L921 2107L933 2107L933 2119ZM927 2117C929.20914 2117 931 2115.20914 931 2113C931 2110.79086 929.20914 2109 927 2109C924.79086 2109 923 2110.79086 923 2113C923 2115.20914 924.79086 2117 927 2117Z " fill="#ffffff"></path></clipPath><clipPath id="SvgjsClipPath1028"><path id="SvgjsPath1027" d="M1002 2093L1002 2081L1014 2081L1014 2093ZM1008 2091C1010.20914 2091 1012 2089.20914 1012 2087C1012 2084.79086 1010.20914 2083 1008 2083C1005.79086 2083 1004 2084.79086 1004 2087C1004 2089.20914 1005.79086 2091 1008 2091Z " fill="#ffffff"></path></clipPath><clipPath id="SvgjsClipPath1032"><path id="SvgjsPath1031" d="M1085 2148L1085 2136L1097 2136L1097 2148ZM1091 2146C1093.20914 2146 1095 2144.20914 1095 2142C1095 2139.79086 1093.20914 2138 1091 2138C1088.79086 2138 1087 2139.79086 1087 2142C1087 2144.20914 1088.79086 2146 1091 2146Z " fill="#ffffff"></path></clipPath><clipPath id="SvgjsClipPath1036"><path id="SvgjsPath1035" d="M757 2130L757 2118L769 2118L769 2130ZM763 2128C765.20914 2128 767 2126.20914 767 2124C767 2121.79086 765.20914 2120 763 2120C760.79086 2120 759 2121.79086 759 2124C759 2126.20914 760.79086 2128 763 2128Z " fill="#ffffff"></path></clipPath><clipPath id="SvgjsClipPath1040"><path id="SvgjsPath1039" d="M675 2120L675 2108L687 2108L687 2120ZM681 2118C683.20914 2118 685 2116.20914 685 2114C685 2111.79086 683.20914 2110 681 2110C678.79086 2110 677 2111.79086 677 2114C677 2116.20914 678.79086 2118 681 2118Z " fill="#ffffff"></path></clipPath><clipPath id="SvgjsClipPath1044"><path id="SvgjsPath1043" d="M593 2157L593 2145L605 2145L605 2157ZM599 2155C601.20914 2155 603 2153.20914 603 2151C603 2148.79086 601.20914 2147 599 2147C596.79086 2147 595 2148.79086 595 2151C595 2153.20914 596.79086 2155 599 2155Z " fill="#ffffff"></path></clipPath><clipPath id="SvgjsClipPath1048"><path id="SvgjsPath1047" d="M511 2192L511 2180L523 2180L523 2192ZM517 2190C519.20914 2190 521 2188.20914 521 2186C521 2183.79086 519.20914 2182 517 2182C514.79086 2182 513 2183.79086 513 2186C513 2188.20914 514.79086 2190 517 2190Z " fill="#ffffff"></path></clipPath><clipPath id="SvgjsClipPath1052"><path id="SvgjsPath1051" d="M429 2254L429 2242L441 2242L441 2254ZM435 2252C437.20914 2252 439 2250.20914 439 2248C439 2245.79086 437.20914 2244 435 2244C432.79086 2244 431 2245.79086 431 2248C431 2250.20914 432.79086 2252 435 2252Z " fill="#ffffff"></path></clipPath><clipPath id="SvgjsClipPath1056"><path id="SvgjsPath1055" d="M346 2228L346 2216L358 2216L358 2228ZM352 2226C354.20914 2226 356 2224.20914 356 2222C356 2219.79086 354.20914 2218 352 2218C349.79086 2218 348 2219.79086 348 2222C348 2224.20914 349.79086 2226 352 2226Z " fill="#ffffff"></path></clipPath><clipPath id="SvgjsClipPath1060"><path id="SvgjsPath1059" d="M264 2165L264 2153L276 2153L276 2165ZM270 2163C272.20914 2163 274 2161.20914 274 2159C274 2156.79086 272.20914 2155 270 2155C267.79086 2155 266 2156.79086 266 2159C266 2161.20914 267.79086 2163 270 2163Z " fill="#ffffff"></path></clipPath><clipPath id="SvgjsClipPath1064"><path id="SvgjsPath1063" d="M182 2276L182 2264L194 2264L194 2276ZM188 2274C190.20914 2274 192 2272.20914 192 2270C192 2267.79086 190.20914 2266 188 2266C185.79086 2266 184 2267.79086 184 2270C184 2272.20914 185.79086 2274 188 2274Z " fill="#ffffff"></path></clipPath></defs><path id="SvgjsPath1016" d="M151 2248.21C167.36 2260.09 183.14 2270.03 188.68 2270.03C200.85 2270.03 255.35000000000002 2159 270.35 2159C285.35 2159 337.85 2211.5 351.85 2222C365.85 2232.5 414.35 2254.5 434.85 2248.5C455.35 2242.5 499.1 2196.18 517.48 2185.6C535.85 2175.02 586.37 2156 598.86 2151.5C611.35 2147 662.85 2115 680.85 2114C698.85 2113 746.35 2124.5 763.85 2124.5C781.35 2124.5 825.87 2078 844.36 2078C862.85 2078 909.85 2113 927.35 2113C944.85 2113 991.87 2087.5 1008.86 2087.5C1025.85 2087.5 1090.3600000000001 2142 1090.3600000000001 2142 " fill-opacity="0" fill="#ffffff" stroke-dasharray="0" stroke-linejoin="miter" stroke-linecap="round" stroke-opacity="1" stroke="#848cf9" stroke-miterlimit="50" stroke-width="2" transform="matrix(1,0,0,1,-149.9999999999999,-2072)"></path><path id="SvgjsPath1017" d="M841 2078C841 2075.79086 842.79086 2074 845 2074C847.20914 2074 849 2075.79086 849 2078C849 2080.20914 847.20914 2082 845 2082C842.79086 2082 841 2080.20914 841 2078Z " fill="#848cf9" fill-opacity="1" transform="matrix(1,0,0,1,-149.9999999999999,-2072)"></path><path id="SvgjsPath1018" d="M841 2078C841 2075.79086 842.79086 2074 845 2074C847.20914 2074 849 2075.79086 849 2078C849 2080.20914 847.20914 2082 845 2082C842.79086 2082 841 2080.20914 841 2078Z " fill-opacity="0" fill="#ffffff" stroke-dasharray="0" stroke-linejoin="miter" stroke-linecap="butt" stroke-opacity="1" stroke="#ffffff" stroke-miterlimit="50" stroke-width="4" clip-path="url(&quot;#SvgjsClipPath1020&quot;)" transform="matrix(1,0,0,1,-149.9999999999999,-2072)"></path><path id="SvgjsPath1021" d="M923 2113C923 2110.79086 924.79086 2109 927 2109C929.20914 2109 931 2110.79086 931 2113C931 2115.20914 929.20914 2117 927 2117C924.79086 2117 923 2115.20914 923 2113Z " fill="#848cf9" fill-opacity="1" transform="matrix(1,0,0,1,-149.9999999999999,-2072)"></path><path id="SvgjsPath1022" d="M923 2113C923 2110.79086 924.79086 2109 927 2109C929.20914 2109 931 2110.79086 931 2113C931 2115.20914 929.20914 2117 927 2117C924.79086 2117 923 2115.20914 923 2113Z " fill-opacity="0" fill="#ffffff" stroke-dasharray="0" stroke-linejoin="miter" stroke-linecap="butt" stroke-opacity="1" stroke="#ffffff" stroke-miterlimit="50" stroke-width="4" clip-path="url(&quot;#SvgjsClipPath1024&quot;)" transform="matrix(1,0,0,1,-149.9999999999999,-2072)"></path><path id="SvgjsPath1025" d="M1004 2087C1004 2084.79086 1005.79086 2083 1008 2083C1010.20914 2083 1012 2084.79086 1012 2087C1012 2089.20914 1010.20914 2091 1008 2091C1005.79086 2091 1004 2089.20914 1004 2087Z " fill="#848cf9" fill-opacity="1" transform="matrix(1,0,0,1,-149.9999999999999,-2072)"></path><path id="SvgjsPath1026" d="M1004 2087C1004 2084.79086 1005.79086 2083 1008 2083C1010.20914 2083 1012 2084.79086 1012 2087C1012 2089.20914 1010.20914 2091 1008 2091C1005.79086 2091 1004 2089.20914 1004 2087Z " fill-opacity="0" fill="#ffffff" stroke-dasharray="0" stroke-linejoin="miter" stroke-linecap="butt" stroke-opacity="1" stroke="#ffffff" stroke-miterlimit="50" stroke-width="4" clip-path="url(&quot;#SvgjsClipPath1028&quot;)" transform="matrix(1,0,0,1,-149.9999999999999,-2072)"></path><path id="SvgjsPath1029" d="M1087 2142C1087 2139.79086 1088.79086 2138 1091 2138C1093.20914 2138 1095 2139.79086 1095 2142C1095 2144.20914 1093.20914 2146 1091 2146C1088.79086 2146 1087 2144.20914 1087 2142Z " fill="#848cf9" fill-opacity="1" transform="matrix(1,0,0,1,-149.9999999999999,-2072)"></path><path id="SvgjsPath1030" d="M1087 2142C1087 2139.79086 1088.79086 2138 1091 2138C1093.20914 2138 1095 2139.79086 1095 2142C1095 2144.20914 1093.20914 2146 1091 2146C1088.79086 2146 1087 2144.20914 1087 2142Z " fill-opacity="0" fill="#ffffff" stroke-dasharray="0" stroke-linejoin="miter" stroke-linecap="butt" stroke-opacity="1" stroke="#ffffff" stroke-miterlimit="50" stroke-width="4" clip-path="url(&quot;#SvgjsClipPath1032&quot;)" transform="matrix(1,0,0,1,-149.9999999999999,-2072)"></path><path id="SvgjsPath1033" d="M759 2124C759 2121.79086 760.79086 2120 763 2120C765.20914 2120 767 2121.79086 767 2124C767 2126.20914 765.20914 2128 763 2128C760.79086 2128 759 2126.20914 759 2124Z " fill="#848cf9" fill-opacity="1" transform="matrix(1,0,0,1,-149.9999999999999,-2072)"></path><path id="SvgjsPath1034" d="M759 2124C759 2121.79086 760.79086 2120 763 2120C765.20914 2120 767 2121.79086 767 2124C767 2126.20914 765.20914 2128 763 2128C760.79086 2128 759 2126.20914 759 2124Z " fill-opacity="0" fill="#ffffff" stroke-dasharray="0" stroke-linejoin="miter" stroke-linecap="butt" stroke-opacity="1" stroke="#ffffff" stroke-miterlimit="50" stroke-width="4" clip-path="url(&quot;#SvgjsClipPath1036&quot;)" transform="matrix(1,0,0,1,-149.9999999999999,-2072)"></path><path id="SvgjsPath1037" d="M677 2114C677 2111.79086 678.79086 2110 681 2110C683.20914 2110 685 2111.79086 685 2114C685 2116.20914 683.20914 2118 681 2118C678.79086 2118 677 2116.20914 677 2114Z " fill="#848cf9" fill-opacity="1" transform="matrix(1,0,0,1,-149.9999999999999,-2072)"></path><path id="SvgjsPath1038" d="M677 2114C677 2111.79086 678.79086 2110 681 2110C683.20914 2110 685 2111.79086 685 2114C685 2116.20914 683.20914 2118 681 2118C678.79086 2118 677 2116.20914 677 2114Z " fill-opacity="0" fill="#ffffff" stroke-dasharray="0" stroke-linejoin="miter" stroke-linecap="butt" stroke-opacity="1" stroke="#ffffff" stroke-miterlimit="50" stroke-width="4" clip-path="url(&quot;#SvgjsClipPath1040&quot;)" transform="matrix(1,0,0,1,-149.9999999999999,-2072)"></path><path id="SvgjsPath1041" d="M595 2151C595 2148.79086 596.79086 2147 599 2147C601.20914 2147 603 2148.79086 603 2151C603 2153.20914 601.20914 2155 599 2155C596.79086 2155 595 2153.20914 595 2151Z " fill="#848cf9" fill-opacity="1" transform="matrix(1,0,0,1,-149.9999999999999,-2072)"></path><path id="SvgjsPath1042" d="M595 2151C595 2148.79086 596.79086 2147 599 2147C601.20914 2147 603 2148.79086 603 2151C603 2153.20914 601.20914 2155 599 2155C596.79086 2155 595 2153.20914 595 2151Z " fill-opacity="0" fill="#ffffff" stroke-dasharray="0" stroke-linejoin="miter" stroke-linecap="butt" stroke-opacity="1" stroke="#ffffff" stroke-miterlimit="50" stroke-width="4" clip-path="url(&quot;#SvgjsClipPath1044&quot;)" transform="matrix(1,0,0,1,-149.9999999999999,-2072)"></path><path id="SvgjsPath1045" d="M513 2186C513 2183.79086 514.79086 2182 517 2182C519.20914 2182 521 2183.79086 521 2186C521 2188.20914 519.20914 2190 517 2190C514.79086 2190 513 2188.20914 513 2186Z " fill="#848cf9" fill-opacity="1" transform="matrix(1,0,0,1,-149.9999999999999,-2072)"></path><path id="SvgjsPath1046" d="M513 2186C513 2183.79086 514.79086 2182 517 2182C519.20914 2182 521 2183.79086 521 2186C521 2188.20914 519.20914 2190 517 2190C514.79086 2190 513 2188.20914 513 2186Z " fill-opacity="0" fill="#ffffff" stroke-dasharray="0" stroke-linejoin="miter" stroke-linecap="butt" stroke-opacity="1" stroke="#ffffff" stroke-miterlimit="50" stroke-width="4" clip-path="url(&quot;#SvgjsClipPath1048&quot;)" transform="matrix(1,0,0,1,-149.9999999999999,-2072)"></path><path id="SvgjsPath1049" d="M431 2248C431 2245.79086 432.79086 2244 435 2244C437.20914 2244 439 2245.79086 439 2248C439 2250.20914 437.20914 2252 435 2252C432.79086 2252 431 2250.20914 431 2248Z " fill="#848cf9" fill-opacity="1" transform="matrix(1,0,0,1,-149.9999999999999,-2072)"></path><path id="SvgjsPath1050" d="M431 2248C431 2245.79086 432.79086 2244 435 2244C437.20914 2244 439 2245.79086 439 2248C439 2250.20914 437.20914 2252 435 2252C432.79086 2252 431 2250.20914 431 2248Z " fill-opacity="0" fill="#ffffff" stroke-dasharray="0" stroke-linejoin="miter" stroke-linecap="butt" stroke-opacity="1" stroke="#ffffff" stroke-miterlimit="50" stroke-width="4" clip-path="url(&quot;#SvgjsClipPath1052&quot;)" transform="matrix(1,0,0,1,-149.9999999999999,-2072)"></path><path id="SvgjsPath1053" d="M348 2222C348 2219.79086 349.79086 2218 352 2218C354.20914 2218 356 2219.79086 356 2222C356 2224.20914 354.20914 2226 352 2226C349.79086 2226 348 2224.20914 348 2222Z " fill="#848cf9" fill-opacity="1" transform="matrix(1,0,0,1,-149.9999999999999,-2072)"></path><path id="SvgjsPath1054" d="M348 2222C348 2219.79086 349.79086 2218 352 2218C354.20914 2218 356 2219.79086 356 2222C356 2224.20914 354.20914 2226 352 2226C349.79086 2226 348 2224.20914 348 2222Z " fill-opacity="0" fill="#ffffff" stroke-dasharray="0" stroke-linejoin="miter" stroke-linecap="butt" stroke-opacity="1" stroke="#ffffff" stroke-miterlimit="50" stroke-width="4" clip-path="url(&quot;#SvgjsClipPath1056&quot;)" transform="matrix(1,0,0,1,-149.9999999999999,-2072)"></path><path id="SvgjsPath1057" d="M266 2159C266 2156.79086 267.79086 2155 270 2155C272.20914 2155 274 2156.79086 274 2159C274 2161.20914 272.20914 2163 270 2163C267.79086 2163 266 2161.20914 266 2159Z " fill="#848cf9" fill-opacity="1" transform="matrix(1,0,0,1,-149.9999999999999,-2072)"></path><path id="SvgjsPath1058" d="M266 2159C266 2156.79086 267.79086 2155 270 2155C272.20914 2155 274 2156.79086 274 2159C274 2161.20914 272.20914 2163 270 2163C267.79086 2163 266 2161.20914 266 2159Z " fill-opacity="0" fill="#ffffff" stroke-dasharray="0" stroke-linejoin="miter" stroke-linecap="butt" stroke-opacity="1" stroke="#ffffff" stroke-miterlimit="50" stroke-width="4" clip-path="url(&quot;#SvgjsClipPath1060&quot;)" transform="matrix(1,0,0,1,-149.9999999999999,-2072)"></path><path id="SvgjsPath1061" d="M184 2270C184 2267.79086 185.79086 2266 188 2266C190.20914 2266 192 2267.79086 192 2270C192 2272.20914 190.20914 2274 188 2274C185.79086 2274 184 2272.20914 184 2270Z " fill="#848cf9" fill-opacity="1" transform="matrix(1,0,0,1,-149.9999999999999,-2072)"></path><path id="SvgjsPath1062" d="M184 2270C184 2267.79086 185.79086 2266 188 2266C190.20914 2266 192 2267.79086 192 2270C192 2272.20914 190.20914 2274 188 2274C185.79086 2274 184 2272.20914 184 2270Z " fill-opacity="0" fill="#ffffff" stroke-dasharray="0" stroke-linejoin="miter" stroke-linecap="butt" stroke-opacity="1" stroke="#ffffff" stroke-miterlimit="50" stroke-width="4" clip-path="url(&quot;#SvgjsClipPath1064&quot;)" transform="matrix(1,0,0,1,-149.9999999999999,-2072)"></path></svg>